<svg width="14" height="14" viewBox="0 0 14 14" fill="none" xmlns="http://www.w3.org/2000/svg">
<path d="M4.41971 10.8793C4.27897 10.7386 4.0514 10.7386 3.91066 10.8793C3.76993 11.0201 3.76993 11.2476 3.91066 11.3884L4.3179 11.7956H2.665C1.59002 11.7956 0.718652 10.9213 0.718652 9.84926V8.64253C0.718652 8.4449 0.556955 8.2832 0.359326 8.2832C0.161697 8.2832 0 8.4449 0 8.64253V9.84926C0 11.3195 1.19476 12.5143 2.665 12.5143H4.3179L3.91066 12.9215C3.76993 13.0622 3.76993 13.2898 3.91066 13.4305C3.97953 13.4994 4.07236 13.5353 4.16519 13.5353C4.25801 13.5353 4.34784 13.4994 4.41971 13.4305L5.44079 12.4095C5.58153 12.2687 5.58153 12.0412 5.44079 11.9004L4.41971 10.8793Z" fill="#FF725E"/>
<path d="M6.28823 0.000488281H0.386303C0.188674 0.000488281 0.0269775 0.162185 0.0269775 0.359814V6.26174C0.0269775 6.45937 0.188674 6.62107 0.386303 6.62107H6.28823C6.48586 6.62107 6.64756 6.45937 6.64756 6.26174V0.359814C6.64756 0.162185 6.48885 0.000488281 6.28823 0.000488281ZM5.9289 5.90242H0.745629V0.71914H5.9289V5.90242Z" fill="#FF725E"/>
<path d="M10.8486 1.02183H9.19573L9.60296 0.614597C9.7437 0.473861 9.7437 0.246288 9.60296 0.105552C9.46223 -0.035184 9.23465 -0.035184 9.09392 0.105552L8.07583 1.12664C7.93509 1.26737 7.93509 1.49495 8.07583 1.63568L9.09691 2.65677C9.16578 2.72564 9.25861 2.76157 9.35143 2.76157C9.44426 2.76157 9.53409 2.72564 9.60596 2.65677C9.74669 2.51603 9.74669 2.28846 9.60596 2.14772L9.19872 1.74048H10.8516C11.9266 1.74048 12.798 2.61484 12.798 3.68683V4.89357C12.798 5.0912 12.9597 5.25289 13.1573 5.25289C13.3549 5.25289 13.5166 5.0912 13.5166 4.89357V3.68683C13.5166 2.21659 12.3189 1.02183 10.8486 1.02183Z" fill="#FF725E"/>
<path d="M13.1304 12.8164C13.0346 12.8164 12.9417 12.8553 12.8759 12.9212C12.81 12.9871 12.7711 13.0799 12.7711 13.1757C12.7711 13.2686 12.81 13.3644 12.8759 13.4303C12.9417 13.4961 13.0346 13.5351 13.1304 13.5351C13.2262 13.5351 13.319 13.4961 13.3849 13.4303C13.4508 13.3644 13.4897 13.2716 13.4897 13.1757C13.4897 13.0799 13.4508 12.9871 13.3849 12.9212C13.316 12.8553 13.2232 12.8164 13.1304 12.8164Z" fill="#FF725E"/>
<path d="M11.6541 12.8164C11.4565 12.8164 11.2948 12.9781 11.2948 13.1757C11.2948 13.3734 11.4565 13.5351 11.6541 13.5351C11.8518 13.5351 12.0135 13.3734 12.0135 13.1757C12.0135 12.9781 11.8518 12.8164 11.6541 12.8164Z" fill="#FF725E"/>
<path d="M8.70167 12.8164C8.50404 12.8164 8.34235 12.9781 8.34235 13.1757C8.34235 13.3734 8.50404 13.5351 8.70167 13.5351C8.8993 13.5351 9.061 13.3734 9.061 13.1757C9.061 12.9781 8.9023 12.8164 8.70167 12.8164Z" fill="#FF725E"/>
<path d="M10.1779 12.8164C9.9803 12.8164 9.8186 12.9781 9.8186 13.1757C9.8186 13.3734 9.9803 13.5351 10.1779 13.5351C10.3756 13.5351 10.5373 13.3734 10.5373 13.1757C10.5373 12.9781 10.3756 12.8164 10.1779 12.8164Z" fill="#FF725E"/>
<path d="M7.22847 12.8164C7.13265 12.8164 7.03982 12.8553 6.97394 12.9212C6.90807 12.9871 6.86914 13.0799 6.86914 13.1757C6.86914 13.2686 6.90807 13.3644 6.97394 13.4303C7.03982 13.4961 7.13265 13.5351 7.22847 13.5351C7.32129 13.5351 7.41711 13.4961 7.48299 13.4303C7.54887 13.3644 7.58779 13.2716 7.58779 13.1757C7.58779 13.0799 7.54887 12.9871 7.48299 12.9212C7.41711 12.8553 7.32126 12.8164 7.22847 12.8164Z" fill="#FF725E"/>
<path d="M7.22847 11.3403C7.03084 11.3403 6.86914 11.502 6.86914 11.6997C6.86914 11.8973 7.03084 12.059 7.22847 12.059C7.4261 12.059 7.58779 11.8973 7.58779 11.6997C7.58779 11.502 7.42607 11.3403 7.22847 11.3403Z" fill="#FF725E"/>
<path d="M7.22847 9.86426C7.03084 9.86426 6.86914 10.026 6.86914 10.2236C6.86914 10.4212 7.03084 10.5829 7.22847 10.5829C7.4261 10.5829 7.58779 10.4212 7.58779 10.2236C7.58779 10.026 7.42607 9.86426 7.22847 9.86426Z" fill="#FF725E"/>
<path d="M7.22847 8.3877C7.03084 8.3877 6.86914 8.54939 6.86914 8.74702C6.86914 8.94465 7.03084 9.10635 7.22847 9.10635C7.4261 9.10635 7.58779 8.94465 7.58779 8.74702C7.58779 8.54939 7.42607 8.3877 7.22847 8.3877Z" fill="#FF725E"/>
<path d="M7.22847 6.91455C7.13265 6.91455 7.03982 6.95348 6.97394 7.01935C6.90807 7.08523 6.86914 7.17806 6.86914 7.27388C6.86914 7.3697 6.90807 7.46252 6.97394 7.5284C7.03982 7.59428 7.13265 7.6332 7.22847 7.6332C7.32129 7.6332 7.41711 7.59428 7.48299 7.5284C7.54887 7.46252 7.58779 7.3697 7.58779 7.27388C7.58779 7.18105 7.54887 7.08523 7.48299 7.01935C7.41409 6.95048 7.32126 6.91455 7.22847 6.91455Z" fill="#FF725E"/>
<path d="M11.6541 6.91455C11.4565 6.91455 11.2948 7.07625 11.2948 7.27388C11.2948 7.47151 11.4565 7.6332 11.6541 7.6332C11.8518 7.6332 12.0135 7.47151 12.0135 7.27388C12.0135 7.07625 11.8518 6.91455 11.6541 6.91455Z" fill="#FF725E"/>
<path d="M10.1779 6.91455C9.9803 6.91455 9.8186 7.07625 9.8186 7.27388C9.8186 7.47151 9.9803 7.6332 10.1779 7.6332C10.3756 7.6332 10.5373 7.47151 10.5373 7.27388C10.5373 7.07625 10.3756 6.91455 10.1779 6.91455Z" fill="#FF725E"/>
<path d="M8.70167 6.91455C8.50404 6.91455 8.34235 7.07625 8.34235 7.27388C8.34235 7.47151 8.50404 7.6332 8.70167 7.6332C8.8993 7.6332 9.061 7.47151 9.061 7.27388C9.061 7.07625 8.9023 6.91455 8.70167 6.91455Z" fill="#FF725E"/>
<path d="M13.1304 6.91455C13.0346 6.91455 12.9417 6.95348 12.8759 7.01935C12.81 7.08523 12.7711 7.17806 12.7711 7.27388C12.7711 7.3697 12.81 7.46252 12.8759 7.5284C12.9417 7.59428 13.0346 7.6332 13.1304 7.6332C13.2262 7.6332 13.319 7.59428 13.3849 7.5284C13.4508 7.46252 13.4897 7.3697 13.4897 7.27388C13.4897 7.18105 13.4508 7.08523 13.3849 7.01935C13.316 6.95348 13.2232 6.91455 13.1304 6.91455Z" fill="#FF725E"/>
<path d="M13.1304 8.3877C12.9328 8.3877 12.7711 8.54939 12.7711 8.74702C12.7711 8.94465 12.9328 9.10635 13.1304 9.10635C13.328 9.10635 13.4897 8.94465 13.4897 8.74702C13.4897 8.54939 13.328 8.3877 13.1304 8.3877Z" fill="#FF725E"/>
<path d="M13.1304 11.3403C12.9328 11.3403 12.7711 11.502 12.7711 11.6997C12.7711 11.8973 12.9328 12.059 13.1304 12.059C13.328 12.059 13.4897 11.8973 13.4897 11.6997C13.4897 11.502 13.328 11.3403 13.1304 11.3403Z" fill="#FF725E"/>
<path d="M13.1304 9.86426C12.9328 9.86426 12.7711 10.026 12.7711 10.2236C12.7711 10.4212 12.9328 10.5829 13.1304 10.5829C13.328 10.5829 13.4897 10.4212 13.4897 10.2236C13.4897 10.026 13.328 9.86426 13.1304 9.86426Z" fill="#FF725E"/>
</svg>
