<svg width="24" height="24" viewBox="0 0 24 24" fill="none" xmlns="http://www.w3.org/2000/svg">
<path d="M12 2C17.514 2 22 6.486 22 12C22 17.514 17.514 22 12 22C6.486 22 2 17.514 2 12C2 6.486 6.486 2 12 2ZM12 0C5.373 0 0 5.373 0 12C0 18.627 5.373 24 12 24C18.627 24 24 18.627 24 12C24 5.373 18.627 0 12 0ZM17.507 13.941C15.995 15.136 14.333 15.872 12.001 15.872C9.667 15.872 8.005 15.136 6.493 13.941L6 14.434C7.127 16.154 9.2 18 12.001 18C14.801 18 16.873 16.154 18 14.434L17.507 13.941ZM8.5 8C7.672 8 7 8.671 7 9.5C7 10.329 7.672 11 8.5 11C9.328 11 10 10.329 10 9.5C10 8.671 9.328 8 8.5 8ZM15.5 8C14.672 8 14 8.671 14 9.5C14 10.329 14.672 11 15.5 11C16.328 11 17 10.329 17 9.5C17 8.671 16.328 8 15.5 8Z" fill="#00D5D5"/>
</svg>
