<svg width="1440" height="757" viewBox="0 0 1440 757" fill="none" xmlns="http://www.w3.org/2000/svg">
<g opacity="0.4">
<rect x="670" y="214" width="1376.03" height="767.907" rx="99" transform="rotate(-45 670 214)" fill="#FFEAA7"/>
</g>
<rect x="719.048" y="200.952" width="182" height="49" rx="24.5" fill="#55EFC4"/>
<g clip-path="url(#clip0)">
<path d="M1403.66 143.28C1407.35 143.28 1410.34 140.287 1410.34 136.594C1410.34 132.901 1407.35 129.907 1403.66 129.907C1399.96 129.907 1396.97 132.901 1396.97 136.594C1396.97 140.287 1399.96 143.28 1403.66 143.28Z" fill="#FDCB6E"/>
<path d="M1425.94 120.992C1429.64 120.992 1432.63 117.998 1432.63 114.305C1432.63 110.613 1429.64 107.619 1425.94 107.619C1422.25 107.619 1419.26 110.613 1419.26 114.305C1419.26 117.998 1422.25 120.992 1425.94 120.992Z" fill="#FDCB6E"/>
<path d="M1359.08 187.857C1362.77 187.857 1365.77 184.863 1365.77 181.17C1365.77 177.477 1362.77 174.484 1359.08 174.484C1355.39 174.484 1352.39 177.477 1352.39 181.17C1352.39 184.863 1355.39 187.857 1359.08 187.857Z" fill="#FDCB6E"/>
<path d="M1381.37 165.568C1385.06 165.568 1388.05 162.575 1388.05 158.882C1388.05 155.189 1385.06 152.195 1381.37 152.195C1377.68 152.195 1374.68 155.189 1374.68 158.882C1374.68 162.575 1377.68 165.568 1381.37 165.568Z" fill="#FDCB6E"/>
<path d="M1403.66 187.857C1407.35 187.857 1410.34 184.863 1410.34 181.17C1410.34 177.477 1407.35 174.484 1403.66 174.484C1399.96 174.484 1396.97 177.477 1396.97 181.17C1396.97 184.863 1399.96 187.857 1403.66 187.857Z" fill="#FDCB6E"/>
<path d="M1425.94 165.568C1429.64 165.568 1432.63 162.575 1432.63 158.882C1432.63 155.189 1429.64 152.195 1425.94 152.195C1422.25 152.195 1419.26 155.189 1419.26 158.882C1419.26 162.575 1422.25 165.568 1425.94 165.568Z" fill="#FDCB6E"/>
<path d="M1314.5 232.433C1318.2 232.433 1321.19 229.439 1321.19 225.747C1321.19 222.054 1318.2 219.06 1314.5 219.06C1310.81 219.06 1307.82 222.054 1307.82 225.747C1307.82 229.439 1310.81 232.433 1314.5 232.433Z" fill="#FDCB6E"/>
<path d="M1336.79 210.145C1340.48 210.145 1343.48 207.151 1343.48 203.458C1343.48 199.766 1340.48 196.772 1336.79 196.772C1333.1 196.772 1330.11 199.766 1330.11 203.458C1330.11 207.151 1333.1 210.145 1336.79 210.145Z" fill="#FDCB6E"/>
<path d="M1359.08 232.433C1362.77 232.433 1365.77 229.439 1365.77 225.747C1365.77 222.054 1362.77 219.06 1359.08 219.06C1355.39 219.06 1352.39 222.054 1352.39 225.747C1352.39 229.439 1355.39 232.433 1359.08 232.433Z" fill="#FDCB6E"/>
<path d="M1381.37 210.145C1385.06 210.145 1388.05 207.151 1388.05 203.458C1388.05 199.766 1385.06 196.772 1381.37 196.772C1377.68 196.772 1374.68 199.766 1374.68 203.458C1374.68 207.151 1377.68 210.145 1381.37 210.145Z" fill="#FDCB6E"/>
<path d="M1403.66 232.433C1407.35 232.433 1410.34 229.439 1410.34 225.747C1410.34 222.054 1407.35 219.06 1403.66 219.06C1399.96 219.06 1396.97 222.054 1396.97 225.747C1396.97 229.439 1399.96 232.433 1403.66 232.433Z" fill="#FDCB6E"/>
<path d="M1425.94 210.145C1429.64 210.145 1432.63 207.151 1432.63 203.458C1432.63 199.766 1429.64 196.772 1425.94 196.772C1422.25 196.772 1419.26 199.766 1419.26 203.458C1419.26 207.151 1422.25 210.145 1425.94 210.145Z" fill="#FDCB6E"/>
<path d="M1336.79 254.721C1340.48 254.721 1343.48 251.728 1343.48 248.035C1343.48 244.342 1340.48 241.348 1336.79 241.348C1333.1 241.348 1330.11 244.342 1330.11 248.035C1330.11 251.728 1333.1 254.721 1336.79 254.721Z" fill="#FDCB6E"/>
<path d="M1359.08 277.01C1362.77 277.01 1365.77 274.016 1365.77 270.323C1365.77 266.63 1362.77 263.637 1359.08 263.637C1355.39 263.637 1352.39 266.63 1352.39 270.323C1352.39 274.016 1355.39 277.01 1359.08 277.01Z" fill="#FDCB6E"/>
<path d="M1381.37 254.721C1385.06 254.721 1388.05 251.728 1388.05 248.035C1388.05 244.342 1385.06 241.348 1381.37 241.348C1377.68 241.348 1374.68 244.342 1374.68 248.035C1374.68 251.728 1377.68 254.721 1381.37 254.721Z" fill="#FDCB6E"/>
<path d="M1403.66 277.01C1407.35 277.01 1410.34 274.016 1410.34 270.323C1410.34 266.63 1407.35 263.637 1403.66 263.637C1399.96 263.637 1396.97 266.63 1396.97 270.323C1396.97 274.016 1399.96 277.01 1403.66 277.01Z" fill="#FDCB6E"/>
<path d="M1425.94 254.721C1429.64 254.721 1432.63 251.728 1432.63 248.035C1432.63 244.342 1429.64 241.348 1425.94 241.348C1422.25 241.348 1419.26 244.342 1419.26 248.035C1419.26 251.728 1422.25 254.721 1425.94 254.721Z" fill="#FDCB6E"/>
<path d="M1381.37 299.298C1385.06 299.298 1388.05 296.304 1388.05 292.611C1388.05 288.918 1385.06 285.925 1381.37 285.925C1377.68 285.925 1374.68 288.918 1374.68 292.611C1374.68 296.304 1377.68 299.298 1381.37 299.298Z" fill="#FDCB6E"/>
<path d="M1403.66 321.586C1407.35 321.586 1410.34 318.592 1410.34 314.9C1410.34 311.207 1407.35 308.213 1403.66 308.213C1399.96 308.213 1396.97 311.207 1396.97 314.9C1396.97 318.592 1399.96 321.586 1403.66 321.586Z" fill="#FDCB6E"/>
<path d="M1425.94 299.298C1429.64 299.298 1432.63 296.304 1432.63 292.611C1432.63 288.918 1429.64 285.925 1425.94 285.925C1422.25 285.925 1419.26 288.918 1419.26 292.611C1419.26 296.304 1422.25 299.298 1425.94 299.298Z" fill="#FDCB6E"/>
<path d="M1425.94 343.874C1429.64 343.874 1432.63 340.881 1432.63 337.188C1432.63 333.495 1429.64 330.501 1425.94 330.501C1422.25 330.501 1419.26 333.495 1419.26 337.188C1419.26 340.881 1422.25 343.874 1425.94 343.874Z" fill="#FDCB6E"/>
</g>
<defs>
<clipPath id="clip0">
<rect width="199.048" height="271.429" fill="white" transform="translate(1240.95 107.619)"/>
</clipPath>
</defs>
</svg>
