<svg width="1516" height="1516" viewBox="0 0 1516 1516" fill="none" xmlns="http://www.w3.org/2000/svg">
<g opacity="0.4">
<path opacity="0.4" d="M902.997 70.0034L70.0036 902.996C31.3417 941.658 31.3417 1004.34 70.0036 1043L472.989 1445.99C511.651 1484.65 574.334 1484.65 612.996 1445.99L1445.99 612.996C1484.65 574.334 1484.65 511.65 1445.99 472.989L1043 70.0034C1004.34 31.3415 941.658 31.3415 902.997 70.0034Z" fill="#FFEAA7"/>
</g>
<path d="M733.66 902.28C737.35 902.28 740.34 899.287 740.34 895.594C740.34 891.901 737.35 888.907 733.66 888.907C729.96 888.907 726.97 891.901 726.97 895.594C726.97 899.287 729.96 902.28 733.66 902.28Z" fill="#FDCB6E"/>
<path d="M755.94 879.992C759.64 879.992 762.63 876.998 762.63 873.305C762.63 869.613 759.64 866.619 755.94 866.619C752.25 866.619 749.26 869.613 749.26 873.305C749.26 876.998 752.25 879.992 755.94 879.992Z" fill="#FDCB6E"/>
<path d="M689.08 946.857C692.77 946.857 695.77 943.863 695.77 940.17C695.77 936.477 692.77 933.484 689.08 933.484C685.39 933.484 682.39 936.477 682.39 940.17C682.39 943.863 685.39 946.857 689.08 946.857Z" fill="#FDCB6E"/>
<path d="M711.37 924.568C715.06 924.568 718.05 921.575 718.05 917.882C718.05 914.189 715.06 911.195 711.37 911.195C707.68 911.195 704.68 914.189 704.68 917.882C704.68 921.575 707.68 924.568 711.37 924.568Z" fill="#FDCB6E"/>
<path d="M733.66 946.857C737.35 946.857 740.34 943.863 740.34 940.17C740.34 936.477 737.35 933.484 733.66 933.484C729.96 933.484 726.97 936.477 726.97 940.17C726.97 943.863 729.96 946.857 733.66 946.857Z" fill="#FDCB6E"/>
<path d="M755.94 924.568C759.64 924.568 762.63 921.575 762.63 917.882C762.63 914.189 759.64 911.195 755.94 911.195C752.25 911.195 749.26 914.189 749.26 917.882C749.26 921.575 752.25 924.568 755.94 924.568Z" fill="#FDCB6E"/>
<path d="M644.5 991.433C648.2 991.433 651.19 988.439 651.19 984.747C651.19 981.054 648.2 978.06 644.5 978.06C640.81 978.06 637.82 981.054 637.82 984.747C637.82 988.439 640.81 991.433 644.5 991.433Z" fill="#FDCB6E"/>
<path d="M666.79 969.145C670.48 969.145 673.48 966.151 673.48 962.458C673.48 958.766 670.48 955.772 666.79 955.772C663.1 955.772 660.11 958.766 660.11 962.458C660.11 966.151 663.1 969.145 666.79 969.145Z" fill="#FDCB6E"/>
<path d="M689.08 991.433C692.77 991.433 695.77 988.439 695.77 984.747C695.77 981.054 692.77 978.06 689.08 978.06C685.39 978.06 682.39 981.054 682.39 984.747C682.39 988.439 685.39 991.433 689.08 991.433Z" fill="#FDCB6E"/>
<path d="M711.37 969.145C715.06 969.145 718.05 966.151 718.05 962.458C718.05 958.766 715.06 955.772 711.37 955.772C707.68 955.772 704.68 958.766 704.68 962.458C704.68 966.151 707.68 969.145 711.37 969.145Z" fill="#FDCB6E"/>
<path d="M733.66 991.433C737.35 991.433 740.34 988.439 740.34 984.747C740.34 981.054 737.35 978.06 733.66 978.06C729.96 978.06 726.97 981.054 726.97 984.747C726.97 988.439 729.96 991.433 733.66 991.433Z" fill="#FDCB6E"/>
<path d="M755.94 969.145C759.64 969.145 762.63 966.151 762.63 962.458C762.63 958.766 759.64 955.772 755.94 955.772C752.25 955.772 749.26 958.766 749.26 962.458C749.26 966.151 752.25 969.145 755.94 969.145Z" fill="#FDCB6E"/>
<path d="M666.79 1013.72C670.48 1013.72 673.48 1010.73 673.48 1007.04C673.48 1003.34 670.48 1000.35 666.79 1000.35C663.1 1000.35 660.11 1003.34 660.11 1007.04C660.11 1010.73 663.1 1013.72 666.79 1013.72Z" fill="#FDCB6E"/>
<path d="M689.08 1036.01C692.77 1036.01 695.77 1033.02 695.77 1029.32C695.77 1025.63 692.77 1022.64 689.08 1022.64C685.39 1022.64 682.39 1025.63 682.39 1029.32C682.39 1033.02 685.39 1036.01 689.08 1036.01Z" fill="#FDCB6E"/>
<path d="M711.37 1013.72C715.06 1013.72 718.05 1010.73 718.05 1007.04C718.05 1003.34 715.06 1000.35 711.37 1000.35C707.68 1000.35 704.68 1003.34 704.68 1007.04C704.68 1010.73 707.68 1013.72 711.37 1013.72Z" fill="#FDCB6E"/>
<path d="M733.66 1036.01C737.35 1036.01 740.34 1033.02 740.34 1029.32C740.34 1025.63 737.35 1022.64 733.66 1022.64C729.96 1022.64 726.97 1025.63 726.97 1029.32C726.97 1033.02 729.96 1036.01 733.66 1036.01Z" fill="#FDCB6E"/>
<path d="M755.94 1013.72C759.64 1013.72 762.63 1010.73 762.63 1007.04C762.63 1003.34 759.64 1000.35 755.94 1000.35C752.25 1000.35 749.26 1003.34 749.26 1007.04C749.26 1010.73 752.25 1013.72 755.94 1013.72Z" fill="#FDCB6E"/>
<path d="M711.37 1058.3C715.06 1058.3 718.05 1055.3 718.05 1051.61C718.05 1047.92 715.06 1044.93 711.37 1044.93C707.68 1044.93 704.68 1047.92 704.68 1051.61C704.68 1055.3 707.68 1058.3 711.37 1058.3Z" fill="#FDCB6E"/>
<path d="M733.66 1080.59C737.35 1080.59 740.34 1077.59 740.34 1073.9C740.34 1070.21 737.35 1067.21 733.66 1067.21C729.96 1067.21 726.97 1070.21 726.97 1073.9C726.97 1077.59 729.96 1080.59 733.66 1080.59Z" fill="#FDCB6E"/>
<path d="M755.94 1058.3C759.64 1058.3 762.63 1055.3 762.63 1051.61C762.63 1047.92 759.64 1044.93 755.94 1044.93C752.25 1044.93 749.26 1047.92 749.26 1051.61C749.26 1055.3 752.25 1058.3 755.94 1058.3Z" fill="#FDCB6E"/>
<path d="M755.94 1102.87C759.64 1102.87 762.63 1099.88 762.63 1096.19C762.63 1092.49 759.64 1089.5 755.94 1089.5C752.25 1089.5 749.26 1092.49 749.26 1096.19C749.26 1099.88 752.25 1102.87 755.94 1102.87Z" fill="#FDCB6E"/>
</svg>
