<?xml version="1.0" encoding="utf-8"?>
<!-- Generator: Adobe Illustrator 25.4.1, SVG Export Plug-In . SVG Version: 6.00 Build 0)  -->
<svg version="1.1" id="_x3C_Layer_x3E_" xmlns="http://www.w3.org/2000/svg" xmlns:xlink="http://www.w3.org/1999/xlink" x="0px"
	 y="0px" viewBox="0 0 3116 1640" style="enable-background:new 0 0 3116 1640;" xml:space="preserve">
<style type="text/css">
	.st0{fill:#FCECDB;}
	.st1{fill:#FFF4EB;}
	.st2{fill:#FAE7D4;}
	.st3{fill:#F7DFC8;}
	.st4{fill:#EFCBAB;}
	.st5{fill:#F6DBC3;}
	.st6{fill:#599DAD;}
	.st7{fill:#6BB7BF;}
	.st8{fill:#86D1CD;}
	.st9{fill:#E0B594;}
	.st10{fill:#FFEBDC;}
	.st11{fill:#2E3552;}
	.st12{fill:#2C3A64;}
	.st13{fill:#ED985F;}
	.st14{fill:#233862;}
	.st15{fill:#163560;}
	.st16{fill:#B5453C;}
	.st17{fill:#F4A269;}
	.st18{fill:#FFB27D;}
	.st19{fill:#1C468A;}
	.st20{fill:#2B478B;}
	.st21{fill:#F99746;}
	.st22{fill:#ED7D2B;}
	.st23{fill:#C6601A;}
	.st24{fill:#F1A34F;}
	.st25{fill:#D3671E;}
	.st26{fill:#B25618;}
	.st27{opacity:0.4;fill:#D86713;}
</style>
<g>
	<path class="st0" d="M2761.56,1421.31c-5.51,15.55-12.32,30.61-20.47,45c-2.33,4.14-4.79,8.21-7.36,12.23H254.02
		c0,0-225.85-517.19,81.83-767.58c3.85-3.12,7.7-6.19,11.58-9.2c3.57-2.76,7.15-5.47,10.75-8.13c3.5-2.59,7.02-5.13,10.55-7.63
		c92.74-65.5,194.29-97.9,300.81-117.98c3.75-0.71,7.51-1.4,11.28-2.07c3.58-0.66,7.15-1.28,10.74-1.9
		c86.36-14.9,175.77-22.73,266.23-34.37c31.49-4.06,63.11-8.58,94.77-14.02c126.7-21.74,254.08-58.24,376.73-138.87
		c151.31-99.48,307.32-124.67,439.9-104.92c9.03,1.34,17.95,2.88,26.75,4.64c12.94,2.57,25.61,5.57,38,8.98
		c159.22,43.7,271.94,153.45,278.41,266.95c4.36,76.49,13.43,150,33.52,213.76c9.3,29.53,20.98,56.98,35.64,81.67
		c3.99,6.73,8.2,13.25,12.65,19.54c43.86,62.11,110.5,103.03,212.05,109.84c70.59,4.73,130.06,36.36,175.33,83.17
		c0.42,0.43,0.84,0.87,1.26,1.31C2770.26,1153.23,2804.01,1301.71,2761.56,1421.31z"/>
	<path class="st1" d="M2761.56,1421.31c-5.51,15.55-12.32,30.61-20.47,45h-845.16V276.5c12.94,2.57,25.61,5.57,38,8.98
		c159.22,43.7,271.94,153.45,278.41,266.95c4.36,76.49,13.43,150,33.52,213.76c9.3,29.53,20.98,56.98,35.64,81.67
		c3.99,6.73,8.2,13.25,12.65,19.54c43.86,62.11,110.5,103.03,212.05,109.84c70.59,4.73,130.06,36.36,175.33,83.17
		c0.42,0.43,0.84,0.87,1.26,1.31C2770.26,1153.23,2804.01,1301.71,2761.56,1421.31z"/>
	<path class="st2" d="M1515.27,1151.63c-4.34-2.79-14.39-15.09-21.37-24.06c1-0.61,1.56-0.97,1.56-0.97
		c-20.3-55.8-37.05-101.5-50.86-138.94c1.64-2.81,3.2-7.1,4.45-13.53c5-25.73-20.09-35.5-20.09-35.5c-0.12-0.07-0.27-0.12-0.41-0.19
		c14.95-112.47-21.02-120.12-21.02-120.12s-12.97-3.95-28.56-2.15c-5.3-11.42-15.93-18.44-33.46-19.33
		c-5.26-0.27-11.01,0.78-17.16,2.94c0.82-1.28,1.62-2.57,2.42-3.87c3.67-2.27,34.4-22.05,31.75-45.82
		c-0.52-4.71-1.64-8.27-3.11-10.94c-0.42-1.93-0.97-3.74-1.59-5.42c2.73-11.95,2.89-21.66-0.22-27.22
		c-5.66-10.13-16.26-17.21-24.23-21.4c3.35-0.65,7.72,1.02,7.72,1.02c-4.28-3.48-18.07-5.63-18.07-5.63
		c-49.09-62.45-124.81,18.43-138.59,39.51c-7.23,11.04-15.43,22.71-28.31,31.1c-6.88-3.56-12.1-6.73-14.56-9.16
		c-18.32-18.17-40.33-79.16-61-119.41c-0.01-0.02-0.02-0.04-0.03-0.07c0.12,0,0.2,0.01,0.2,0.01c-2.54-6.81-19.48-33.24-19.48-33.24
		c-0.01,0-0.01,0-0.02,0c-0.08-0.07-10.79-8.84-40.54-19.28c0,0-2.37-0.91-6.34-2.34c-1.85-2.97,0.36-13.57,3.44-24.53
		c0.86-3.04,1.77-6.1,2.69-9.04c0.76-2.43,1.51-4.76,2.24-6.93c6.29,1.92,10.58,2.8,10.58,2.8c6.02,0.9,12.81-5.17,19.26-14.27
		c-31.66,5.44-63.28,9.96-94.77,14.02c-6.2,9.89-12.4,16.02-16.79,18.08c-4.26-0.47-9.43-0.93-14.38-1.17c0,0-31.84-3.86-50.76,2.31
		c-0.48,0.12-0.89,0.24-1.28,0.36c0,0-10.58,2.63-17.85,17.01c-3.74,7.35-6.61,17.77-6.75,32.51c0,0,0.03-0.03,0.06-0.06v0.11
		c-0.17,2.4,0,4.96,0.17,7.66c0.33,7.62,2,16.86,4.49,27.01c0.08,18.53,0.46,43.81-2.68,70.46c-0.98,8.3-4.06,16.24-8.92,23.27
		c-1.92,2.8-4.14,5.46-6.59,7.93c-19.67,19.72-54.55,59.03-46.89,83.5c0.05,1.92,1.61,3.88,4.42,5.87
		c-10.52,16.38-22.26,44.7-19.29,87.29c2.52,36.15,7.12,189.78,11.93,235.24c1.74,16.48,3.26,28.2,3.89,32.89
		c0.01,0.03,0.01,0.04,0.01,0.05c0.19,1.43-0.37,2.78-1.18,4.02c-7.08,10.74-12.94,21.92-17.75,33.37
		c-30.31,72.21-18.67,155.17-6.48,205.26c-0.16-0.15-0.34-0.3-0.49-0.45c2.09,13.42-6.67,18.46-12.26,29.56
		c-5.84,11.55-3.16,26.79-3.16,26.79h111.83c-2.26-18.93-34.84-17.25-42.15-21.94c-6.61-4.25-17.42-19.61-19.4-22.48
		c-0.14,0.02-0.29,0.03-0.42,0.04c10.26-47.95,31.73-143.46,50.12-193.14c4.27-11.55,8.37-20.61,12.13-26.04
		c10.94-15.79,21.1-41.6,30.33-72.3c1.32-4.41,2.62-8.94,3.91-13.54c1.24,6.35,2.38,12.19,3.39,17.38
		c1.07,5.49,2.02,10.26,2.78,14.23c1.65,8.5,2.59,13.32,2.59,13.32c-4.59,16.79-5.29,35-3.17,53.78
		c8.64,76.57,62.08,160.74,90.53,200.88c2.74,4.53,4.72,8.25,4.72,12.39c0,3.12-1.13,6.5-3.92,10.62
		c-7.34,10.85-3.16,26.79-3.16,26.79h111.83c-2.25-18.93-34.83-17.25-42.14-21.94c-6.44-4.14-27.05-25.02-31.86-29.93
		c-0.05,0.03-0.1,0.06-0.14,0.08c-9.77-39.64-31.75-134.66-35.5-201.17c-1.07-18.81-0.69-35.19,1.84-47.21
		c3.47-16.4,6.26-32.36,8.48-47.82c8.61-60.39,8.33-113.22,4.58-155.79c-1.21-13.95-2.83-26.82-4.6-38.49
		c-4.26-39.33-8.74-64.94-12.41-81.29c9.33-1.44,14.61-4.1,13.83-8.27c0,0,2.34-10.07,6.1-25.48c3.8,0.93,7.61,1.83,11.41,2.71
		c-3.85,21.29-0.26,43.95,7.08,60.47c0.26,0.59,45.26,71.82,45.26,71.82c0.86-1.4,2.26-3.16,4.15-5.22
		c-3.08,29.72-4.55,54.09-9.65,60.92c-13,17.42-84.87,139.95,25.65,157.65c13.86,2.69,30.99,4.18,51.74,4
		c3.71-0.03,7.28-0.17,10.71-0.41c6.38,0.33,13.18,0.47,20.42,0.41c56.36-0.49,90.87-23.62,106.32-44.42
		c4.11-5.54,19.24-30.81,37.77-64.65c-0.55,33.99-0.78,58.62-0.78,58.62c-0.58,4.78,1.35,8.35,4.8,11.01
		c-2.11,4.34-4.74,8.55-6.82,12.65c-5.84,11.56-3.16,26.79-3.16,26.79h111.83c-2.25-18.92-35.27-16.75-42.14-21.94
		c-4.63-3.49-7.73-7.14-9.79-10.74c1.85-0.14,2.92-0.26,2.92-0.26c7.88-23.53,14.71-45.34,20.63-65.57
		c22.6,33.97,41.29,59.04,41.29,59.04c2.29,5.02,6.4,7.41,11.38,8.11c-0.3,1.47-0.82,2.99-1.62,4.57
		c-5.83,11.56-3.15,26.79-3.15,26.79l111.83,7.84C1555.17,1162.5,1522.58,1156.33,1515.27,1151.63z M1038.76,786.13
		c-6.11-3.25-12.2-6.56-18.06-9.84c5.88-22.54,12.57-46.88,18.94-67.07c13.27,19.81,29.84,39.31,45.55,54.59
		C1064.24,766.61,1049.16,774.87,1038.76,786.13z"/>
	<g>
		<path class="st3" d="M2761.56,1421.31c-7.11,20.03-16.34,39.23-27.82,57.23h-799.8v0.09h-55.81v-722.2h95.6V558.05h95.6v267.99
			h77.39v-59.85h99.15c9.3,29.53,20.98,56.98,35.64,81.67v19.54h12.65c43.86,62.11,110.5,103.03,212.05,109.84
			c70.59,4.73,130.06,36.36,175.33,83.17c0.42,0.43,0.84,0.87,1.26,1.31C2770.26,1153.23,2804.01,1301.71,2761.56,1421.31z"/>
		<g>
			<path class="st4" d="M1933.93,285.48v1193.15h-64.74V271.86C1891.48,275.17,1913.11,279.76,1933.93,285.48z"/>
			<path class="st4" d="M1878.12,1478.62h55.81v-0.09h799.8c11.48-18,20.72-37.21,27.82-57.23h-827.63h-55.81h-8.93h-14.05v57.23
				L1878.12,1478.62z"/>
		</g>
	</g>
	<path class="st5" d="M815.04,982.5c-12.87-49.77-93.06-34.22-93.06-34.22s-54.45,87.1-70.29,89.18
		c-15.84,2.07,32.67-83.99,32.67-83.99c-30.69-3.11-108.9,36.29-108.9,36.29s4.95,101.62-10.89,99.54c-15.84-2.07,0-90.21,0-90.21
		c-29.7,9.33-57.42,45.62-57.42,45.62c-34.65,59.11,39.6,102.66,39.6,102.66s0.99,35.25-19.8,75.7c0,0-26.13,41.58-17.75,95.34
		H486.2c4.41-38.7-14.04-68.05-14.04-68.05c-15.77-30.68-15.02-57.42-15.02-57.42s56.33-33.04,30.04-77.88
		c0,0-21.03-27.53-43.56-34.61c0,0,12.02,66.86,0,68.44c-12.02,1.57-8.26-75.52-8.26-75.52s-59.33-29.89-82.61-27.53
		c0,0,36.8,65.29,24.78,63.72s-53.32-67.65-53.32-67.65s-60.83-11.8-70.6,25.96c-9.76,37.76,6.01,56.64,15.02,59
		c9.01,2.36,66.84,1.57,65.34,9.44c-1.5,7.87-40.56,20.45-62.34,13.37c0,0,24.03,62.14,55.58,59c31.54-3.15,41.31-23.6,60.83-25.17
		c19.53-1.57,33.8,3.93,24.03,9.44c-9.76,5.51-42.81,1.8-58.58,15.85c-15.77,14.04-28.54,22.7,0.75,28.99
		c29.29,6.29,81.86,2.36,92.38-21.24c0.46-1.03,0.89-2,1.31-2.95c-0.63,1.95-1.31,2.95-1.31,2.95c5.4,3.3,13.51,19.05,19.13,31.12
		c0.8,2.06,2.07,4.9,3.95,8.76l0,0c0.76,1.75,1.37,3.18,1.8,4.17c6.49,17,6.74,41.76,6.03,57.82h-24.87h-36.13h-22.51v4.67h4.86
		c1.78,61.95,38.88,114.6,90.93,136.62h-75.07c-9.91,0-17.94,8.41-17.94,18.79l0,0H691.7l0,0c0-10.38-8.04-18.79-17.94-18.79h-75.07
		c52.05-22.02,89.14-74.67,90.93-136.62h3.38v-4.67H537.97c3.52-8.1,7.82-16.04,12.84-21.9c0.61-0.66,1.5-1.61,2.59-2.76
		c2.55-2.48,4.34-4.34,5.54-5.72c7.8-7.85,18.58-17.84,23.77-18.81c0,0-0.26-1-0.22-2.74c0.07,0.88,0.14,1.78,0.22,2.74
		c1.78,21.87,42.28,40.97,67.2,44.89c24.92,3.93,17.22-6.8,8.63-22.71c-8.59-15.91-35.76-23.03-41.96-30.35
		c-6.2-7.33,6.62-7.34,21.63-0.16c15.01,7.18,17.07,26.33,41.16,38.42c24.09,12.08,60.33-29.78,60.33-29.78
		c-19.19-1.02-46.61-22.86-45.61-29.54c0.99-6.68,46.53,11.53,54.31,12.4c7.79,0.87,25.5-9.27,28.24-42.11
		c2.74-32.84-48.66-42.01-48.66-42.01s-11.85,9.23-25.24,18.52c-2.64-3.59-6.93-7.56-11.95-11.99c4.42-4.1,8.39-7.62,10.87-9.79
		c4.94,1.41,10.34,2.5,16.36,3.1c41.58,4.15,73.26-77.77,73.26-77.77c-28.71,9.33-80.19-7.26-82.17-17.63
		c-1.98-10.37,74.25-9.33,86.13-12.44C807.12,1057.16,827.91,1032.28,815.04,982.5z M603.84,1216.61c-2.36-1.28-2.2-5.57-0.68-11.21
		c3.28,0.78,6.65,1.45,10.08,2.02C609.78,1213.95,606.43,1218.01,603.84,1216.61z M553.13,1288.22c0,0-13.63,10.58-23.15,30.19
		h-9.84c-1.22-20.6-1.69-57.35,7.66-81.85c0.56-1.32,1.36-3.2,2.37-5.5l0,0c2.48-5.09,4.16-8.84,5.21-11.55
		c7.41-15.92,18.09-36.68,25.22-41.03c0,0-0.9-1.32-1.73-3.89c0.55,1.25,1.13,2.53,1.73,3.89c1.77,3.96,4.44,7.51,7.83,10.66
		c-13.53,26.4,12.5,58.22,12.5,58.22S574.12,1268.75,553.13,1288.22z M662.49,1157.67c-21.29-6.15-46.96-5-56.34-10.29
		c-12.87-7.26,5.94-14.52,31.68-12.44c17.31,1.39,28.82,14.04,47.14,23.44C677.83,1157.72,669.96,1157.57,662.49,1157.67z"/>
	<g>
		<g>
			<path class="st6" d="M689,1222.3c0,0-41.11-47.96-2.53-78.42c0,0,28.17-17.06,51.15-15.67c0,0-32.55,54.59-22.02,60.02
				c10.53,5.43,31.89-63.44,31.89-63.44s64.12-6.22,84.74,3.7c0,0-54.81,44.85-43.27,47.52c11.54,2.67,70.75-41.36,70.75-41.36
				s59.68,10.16,56.49,46.56c-3.18,36.4-23.74,47.65-32.78,46.68c-9.04-0.97-61.9-21.15-63.05-13.74
				c-1.15,7.4,30.67,31.6,52.95,32.74c0,0-42.07,46.4-70.03,33.01c-27.96-13.39-30.35-34.62-47.78-42.58s-32.31-7.94-25.11,0.18
				c7.2,8.12,38.74,16.01,48.71,33.64c9.97,17.63,18.91,29.52-10.02,25.17c-28.93-4.35-75.95-25.52-78.02-49.76
				C689,1222.3,689,1222.3,689,1222.3z"/>
			<g>
				<path class="st6" d="M886.88,1182.2c0,0-162.08-6.25-197.88,40.11c0,0-7.91,23.71-32.28,45.3l-3.8,10.35
					c0,0,28.09-29.61,38.14-31.41C691.07,1246.54,675.35,1189.12,886.88,1182.2z"/>
				<path class="st6" d="M656.73,1267.6c0,0-34.79,25.73-37.21,71.7l6.31,0.57c0,0,11.11-47.53,31.19-66.12
					C677.11,1255.15,656.73,1267.6,656.73,1267.6z"/>
			</g>
		</g>
		<g>
			<path class="st7" d="M545.28,1161.99c0,0,65.39-36.62,34.88-86.32c0,0-24.41-30.52-50.57-38.36c0,0,13.95,74.11,0,75.85
				c-13.95,1.74-9.59-83.7-9.59-83.7s-68.88-33.13-95.91-30.52c0,0,42.72,72.37,28.77,70.62c-13.95-1.74-61.91-74.98-61.91-74.98
				s-70.62-13.08-81.96,28.77c-11.33,41.85,6.98,62.78,17.44,65.39c10.46,2.62,77.6,1.74,75.85,10.46
				c-1.74,8.72-47.08,22.67-72.37,14.82c0,0,27.9,68.88,64.52,65.39c36.62-3.49,47.95-26.16,70.62-27.9
				c22.67-1.74,39.24,4.36,27.9,10.46c-11.34,6.1-49.7,2-68.01,17.57c-18.31,15.57-33.13,25.16,0.87,32.13
				c34,6.98,95.04,2.62,107.24-23.54C545.28,1161.99,545.28,1161.99,545.28,1161.99z"/>
			<g>
				<path class="st7" d="M341.25,1036.44c0,0,183.1,59.29,204.02,125.55c0,0-0.87,29.64,17.44,63.65v13.08
					c0,0-19.18-44.47-29.65-50.57C533.07,1188.15,574.05,1130.6,341.25,1036.44z"/>
				<path class="st7" d="M562.72,1225.64c0,0,28.24,42.88,12.14,95.07l-7.26-1.95c0,0,7.05-57.49-7.72-86.4
					C545.09,1203.44,562.72,1225.64,562.72,1225.64z"/>
			</g>
		</g>
		<g>
			<path class="st8" d="M649.31,1111.49c0,0-86.2-48.27-45.97-113.78c0,0,32.18-40.23,66.66-50.57c0,0-18.39,97.69,0,99.99
				c18.39,2.3,12.64-110.33,12.64-110.33s90.8-43.67,126.43-40.23c0,0-56.32,95.39-37.93,93.09c18.39-2.3,81.6-98.84,81.6-98.84
				s93.09-17.24,108.04,37.93c14.94,55.17-9.19,82.75-22.99,86.2c-13.79,3.45-102.29,2.3-99.99,13.79
				c2.3,11.49,62.06,29.88,95.39,19.54c0,0-36.78,90.8-85.05,86.2c-48.27-4.6-63.21-34.48-93.09-36.78
				c-29.88-2.3-51.72,5.75-36.78,13.79c14.94,8.04,65.51,2.64,89.65,23.16c24.14,20.52,43.67,33.16-1.15,42.36
				c-44.82,9.19-125.28,3.45-141.37-31.03C649.31,1111.49,649.31,1111.49,649.31,1111.49z"/>
			<g>
				<path class="st7" d="M918.25,945.99c0,0-241.36,78.15-268.94,165.5c0,0,1.15,39.08-22.99,83.9v17.24
					c0,0,25.29-58.62,39.08-66.66C665.4,1145.97,611.38,1070.11,918.25,945.99z"/>
				<path class="st7" d="M626.32,1195.39c0,0-37.22,56.52-16,125.33l9.58-2.57c0,0-9.29-75.78,10.18-113.9
					C649.55,1166.13,626.32,1195.39,626.32,1195.39z"/>
			</g>
		</g>
		<path class="st9" d="M646.41,1469.92c93.25,0,168.85-75.6,168.85-168.85h-337.7C477.56,1394.32,553.15,1469.92,646.41,1469.92z"/>
		<path class="st10" d="M687.96,1468.62c-6.87,0.86-13.87,1.29-20.98,1.29c-93.25,0-168.84-75.6-168.84-168.85h41.95
			C540.08,1387.22,604.6,1458.29,687.96,1468.62z"/>
		<path class="st9" d="M817.59,1478.51H475.22l0,0c0-11.5,9.33-20.83,20.83-20.83h300.7C808.26,1457.68,817.59,1467,817.59,1478.51
			L817.59,1478.51z"/>
		<rect x="472" y="1301.07" class="st9" width="347.09" height="5.18"/>
	</g>
	<path class="st11" d="M2957.4,1486.04H131.84c-1.77,0-3.21-1.44-3.21-3.21v-1.09c0-1.77,1.44-3.21,3.21-3.21H2957.4
		c1.76,0,3.21,1.44,3.21,3.21v1.09C2960.61,1484.6,2959.16,1486.04,2957.4,1486.04z"/>
	<g>
		<path class="st12" d="M1300.55,169.73c-0.12-3.2-2.6-37.74-55.2-39.54c0,0,25.87,3.08,30.34,14.46c0,0-17.61-14.05-31.96-9.53
			c-14.34,4.52-22.77,29.65-22.85,37.91c-0.08,8.27,7.88,34.91,16.99,37.17c3.45,0.86,7.42,0.63,11.03,0.01
			c-2.42,3.78-4.79,7.95-7.06,12.61c-20.99,43.09,0.66,85.19,18.43,80.54c11.4-2.98,14.62,16.46,14.62,16.46l110.72-89.63
			C1385.59,230.19,1344.92,146.05,1300.55,169.73z"/>
		<path class="st13" d="M1609.77,667.52c-5.34-5.34-37.55-4.09-37.55-4.09s-17.8-7.12-39.69-16.73
			c-30.43-13.53-68.7-31.68-77.06-40.93c-19.4-21.53-42.71-93.79-64.6-141.49c-1.96-4.45-3.92-8.72-5.87-12.81
			c-0.18-0.36-0.36-0.89-0.71-1.25c-1.07-1.96-1.96-3.74-2.85-5.34c0-0.18-0.18-0.36-0.36-0.53c-4.09-7.83-8.36-14.06-12.28-18.15
			v-0.18c-4.8-5.16-9.43-7.3-13.7-5.52c0,0-8.37,4.27-16.91,14.42c-1.07,0.89-1.78,1.96-2.49,3.03
			c-5.16,6.59-10.14,15.31-13.17,26.34c-2.31,8.36-3.56,17.98-3.03,29.19c0.71,18.33,9.79,41.29,22.78,64.43
			c0.53,1.07,1.07,2.14,1.78,3.2c24.92,43.6,63.18,87.21,86.49,101.45c15.31,9.43,53.75,15.13,86.14,18.33
			c21.53,2.32,40.58,3.38,48.41,3.92c3.38,3.74,27.94,31.86,37.2,23.67C1612.44,699.73,1615.11,672.86,1609.77,667.52z"/>
		<path class="st14" d="M1895.93,1126.47l-118.45-9.29c0,0-2.84-18.05,3.35-31.75c5.93-13.14-2.23-22.65-10.34-38.3
			c7.53,7.75,33.45,6.61,50.57,4.3c2.1,3.4,23.22,34.71,30.23,39.75C1859.03,1096.75,1893.55,1104.06,1895.93,1126.47z"/>
		<path class="st14" d="M1756.82,1117.19h-118.45c0,0-2.84-18.05,3.35-31.75c5.93-13.14,16.26-27.25,8.14-42.9
			c7.53,7.75,31.3,6.9,48.42,4.6c2.1,3.4-7.92,25.63,13.89,44.05C1719.46,1097.34,1754.44,1094.77,1756.82,1117.19z"/>
		<path class="st15" d="M1737.17,696.24c0,0-39.34-15.76-93.14,38.91c-103.3,83.67-235.94,296.53-248.41,311.47
			c-24.97,29.92-5.67,71.56,96.44,70.57c59.7-0.58,96.24-27.99,112.61-52.63c4.36-6.57,20.38-36.51,40.01-76.6
			c-0.59,40.27-0.83,69.46-0.83,69.46c-3.07,28.54,61.05,20.74,61.05,20.74C1813.65,714.41,1737.17,696.24,1737.17,696.24z"/>
		<path class="st16" d="M1684.29,563.77c-6-12.01-17.22-20.4-25.67-25.37c3.54-0.76,8.18,1.21,8.18,1.21
			c-4.54-4.13-19.14-6.67-19.14-6.67c-52-74-132.2,21.84-146.8,46.81c-14.61,24.96-32.93,52.68-82.34,50.74
			c-97.22-3.83-103.4,93.95-83.51,144.02c0.28,0.7,47.94,85.1,47.94,85.1c11.22-20.57,112.14-107.84,179.32-107.2
			c22.56-9.11,46.39-35.94,48.25-38.06c-17.65,22.1-30.46,32.56-39,37.55C1635.39,742.04,1700.2,595.6,1684.29,563.77z"/>
		<path class="st17" d="M1566.29,752.41c0.18,0.25-8.78,33.41-35.71,18.87c-17.68-9.55-46.05-50.28-35.12-64.08
			c5.2-6.56,28.09-19.02,51.92-61.23l2.86,2.47l48.11,41.61c0,0-10.95,16.36-20.14,32.41
			C1570.49,735.94,1564.02,749.21,1566.29,752.41z"/>
		<path class="st16" d="M1548.48,638.01c0,0,0.9-34.2,11.01-57.19c7.22-16.41,51.11-65.75,100.48-21.32c0,0,14.81,12.19,22.98,32.26
			c6.49,15.96,12.02,44.71-38.9,79.32l-15.71,12.69L1548.48,638.01z"/>
		<path class="st7" d="M1483.81,689.12c0,0,17.68,3.37,25.15-6.65c7.47-10.01,23.74-31.2,27.54-19.04
			c3.8,12.16,39.69,47.5,47.99,48.43c8.3,0.93,14.12,3.25,9.42,7.55c-4.7,4.3-2.74,21.52-7.43,23.09
			C1581.78,744.07,1494.63,688.17,1483.81,689.12z"/>
		<path class="st18" d="M1594.94,713.28c0,0-69.38-44.86-40.78-87.64c28.6-42.78,38.91-77.38,84.42-50.55
			c45.51,26.83,43.12,48.85,37.04,65.45C1669.54,657.15,1613.73,723.85,1594.94,713.28z"/>
		<path class="st7" d="M1598.35,747.98c0,0-117.5-86.58-158.62-53.97c-60.65,48.1-48.52,210.49-62.61,231.62
			c-14.09,21.13-93.47,172.65,35.64,188.07c129.11,15.41,158.84-65.98,164.71-127.02C1583.34,925.64,1598.35,747.98,1598.35,747.98z
			"/>
		<path class="st6" d="M1443.75,746.89c0,0-33.83,187.04,33.22,238.14C1544.01,1036.13,1577.77,741.11,1443.75,746.89z"/>
		<path class="st6" d="M1511.23,717.01c0,0,1.29-21.85,20.57-13.5c19.28,8.36,54.95,20.89,68.77,15.75
			c13.82-5.14-22.23,63.95-55.14,40.81C1512.52,736.93,1511.23,717.01,1511.23,717.01z"/>
		<path class="st16" d="M1670.53,595c0,0-52.4,37.56-86.21,25.65c-33.81-11.91-41.14-28.02-41.14-28.02s33.89-2.75,59.04-30.34
			C1602.23,562.28,1672.36,561.63,1670.53,595z"/>
		<path class="st18" d="M1759.86,838.81c0,0,26.57,11.57,21.29,42.06c-5.28,30.49-15.85,20.27-15.85,20.27L1759.86,838.81z"/>
		<path class="st16" d="M1663.15,595.95c0,0,6.53,20.6,2.65,33.78c-3.87,13.18-17.35,36.62-10.31,40.23c0,0,37-24.6,34.02-54.55
			C1686.34,583.66,1663.15,595.95,1663.15,595.95z"/>
		<path class="st19" d="M1362.64,1046.62c15.69-18.8,222.73-380.7,308.86-375.83c129.62,7.33-96.91,368.65-112.8,392.58
			c-16.37,24.65-39.91,53.23-99.61,53.81C1356.96,1118.18,1337.67,1076.54,1362.64,1046.62z"/>
		<path class="st19" d="M1707.9,696.24c0,0,5.15,4.8,122.4,365.29c0,0-48.92,35.45-59.82,8.89c0,0-158-237.14-120.78-278.9
			C1686.92,749.77,1707.9,696.24,1707.9,696.24z"/>
		<path class="st13" d="M1434.03,707.24c0,0-30.95,47.81,65.3,91.67c96.25,43.86,107.58,54.57,126.35,58.49
			c29.24,6.1,141.57,5.24,141.57,5.24s2.95-17.81-7.4-23.83c-16.57-9.63-112.25-25.28-125.15-30.44
			C1621.81,803.21,1484.34,655.44,1434.03,707.24z"/>
		<path class="st20" d="M1339.1,1439.05l-23.52,8.76c0,0-102.15-141.67-114.72-266.32c-2.25-22.25-1.5-43.81,3.36-63.72
			c0,0-1-5.7-2.75-15.78c-0.81-4.7-1.8-10.37-2.94-16.86c-3.32-19.03-7.89-45.06-13.11-74.71
			c-12.02-68.22-27.59-155.42-39.69-219.53l6.34-2.03l68.56-22.12l14.17-45l51.05-13.44c0,0,11.41,22.31,21.6,127.7
			c1.88,13.82,3.59,29.07,4.88,45.6c3.97,50.46,4.26,113.05-4.86,184.61c-2.34,18.32-5.3,37.23-8.97,56.66
			c-2.69,14.25-3.09,33.66-1.96,55.95C1301.69,1280.7,1339.1,1439.05,1339.1,1439.05z"/>
		<path class="st14" d="M1312.33,881.58l-110.86,220.4c-0.81-4.7-1.8-10.37-2.94-16.86c-3.32-19.03-7.89-45.06-13.11-74.71
			c-12.02-68.22-27.59-155.42-39.69-219.53l6.34-2.03l68.56-22.12l14.17-45l51.05-13.44c0,0,11.41,22.31,21.6,127.7
			C1309.33,849.81,1311.04,865.05,1312.33,881.58z"/>
		<path class="st20" d="M1263.56,736.57l-2.57-22.01c-43,11.42-157.88-31.91-157.88-31.91s-41.65,36.61-36.18,124.38
			c2.67,42.84,7.54,224.87,12.64,278.74c1.84,19.52,3.45,33.42,4.11,38.96c0.01,0.03,0.01,0.04,0.01,0.05
			c0.2,1.69-0.39,3.29-1.25,4.77c-7.5,12.72-13.7,25.97-18.8,39.53c-49.98,133.19,7.7,297.22,7.7,297.22l14.97-6.03
			c0,0,32.83-182.54,59.5-263.19c4.53-13.68,8.87-24.43,12.84-30.85c11.6-18.72,22.36-49.3,32.13-85.67
			c18.46-68.77,33.32-158.22,43.21-227.27C1235.36,853.35,1263.56,736.57,1263.56,736.57z"/>
		<path class="st18" d="M1345.7,469.63c-13.5,6.26-29.8,10.52-49.52,11.6c-73.92,4.05-90.7-60.75-93.75-103.76
			c10.66-3.86,19.99-3.49,25.36-3.21c5.24,0.29,10.71,0.83,15.23,1.38c9.04-4.72,25.29-27.67,34.67-66.05l3.19,1.48l53.34,25.08
			c0,0-5.66,17.36-9.85,33.96c-3.26,13-5.61,25.55-3.65,29.07c4.21,1.71,6.72,2.78,6.72,2.78s0,0.02,0.02,0.06
			C1328,403.39,1339.59,432.94,1345.7,469.63z"/>
		<path class="st13" d="M1334.22,336.16c0,0-5.67,17.34-9.85,33.96c-31.18-8.7-40.64-41.47-43.49-59.04L1334.22,336.16z"/>
		<path class="st18" d="M1340.79,354.52c0,0-74.59-17.26-63.12-63.55c11.46-46.29,9.56-79.69,57.67-70.62
			c48.11,9.06,52.95,29.01,52.88,45.39C1388.14,282.12,1360.48,357.82,1340.79,354.52z"/>
		<path class="st7" d="M1461.35,686.74c0,0,49.16,1.99,151.72,96.47c0,0,15.69,19.06,23.5,20.33c7.81,1.27,28.96,6.83,29.42,12.21
			c0.46,5.38-26.05,72.87-59.79,74.8c-33.74,1.93-191.86-114.25-180.77-153.29C1436.51,698.21,1461.35,686.74,1461.35,686.74z"/>
		<path class="st12" d="M1392.4,239.46c-8.02-16.78-17.46-15.88-23.36-12.91c-35.05-32.43-69.42-5.94-69.42-5.94
			c-13.23,31.96-41.91,45.03-41.91,45.03s11.46,11.73,44.67,11.47c10.14-0.08,20.34-4.74,29.62-11.15
			c-17.9,18.03-38.89,29.01-38.89,29.01c41.57-7.96,69.45-56.09,72.31-61.2c3.52,5.2,10.26,16.27,10.83,25.62
			c0.77,12.71-3.6,37.38,3.67,38.31C1379.92,297.71,1404.43,264.62,1392.4,239.46z"/>
		<path class="st21" d="M1391.05,464.2c-2.69-8.06-20.65-39.39-20.65-39.39c0,0-0.01,0-0.01,0c-0.09-0.08-11.43-10.47-42.95-22.84
			c0,0,0,0.02,0.02,0.06c0.5,1.84,13.96,50.59,9.04,61c-4.99,10.58-99.48-23.58-104.64-31.37c-4.13-6.26-4.24-39.34-4.13-52.22
			c0.02-3.21,0.06-5.17,0.06-5.17s-35.27-4.78-55.1,3.25c0,0,7.83,17.01,10.71,35.77c0.27,1.79,0.5,3.57,0.67,5.36
			c0.38,3.78,0.5,7.56,0.29,11.25c-0.29,4.88-2.8,9.2-6.81,13.42c-3.65,3.88-8.6,7.7-14.21,11.79c-3.67,2.65-7.6,5.43-11.67,8.45
			c0,0,0,0,0,0c-0.34,22.09,1.21,58.41-2.88,97.17c-1.04,9.83-4.3,19.24-9.45,27.57c-2.04,3.32-4.38,6.47-6.99,9.41
			c-20.83,23.37-57.77,69.95-49.65,98.94c0.6,27.34,231.21,63.26,226.27,33.24c0,0,34.66-167.02,53.38-207.34
			c0.67-1.48,1.29-2.92,1.84-4.4c6-15.91,4.99-32.28,2.96-46.92C1377.71,463.69,1391.05,464.2,1391.05,464.2z"/>
		<path class="st22" d="M1246.88,673.74c-45.48-0.48-84-47.71-107.54-85.46c5.14-8.33,8.41-17.74,9.45-27.57
			c4.09-38.76,2.53-75.08,2.88-97.17c0,0,0,0,0,0c4.07-3.01,8.01-5.8,11.67-8.45c5.61-4.09,10.56-7.91,14.21-11.79
			C1214.79,506.26,1308.55,674.4,1246.88,673.74z"/>
		<path class="st18" d="M1500.67,709.16c0,0-29.54-21.18-47.16-17.08c-15.66,3.56-49.12-3.56-55.71-4.98
			c-7.83-4.27-17.26-9.43-27.23-15.13c-24.03-13.52-51.61-30.08-70.48-43.78c-10.86-7.83-19.04-14.77-21.89-19.76
			c-4.45-7.65-9.43-19.75-14.95-34.7c-2.85-7.83-5.87-16.37-8.9-25.45c-5.34-14.95-10.68-31.15-16.2-47.34
			c-9.97-29.54-20.65-59.27-30.79-82.23c-6.58-14.41-12.99-26.34-19.04-33.64c-4.81-5.87-9.43-8.9-13.88-8.19
			c-0.71,0.18-1.25,0.35-1.78,0.53c0,0-25.63,7.12-25.98,58.73c-0.18,2.85,0,5.88,0.18,9.08c0.36,9.08,2.14,20.11,4.81,32.21
			c4.27,20.29,11.39,43.78,20.29,67.63c2.49,6.41,4.98,12.99,7.65,19.58c19.22,47.7,43.96,92.19,64.78,107.32
			c0.89,0.71,1.6,1.25,2.49,1.78c8.72,5.52,21.54,11.04,36.31,16.19c21,7.12,45.92,13.53,68.16,18.87h0.18
			c12.99,2.85,24.92,5.52,34.88,7.47c0,0,2.13,0.53,5.87,1.25c9.43,2.31,28.83,7.3,47.16,14.42c25.63,10.14,41.65-6.59,53.04-11.39
			C1503.88,715.93,1500.67,709.16,1500.67,709.16z"/>
		<path class="st21" d="M1207.31,418.79c-34.26-9.45-60.69,17.31-60.69,17.31c0.43-51.53,26.08-58.58,26.08-58.58
			C1183.02,373.24,1194.98,391.11,1207.31,418.79z"/>
		<path class="st14" d="M1158.37,1478.53h-118.45c0,0-2.84-18.05,3.35-31.75c5.93-13.14,15.21-19.11,12.99-35.02
			c7.53,7.75,19.79,16.43,36.92,14.12c2.1,3.4,13.54,21.61,20.55,26.64C1121.47,1458.1,1155.99,1456.11,1158.37,1478.53z"/>
		<path class="st14" d="M1412.69,1478.53h-118.45c0,0-4.43-18.89,3.35-31.75c6.88-11.37,4.25-17.85-0.85-27.26
			c5.37,2.2,12.31,4.2,19.95,3.76c5.9-0.34,12.14-3.02,17.61-6.2c5.1,5.81,26.93,30.55,33.75,35.45
			C1375.79,1458.1,1410.31,1456.11,1412.69,1478.53z"/>
	</g>
	<g>
		<rect x="1263.81" y="1129.11" class="st23" width="433.57" height="349.42"/>
		<rect x="1521.89" y="1129.12" class="st24" width="392.28" height="349.41"/>
		<g>
			<path class="st25" d="M1594.4,1189.37c-3.97,0-7.19,3.11-7.19,6.95s3.22,6.95,7.19,6.95c3.97,0,7.19-3.11,7.19-6.95
				S1598.37,1189.37,1594.4,1189.37z"/>
			<path class="st25" d="M1851.05,1196.32c0-3.84,3.22-6.95,7.19-6.95c3.97,0,7.19,3.11,7.19,6.95s-3.22,6.95-7.19,6.95
				C1854.27,1203.28,1851.05,1200.16,1851.05,1196.32z"/>
			<path class="st25" d="M1594.4,1409.48c-3.97,0-7.19,3.11-7.19,6.95c0,3.84,3.22,6.95,7.19,6.95c3.97,0,7.19-3.11,7.19-6.95
				C1601.59,1412.59,1598.37,1409.48,1594.4,1409.48z"/>
			<path class="st25" d="M1851.05,1416.43c0-3.84,3.22-6.95,7.19-6.95c3.97,0,7.19,3.11,7.19,6.95c0,3.84-3.22,6.95-7.19,6.95
				C1854.27,1423.39,1851.05,1420.27,1851.05,1416.43z"/>
		</g>
		<g>
			<path class="st26" d="M1304.64,1196.32c0-3.84,1.99-6.95,4.45-6.95s4.45,3.11,4.45,6.95s-1.99,6.95-4.45,6.95
				S1304.64,1200.16,1304.64,1196.32z"/>
			<path class="st26" d="M1468.06,1196.32c0-3.84,1.99-6.95,4.45-6.95s4.45,3.11,4.45,6.95s-1.99,6.95-4.45,6.95
				S1468.06,1200.16,1468.06,1196.32z"/>
			<path class="st26" d="M1304.64,1416.43c0-3.84,1.99-6.95,4.45-6.95s4.45,3.11,4.45,6.95c0,3.84-1.99,6.95-4.45,6.95
				S1304.64,1420.27,1304.64,1416.43z"/>
			<ellipse class="st26" cx="1472.51" cy="1416.43" rx="4.45" ry="6.95"/>
		</g>
		<path class="st25" d="M1263.81,1129.68c0,0,58.92-54.42,97.79-37.82c51.16,21.84,172.14,15.76,202.66,10.12
			c30.52-5.63,268.95,11.2,349.91,27.14L1263.81,1129.68z"/>
		<path class="st27" d="M1914.17,1386.87v91.66h-392.28v-349.41h65.81l1.29,0.56C1588.99,1129.68,1624.21,1366.69,1914.17,1386.87z"
			/>
	</g>
	<g>
		<path class="st15" d="M2009.69,1172.62c0,0-79.73-11.3-84.37-24.17c0,0,5.54-11.63-3.21-14.67c-2.35-0.82-6.29-2.32-8.05-0.09
			l0.11,23.73c0,0,8.59,8.38,13.41,15.13c2.66,3.73,54.18,25.3,54.18,25.3L2009.69,1172.62z"/>
		<path class="st15" d="M2173.98,1346.71c7.56-10.92-0.3-88.09-54.73-64.66c-11.56,3.5-25.47,11.86-42.13,27.12
			c0,0-23.92,56.34,70.39,93.61c0,0,9.34,4.04,10.67,12.63c1.33,8.59,2.82,47.36-0.38,48.54c-3.2,1.17-7.94-3.27-11.39,1.62
			c-3.45,4.89-2.24,12.97-2.24,12.97h34.27c0,0,16.38-87.02,15.46-93.94C2192.97,1377.67,2165.01,1359.67,2173.98,1346.71z"/>
		<path class="st14" d="M2039.55,1031.31c0,0,18.13,38.03,8.12,49.44l-28.18-22.63C2019.49,1058.12,2019.35,1046.92,2039.55,1031.31
			z"/>
		<path class="st20" d="M2233.84,1236.11c-7.4-13.41-18.49-35.84-3.86-44.99c12.47-7.8,7.69-24.07,0.48-27.96
			c-15.18-8.2-30.61,2.17-37.84,12.29c-13.76,19.26,4.52,49.37,4.52,49.37c17.28,37.2-18.29,56.56-35.44,63.47
			c-9.79-14.56-19.88-25.49-28.88-34.03c-5.91-5.6-11.33-10.17-15.88-14.05c-48.28-41.26-36.58-56.36-48.04-74.91
			c-2.25-3.67-11.13-13.66-13.49-16.86c-2.34-3.17-3.18-14.46-3.46-24.4c5.42-4.62,6.02-9.8,6.02-9.8c0.52,2.1-0.04,4.25-0.04,4.25
			c5.62-4.56,4.35-15.08,4.35-15.08c1.24,1.52,1.74,4.78,1.74,4.78c2.83-16.36-7.24-29.71-7.32-29.81
			c1.77-15.37-10.97-42.1-10.97-42.1c-9.34,7.22-14.33,13.49-17,18.15c-8.72-2.64-19.04-2.46-29.81,8.1
			c-3.3,3.24-13.1,5.87-17.72,5.28c-2.55-0.33-8.34,12.43-8.57,14.17c-2.53,19.29,3.6,28.84,14.62,38.71
			c1.55,4.35,2.73,10.19,0.02,14.12c0,0,2.32-0.95,2.61-1.7c-0.19,1.03-1.45,7.09-4.77,9.81c0,0,1.49-0.17,2.24-0.53
			c-2.89,3.67-13.88,18.86-13.73,37.58c-23.12,0.19-45.12-1.22-47.25-7.15c0,0,4.99-9.76-3.21-14.67c-2.13-1.28-5.75-2.17-8.99-2.08
			l-0.4,26.65c0,0,10.04,7.45,14.87,14.21c1.65,2.32,34.01,16.92,58.22,27.62c14.09,61.08,59.35,96.39,74.32,106.63
			c2.16,18.66,13.24,42.94,45.02,71.22c0,0,7.38,7.01,5.68,15.53s-13.63,45.45-17.04,45.45c-3.41,0-14.77-4.92-19.69-1.51
			c-4.92,3.41,1.89,16.66,1.89,16.66h7.01h20.63h7.02c0,0,42.8-70.44,44.31-77.26c1.51-6.82-18.56-33.33-5.68-42.42
			c5.52-3.9,13.18-25.27,11.59-44.89C2178.8,1308.06,2257,1278.1,2233.84,1236.11z"/>
		<path class="st15" d="M1980.38,1067.92c0,0,1.56-1.09,3.24-0.25c0,0-0.43,6.42-6.71,6.81
			C1976.9,1074.48,1978.71,1068.92,1980.38,1067.92z"/>
		<g>
			<path class="st15" d="M1991.9,1082.32c0.24,0.08,23.74,8.84,40.59,28.18l0,0c-17.14-19.69-40.09-28.87-40.34-28.95
				L1991.9,1082.32z"/>
		</g>
		<g>
			<path class="st15" d="M1989.71,1083.97c0.25,0.16,24.89,16.92,38.85,43.99l0,0c-14.2-27.56-38.08-44.65-38.34-44.81
				L1989.71,1083.97z"/>
		</g>
		<g>
			<path class="st15" d="M1987.18,1085.98c0.18,0.17,17.5,18.32,24.22,43.07l0,0c-6.83-25.19-23.47-43.47-23.66-43.65
				L1987.18,1085.98z"/>
		</g>
		<path class="st14" d="M2045.72,1036.28c0,0,1.35,29.4,4.23,34.84c2.89,5.45,6.73,7.25,6.73,7.25
			C2058.47,1063.02,2045.72,1036.28,2045.72,1036.28z"/>
	</g>
	<g>
		<g>
			<path class="st5" d="M680.82,565.95V824.6H358.18V693.63c-3.6,2.66-7.18,5.37-10.75,8.13v133.6h344.12v-271.3
				C687.97,564.67,684.39,565.29,680.82,565.95z"/>
		</g>
		<path class="st5" d="M669.54,568.02v245.24H368.73V686C461.47,620.5,563.02,588.1,669.54,568.02z"/>
	</g>
</g>
</svg>
