<svg width="24" height="24" viewBox="0 0 24 24" fill="none" xmlns="http://www.w3.org/2000/svg">
<path d="M12 2C17.514 2 22 6.486 22 12C22 17.514 17.514 22 12 22C6.486 22 2 17.514 2 12C2 6.486 6.486 2 12 2ZM12 0C5.373 0 0 5.373 0 12C0 18.627 5.373 24 12 24C18.627 24 24 18.627 24 12C24 5.373 18.627 0 12 0ZM16 17H8V15H16V17ZM8.5 8C7.672 8 7 8.671 7 9.5C7 10.329 7.672 11 8.5 11C9.328 11 10 10.329 10 9.5C10 8.671 9.328 8 8.5 8ZM15.5 8C14.672 8 14 8.671 14 9.5C14 10.329 14.672 11 15.5 11C16.328 11 17 10.329 17 9.5C17 8.671 16.328 8 15.5 8Z" fill="#699DEE"/>
</svg>
