<svg width="24" height="24" viewBox="0 0 24 24" fill="none" xmlns="http://www.w3.org/2000/svg">
<g clip-path="url(#clip0)">
<path d="M18.414 10.727C18.584 12.031 16.791 13.187 16.178 14.659C15.192 17.138 18.583 18.406 19.69 16.059C20.621 14.085 19.236 11.834 18.414 10.727ZM18.522 14.139C18.115 14.567 17.568 14.202 17.951 13.731C18.178 13.451 18.423 13.085 18.618 12.694C18.746 13.032 18.854 13.791 18.522 14.139ZM18 10.002L17.245 10.508C17.245 10.508 16.742 9.56 15.499 9.56C14.292 9.56 13.754 10.508 13.754 10.508L13 10.002C13.281 9.254 14.205 8 15.499 8C16.794 8 17.717 9.254 18 10.002ZM11 10.002L10.245 10.508C10.245 10.508 9.742 9.56 8.499 9.56C7.292 9.56 6.754 10.508 6.754 10.508L6 10.002C6.281 9.254 7.205 8 8.499 8C9.794 8 10.717 9.254 11 10.002ZM12 0C5.373 0 0 5.373 0 12C0 18.627 5.373 24 12 24C18.627 24 24 18.627 24 12C24 5.373 18.627 0 12 0V0ZM12 22C6.486 22 2 17.514 2 12C2 6.486 6.486 2 12 2C17.514 2 22 6.486 22 12C22 17.514 17.514 22 12 22ZM15.582 17.943C15.279 18.011 14.937 18.019 14.559 17.94C13.656 17.75 12.818 17.658 11.997 17.658C11.178 17.658 10.339 17.75 9.435 17.94C8.325 18.173 7.491 17.7 7.18 16.925C6.326 14.794 8.606 12.958 11.996 12.958C13.203 12.958 14.241 13.178 15.058 13.546C14.767 14.068 14.618 14.458 14.543 15.134C12.746 14.26 8.184 14.592 8.791 16.252C8.929 16.629 10.405 15.973 11.996 15.973C13.057 15.973 14.035 16.258 14.629 16.346C14.791 16.98 15.044 17.462 15.582 17.943Z" fill="#2E3552"/>
</g>
<defs>
<clipPath id="clip0">
<rect width="24" height="24" fill="white"/>
</clipPath>
</defs>
</svg>
