<?xml version="1.0" encoding="utf-8"?>
<!-- Generator: Adobe Illustrator 25.4.1, SVG Export Plug-In . SVG Version: 6.00 Build 0)  -->
<svg version="1.1" id="_x3C_Layer_x3E_" xmlns="http://www.w3.org/2000/svg" xmlns:xlink="http://www.w3.org/1999/xlink" x="0px"
	 y="0px" viewBox="0 0 2760 1840" style="enable-background:new 0 0 2760 1840;" xml:space="preserve">
<style type="text/css">
	.st0{fill:#DEEBE9;}
	.st1{fill:#BED5DC;}
	.st2{fill:#42428E;}
	.st3{fill:#B2C9C6;}
	.st4{fill:#9BBCB6;}
	.st5{fill:#74A1BD;}
	.st6{fill:#CFD3A3;}
	.st7{fill:#C4C695;}
	.st8{opacity:0.6;}
	.st9{opacity:0.5;}
	.st10{fill:#F7B686;}
	.st11{fill:#2F1A31;}
	.st12{fill:#436E8E;}
	.st13{fill:#96A7E2;}
	.st14{fill:#DD9666;}
	.st15{fill:#060633;}
	.st16{fill:none;stroke:#2F1A31;stroke-width:4.4365;stroke-linecap:round;stroke-linejoin:round;stroke-miterlimit:10;}
	.st17{fill:#E08B65;}
	.st18{fill:#FFFFFF;}
	.st19{fill:#E28569;}
	.st20{fill:#AD6250;}
	.st21{fill:#EA9F75;}
</style>
<g>
	<g>
		<path class="st0" d="M2645.1,410.7V1424.7c0,162.59-145.05,272.27-320.29,294.4c-45.15,5.71-90.57,9.63-138.62,11.98
			c-11.27,0.56-22.69,1.03-34.3,1.41c-22.66,0.74-45.98,1.18-70.18,1.3c-70.19,0.39-147.81-1.73-238.26-5.83
			c-35.17-1.59-72.29-3.49-111.65-5.65c-75.25-4.15-158.76-9.27-252.75-15.17c-32.15-2.02-68.6-3.33-108.24-4.07h-0.01
			c-18.94-0.35-38.6-0.58-58.85-0.68c-0.01,0-0.01,0-0.02,0c-107.78-0.61-232.48,1.98-355.33,5.28c-6.5,0.17-12.99,0.34-19.46,0.52
			c-88.75,2.46-175.97,5.21-254.56,7.36h-0.01c-10.74,0.29-21.32,0.57-31.72,0.85c-11.97,0.29-23.71,0.6-35.2,0.86
			c-39.14,0.92-75.2,1.59-107.05,1.85c-176.89,1.45-320.3-131.81-320.3-294.4V410.7c0-162.6,143.71-303.98,320.3-294.41
			c163.99,8.89,405.19,44.05,656.63,22.51c259.89-22.26,722.61-41.6,1031.59-29.97c46.57,1.75,89.64,4.21,128,7.46
			C2500.95,131.22,2645.1,248.09,2645.1,410.7z"/>
	</g>
	<g>
		<path class="st1" d="M2287.43,1491.33c0,60.85-399.01,110.18-891.21,110.18c-492.2,0-891.2-49.33-891.2-110.18
			c0-60.85,399-110.18,891.2-110.18C1888.42,1381.15,2287.43,1430.48,2287.43,1491.33z"/>
	</g>
	<g>
		<path class="st2" d="M1951.11,1534.51l-1-1.52c0.1-0.07,10.43-6.97,11.86-15.01c0.49-2.79-0.16-5.43-1.95-7.85
			c-1.25-1.68-2.75-2.51-4.6-2.51c-0.03,0-0.06,0-0.09,0c-8.96,0.13-21.95,18.63-22.08,18.81l-2.36,3.39l0.72-4.07
			c0.03-0.16,2.83-16.52-2.87-21.4c-1.78-1.52-4.31-1.74-7.52-0.64c-3.38,1.15-5.73,3.27-6.99,6.28c-3.74,8.99,3.1,23.21,3.17,23.35
			l-1.64,0.8c-0.3-0.61-7.27-15.1-3.21-24.85c1.46-3.52,4.18-5.98,8.08-7.31c3.87-1.32,7-0.99,9.3,0.98
			c4.75,4.07,4.48,14.17,3.94,19.58c4.19-5.42,13.78-16.64,21.44-16.75c2.46-0.05,4.56,1.06,6.18,3.25c2.1,2.84,2.87,5.96,2.28,9.26
			C1962.19,1527.11,1951.56,1534.21,1951.11,1534.51z"/>
	</g>
	<g>
		<path class="st2" d="M1316.51,1577.83l-2.89-0.31c0.21-1.94-0.34-3.53-1.67-4.87c-2.68-2.7-8.47-4.36-16.74-4.79
			c-6.44-0.33-12.1,0.21-12.16,0.21l-0.49-2.86c7.63-1.88,28.02-8.42,30.76-16.01c0.59-1.64,0.28-3.25-0.96-4.92
			c-7.37-9.96-33.76,4.06-43.31,10.3l-1.59-2.43c1.5-0.98,36.74-23.8,47.24-9.59c1.83,2.48,2.29,5.04,1.35,7.63
			c-2.35,6.5-13.69,11.63-22.4,14.69c7.23,0.23,16.13,1.46,20.36,5.72C1315.97,1572.58,1316.81,1575.01,1316.51,1577.83z"/>
	</g>
	<g>
		<g>
			<path class="st3" d="M693.35,555.97c17.93-4.89,21.71-12.04,19.79-19.07c-1.92-7.03-8.8-11.27-26.73-6.38
				c-32.67,8.91-44.98,25.93-44.98,25.93S660.21,565.01,693.35,555.97z"/>
		</g>
		<g>
			<path class="st3" d="M780.05,639.57c18.55,1.18,24.44-4.37,24.9-11.64c0.46-7.27-4.68-13.51-23.23-14.69
				c-33.79-2.14-50.95,9.98-50.95,9.98S745.77,637.39,780.05,639.57z"/>
		</g>
		<g>
			<g>
				<g>
					<path class="st3" d="M1009.4,853.32l2.23-2.72c-0.42-0.34-42.43-35.21-86.65-103.99c-40.8-63.46-91.9-169.61-103.59-314.9
						l-3.5,0.28c11.75,146.09,63.16,252.83,104.22,316.65C966.63,817.84,1008.98,852.97,1009.4,853.32z"/>
				</g>
			</g>
			<g>
				<g>
					<path class="st3" d="M851.24,596.4l0.71-3.45c-125.09-25.91-189.5-146.88-190.14-148.1l-3.12,1.63
						C659.34,447.71,724.48,570.15,851.24,596.4z"/>
				</g>
			</g>
			<g>
				<g>
					<path class="st3" d="M847.44,518.62c24.97-25.56,31.05-57.37,31.11-57.74l-3.46-0.63c-0.08,0.41-7.9,41.14-42.36,66.53
						l2.09,2.83C839.48,526.18,843.68,522.47,847.44,518.62z"/>
				</g>
			</g>
			<g>
				<g>
					<path class="st3" d="M956.87,793.69c44.62-57.42,60.34-123.92,46.74-197.66c-0.47-2.55-0.91-4.97-0.88-5.52
						c0,0.01-0.01,0.17-0.12,0.39l-3.16-1.54c-0.45,0.93-0.28,1.97,0.7,7.3c13.41,72.71-2.08,138.26-46.06,194.86L956.87,793.69z"/>
				</g>
			</g>
			<g>
				<g>
					<path class="st3" d="M1001.17,694.14l1.72-3.07c-41.68-23.28-68.68-92.62-68.94-93.31l-3.28,1.26
						c0.07,0.18,6.94,17.96,18.96,38.42C960.77,656.39,978.75,681.62,1001.17,694.14z"/>
				</g>
			</g>
			<g>
				<g>
					<path class="st3" d="M809,416.33c-1,25.04,4.6,32.73,11.88,33.02c7.28,0.29,13.48-6.92,14.48-31.97
						c1.82-45.62-10.48-68.2-10.48-68.2S810.85,370.04,809,416.33z"/>
				</g>
			</g>
			<g>
				<g>
					<path class="st3" d="M863.82,459.69c-8.5,23.58-5.48,32.59,1.38,35.06c6.85,2.47,14.94-2.54,23.44-26.11
						c15.49-42.95,10.57-68.18,10.57-68.18S879.54,416.11,863.82,459.69z"/>
				</g>
			</g>
			<g>
				<g>
					<path class="st3" d="M918.44,597.26c5.87,17.63,13.21,21.02,20.13,18.72c6.91-2.3,10.77-9.41,4.9-27.04
						c-10.69-32.13-28.37-43.49-28.37-43.49S907.59,564.66,918.44,597.26z"/>
				</g>
			</g>
			<g>
				<g>
					<path class="st3" d="M782.22,505.2c9.98,15.68,17.93,17.17,24.08,13.26c6.15-3.91,8.16-11.75-1.82-27.42
						c-18.18-28.56-38.09-35.28-38.09-35.28S763.77,476.22,782.22,505.2z"/>
				</g>
			</g>
			<g>
				<g>
					<path class="st3" d="M955.33,714.4c13.99,12.24,22.04,11.44,26.83,5.96c4.8-5.48,4.53-13.57-9.46-25.81
						c-25.48-22.3-46.48-23.15-46.48-23.15S929.48,691.78,955.33,714.4z"/>
				</g>
			</g>
			<g>
				<g>
					<path class="st3" d="M990.25,605.2c1.95,18.48,8.41,23.36,15.65,22.59c7.25-0.77,12.54-6.88,10.58-25.37
						c-3.56-33.67-18.4-48.55-18.4-48.55S986.64,571.04,990.25,605.2z"/>
				</g>
			</g>
			<g>
				<g>
					<path class="st3" d="M643.32,441.82c13.35,21.21,22.32,24.38,28.48,20.5c6.17-3.88,7.19-13.33-6.16-34.55
						c-24.32-38.64-47.24-50.29-47.24-50.29S618.65,402.62,643.32,441.82z"/>
				</g>
			</g>
		</g>
	</g>
	<g>
		<path class="st3" d="M1178.61,1257.08c0,0-340.92-691.88-525.19-592.31c-184.26,99.56,331.17,413,424.04,617.55L1178.61,1257.08z"
			/>
	</g>
	<g>
		<g>
			<path class="st4" d="M1003.41,1123.61c0,0-416.04-526.88-585.62-402.17c-169.57,124.71,373.89,287.76,489.09,445.19
				L1003.41,1123.61z"/>
		</g>
		<g>
			<g>
				<path class="st5" d="M949.63,1148.16c-77.58-110.17-199.11-202.27-287.39-260.13c-95.71-62.73-174-99.82-174.78-100.19
					l2.29-4.87c0.78,0.37,79.42,37.62,175.44,100.55c88.67,58.12,210.76,150.67,288.84,261.53L949.63,1148.16z"/>
			</g>
		</g>
	</g>
	<g>
		<g>
			<g>
				<path class="st6" d="M486.18,1210.34c90.83,26.07,66.24,164.55,172.97,145.66c106.74-18.96,98.48-26.25,145.96,22.72
					c0,0,16.74,45.4,58.01,55.5c162.87,39.88,404.39-188.84,241.4-334.57c-11.77-10.52-29.59-15.46-49.39-19.92
					c-107.4-24.15-144.53,23.42-221.52-110.16c-77.01-133.62-205.25,42.07-277.6,30.78c-72.35-11.29-135.04-37.39-196.88,35.96
					C297.29,1109.72,395.34,1184.33,486.18,1210.34z"/>
			</g>
		</g>
		<g>
			<g>
				<g>
					<path class="st7" d="M1040.23,1273.46l3.8-4.91c-2.17-1.68-222.26-168.29-699.42-211.21l-0.56,6.19
						C819.43,1106.29,1038.08,1271.79,1040.23,1273.46z"/>
				</g>
			</g>
			<g>
				<g>
					<path class="st7" d="M755.15,1069.16c66.8-52.54,80.89-96.84,81.45-98.7l-5.94-1.82c-0.13,0.44-14.26,44.43-79.36,95.63
						L755.15,1069.16z"/>
				</g>
			</g>
			<g>
				<g>
					<path class="st7" d="M739.79,1135.34c19.78-30.04,21.09-75.13,3.79-130.39c-12.95-41.39-31.98-74.44-32.17-74.76l-5.38,3.11
						c0.75,1.29,74.04,129.56,28.56,198.63L739.79,1135.34z"/>
				</g>
			</g>
			<g>
				<g>
					<path class="st7" d="M614.73,1116.2c7.92-5.78,12.24-9.59,12.44-9.77l-4.14-4.63c-0.91,0.81-92.09,80.98-218.01,68.79
						l-0.6,6.18C505.88,1186.6,585.23,1137.74,614.73,1116.2z"/>
				</g>
			</g>
			<g>
				<g>
					<path class="st7" d="M543.23,1255.49c30.93-30.21,41.27-61.77,44.51-82.92c3.52-23.02-0.3-38.74-0.46-39.4l-6.03,1.5
						c0.15,0.6,14.26,61.05-42.36,116.37L543.23,1255.49z"/>
				</g>
			</g>
		</g>
	</g>
	<g class="st8">
		<path class="st3" d="M1567.41,1252.47c0,0,347.95-528.04,487.69-428.25c139.74,99.8-311.56,302.17-407.98,459.1L1567.41,1252.47z"
			/>
	</g>
	<g>
		<g>
			<path class="st6" d="M1754.23,1156.19c0,0,438.35-400.29,568.5-267.23c130.15,133.06-367.39,197.66-490.42,318.57
				L1754.23,1156.19z"/>
		</g>
		<g>
			<g>
				<path class="st7" d="M1797.65,1185.3c83.45-85.05,202.65-148.05,287.96-185.92c92.48-41.06,166.11-62.23,166.84-62.44
					l-1.31-4.58c-0.74,0.21-74.68,21.48-167.46,62.67c-85.68,38.04-205.45,101.35-289.42,186.93L1797.65,1185.3z"/>
			</g>
		</g>
	</g>
	<g>
		<g>
			<g>
				<path class="st3" d="M2142.82,1365.53c-74.15-2.07-88.64,107.38-164.01,67.89c-75.36-39.54-90.96-41.61-114.6-17.67
					c0,0-23.3,29.99-56.59,27.75c-131.33-8.85-257.71-237.34-101.15-307.66c11.3-5.08,25.81-4.54,41.69-3.18
					c86.09,7.44,102.57,51.85,191.9-29.81c89.36-81.68,143.57,80.23,200.39,88.96c56.81,8.73,109.91,4.1,138.76,73.67
					C2308.05,1335.1,2216.96,1367.64,2142.82,1365.53z"/>
			</g>
		</g>
		<g class="st9">
			<g>
				<g>
					<path class="st5" d="M1713.29,1281.15l-1.68-4.58c2.02-0.74,206.26-73.13,573.46,8.1l-1.05,4.76
						C1918.2,1208.52,1715.3,1280.42,1713.29,1281.15z"/>
				</g>
			</g>
			<g>
				<g>
					<path class="st5" d="M1975.11,1196.01c-37.5-55.18-37.52-91.67-37.5-93.19l4.88,0.05c0,0.36,0.11,36.63,36.66,90.4
						L1975.11,1196.01z"/>
				</g>
			</g>
			<g>
				<g>
					<path class="st5" d="M1970.89,1249.17c-7.67-27.17,2.06-61.22,28.13-98.46c19.52-27.89,41.61-48.1,41.83-48.3l3.28,3.61
						c-0.86,0.79-86.17,79.35-68.54,141.83L1970.89,1249.17z"/>
				</g>
			</g>
			<g>
				<g>
					<path class="st5" d="M2069,1264.56c-4.55-6.21-6.88-10.08-6.99-10.26l4.2-2.48c0.48,0.82,49.67,82.46,146.77,103.25l-1.02,4.77
						C2133.72,1343.08,2085.96,1287.68,2069,1264.56z"/>
				</g>
			</g>
			<g>
				<g>
					<path class="st5" d="M2089.41,1385.75c-15.96-29.95-16.21-56.02-13.61-72.61c2.83-18.06,9.42-28.91,9.7-29.37l4.16,2.56
						c-0.25,0.42-25.17,42.29,4.06,97.13L2089.41,1385.75z"/>
				</g>
			</g>
		</g>
	</g>
	<g>
		<g>
			<g>
				<path class="st10" d="M1398.61,768.6c0,0,81.34,42.9,121.76,132.51c37.55,83.23-117.81,44.95-117.81,44.95l-40.92-56.2
					L1398.61,768.6z"/>
			</g>
			<g>
				<path class="st11" d="M1731.17,1378.6c0,0-1.45,49.04,30.94,64.66c32.38,15.62,127.72,33.33,90.12,62.86
					c-21.57,16.94-117.96-0.02-145.35-1.52c-27.39-1.5-53.76,9.04-73.12-10.41c-21.29-21.39,6.58-120.55,6.58-120.55
					s22.97,13.6,44.25,14.21C1715.27,1388.73,1731.17,1378.6,1731.17,1378.6z"/>
			</g>
			<g>
				<path class="st12" d="M1174.32,1187.88c0,0,119.22-302,391.61-304.45c130.42-1.18,208.02,311.54,206.34,478.55
					c-0.3,29.57-17.75,53.37-47.32,53.37h-98.1c-17.96,0-35.47,0.15-57.18-23.29c-16.03-17.31-23.16-26.98-23.16-26.98
					s1.07,136.89-172.54,137.03C1215.23,1502.24,1085.42,1435.45,1174.32,1187.88z"/>
			</g>
			<g>
				<path class="st11" d="M1578.84,1378.6c0,0-1.45,49.04,30.94,64.66c32.38,15.62,127.72,33.33,90.12,62.86
					c-21.57,16.94-117.96-0.02-145.35-1.52c-27.39-1.5-53.76,9.04-73.12-10.41c-21.29-21.39,6.58-120.55,6.58-120.55
					s22.97,13.6,44.25,14.21C1562.95,1388.73,1578.84,1378.6,1578.84,1378.6z"/>
			</g>
			<g>
				<path class="st11" d="M1022.04,1351.64c2.3,19.04,109.96,16.73,241.77,0.04c131.81-16.68,234.41-45.24,232.11-64.28
					c-2.3-19.04-108.63-21.35-240.45-4.67C1123.66,1299.42,1019.74,1332.6,1022.04,1351.64z"/>
			</g>
			<g>
				<path class="st13" d="M1066.05,831.18c0,0,37.44-105.34,170.82-100.55c133.38,4.79,234.09,180.07,259.04,556.77
					c0,0-234.9-0.67-490.76,111.06C1005.16,1398.47,836.15,1172.81,1066.05,831.18z"/>
			</g>
			<g>
				<path class="st13" d="M985.35,800.32l81.53,85c0,0,306.8,50.07,346.74-1.9c38.24-49.76,32.82-97.58,32.82-97.58
					s-110.42-69.84-266.69-55.38C1046.6,742.79,985.35,800.32,985.35,800.32z"/>
			</g>
			<g>
				<path class="st11" d="M1331.47,630.84c0,0-9.22,15.6,10.02,49.96c16.19,28.91-13.71,53.69-36.05,39.8
					c-22.35-13.89-35.52,15.22-63.67-5.66C1213.62,694.06,1331.47,630.84,1331.47,630.84z"/>
			</g>
			<g>
				<path class="st10" d="M1172.75,731.17c12.7-2.67,28.16-8.46,35.03-19.89l21.53-35.83l6.25-10.4l36.73-61.14l-13.95,66.62
					l-8.38,39.99c0,0-3.79,14.89,14.27,19.85c0,0-0.38,52.84-32.45,50.13C1185.29,776.57,1172.68,731.18,1172.75,731.17z"/>
			</g>
			<g>
				<path class="st14" d="M1229.38,674.33c-0.04,0.37-0.07,0.75-0.08,1.12c-1.33,21.9,20.5,35.17,20.5,35.17l0.16-0.1l8.38-39.99
					c-6.74-3.56-16.48-7.59-22.79-5.48C1232.25,666.15,1229.9,668.93,1229.38,674.33z"/>
			</g>
			<g>
				<path class="st10" d="M1337.09,623.63c5.83-43.07-17.75-81.81-52.66-86.54c-34.91-4.72-67.93,26.37-73.76,69.44
					c-5.83,43.07,17.75,81.81,52.67,86.54C1298.24,697.79,1331.26,666.7,1337.09,623.63z"/>
			</g>
			<g>
				<g>
					<path class="st15" d="M1273.57,615.24c0.44-0.06,0.84-0.31,1.08-0.72c0.39-0.7,0.15-1.58-0.54-1.98
						c-0.41-0.23-9.41-6.52-19.17,1.63c-0.62,0.51-0.73,1.42-0.22,2.04c0.5,0.62,1.32,0.58,2.04,0.22
						c7.2-3.55,15.58-1.56,15.93-1.37C1272.95,615.23,1273.26,615.28,1273.57,615.24z"/>
				</g>
			</g>
			<g>
				<g>
					<path class="st15" d="M1259.64,631.26c-0.44,0.05-0.85,0.29-1.1,0.69c-0.41,0.69-0.2,1.58,0.49,1.99
						c0.4,0.24,9.22,6.78,19.21-1.09c0.63-0.5,0.76-1.39,0.28-2.03c-0.48-0.64-1.3-0.62-2.03-0.28c-7.3,3.34-15.62,1.12-15.96,0.92
						C1260.25,631.29,1259.94,631.23,1259.64,631.26z"/>
				</g>
			</g>
			<g>
				<g>
					<path class="st15" d="M1308.19,633.81c-0.35-0.27-0.82-0.37-1.27-0.24c-0.77,0.21-1.22,1.01-1.01,1.78
						c0.13,0.45,2.07,11.26,14.74,12.37c0.8,0.07,1.51-0.49,1.6-1.29c0.09-0.8-0.53-1.34-1.29-1.6
						c-7.61-2.57-12.14-9.89-12.25-10.27C1308.62,634.26,1308.43,634,1308.19,633.81z"/>
				</g>
			</g>
			<g>
				<g>
					<path class="st15" d="M1329.97,630.35c0.42,0.14,0.89,0.1,1.29-0.17c0.66-0.45,0.84-1.35,0.4-2.01
						c-0.26-0.39-5.51-10.04-17.88-7.11c-0.78,0.18-1.28,0.94-1.11,1.73c0.17,0.78,0.92,1.11,1.72,1.11
						c8.03,0.05,14.64,5.57,14.86,5.89C1329.42,630.06,1329.68,630.25,1329.97,630.35z"/>
				</g>
			</g>
			<g>
				<path class="st11" d="M1309.36,554.86c0,0-5.02,26.87-39.44,26.92c-34.41,0.04-59.65,11.19-58.41,36.15
					c1.25,24.96,48.88,82.82,6.21,96.97c-42.68,14.15-29.22-21.17-73.77-18.59c-44.54,2.59-44.53-56.42-10.1-86.01
					c34.43-29.59,34.37-120.23,145.89-101.12c111.53,19.1,58.38,102.96,58.38,102.96S1305.25,584.74,1309.36,554.86z"/>
			</g>
			<g>
				<path class="st10" d="M1207.11,620.33c6.24,7.81,16.15,9.86,22.15,4.59c6-5.27,5.8-15.87-0.43-23.68
					c-6.24-7.81-16.15-9.86-22.15-4.59C1200.68,601.92,1200.87,612.52,1207.11,620.33z"/>
			</g>
			<g>
				<path class="st11" d="M1293.29,674.3c-0.35,0-0.71-0.14-0.97-0.41c-11.83-12.13-28.02-6.71-28.18-6.66
					c-0.71,0.25-1.49-0.13-1.73-0.84c-0.25-0.71,0.13-1.49,0.84-1.73c0.18-0.06,18-6.02,31.02,7.33c0.53,0.54,0.52,1.4-0.02,1.92
					C1293.97,674.17,1293.63,674.3,1293.29,674.3z"/>
			</g>
			<g>
				<path class="st15" d="M1117.19,907.41c-9.5,11.7-46.72-2.79-83.12-32.37c-36.41-29.57-58.22-63.03-48.72-74.72
					c9.5-11.7,46.72,2.79,83.13,32.37C1104.88,862.26,1126.69,895.71,1117.19,907.41z"/>
			</g>
			<g>
				<path class="st12" d="M1022,1187.88c0,0,119.22-302,391.61-304.45c130.42-1.18,208.02,311.54,206.34,478.55
					c-0.3,29.57-17.75,53.37-47.32,53.37h-98.1c-17.96,0-35.47,0.15-57.18-23.29c-16.03-17.31-23.16-26.98-23.16-26.98
					s1.07,136.89-172.54,137.03C1062.91,1502.24,933.09,1435.45,1022,1187.88z"/>
			</g>
			<g>
				<path class="st16" d="M1934.81,1366.72"/>
			</g>
			<g>
				<path class="st11" d="M1409.7,1387c-0.62,0-1.25-0.26-1.68-0.77c-25.88-30.13-45.87-65.75-59.41-105.89
					c-10.82-32.07-17.57-67.08-20.06-104.04c-4.24-62.92,5.49-110.42,5.59-110.89c0.25-1.2,1.43-1.96,2.62-1.72
					c1.2,0.25,1.97,1.43,1.72,2.62c-0.1,0.47-9.71,47.48-5.5,109.81c2.47,36.56,9.15,71.17,19.85,102.86
					c13.35,39.56,33.05,74.67,58.54,104.34c0.8,0.93,0.69,2.33-0.24,3.13C1410.73,1386.82,1410.21,1387,1409.7,1387z"/>
			</g>
			<g>
				<path class="st11" d="M1329.69,1149.89c-0.24,0-0.48-0.04-0.71-0.12c-20.2-6.84-48.17-19.59-66.71-41.55
					c-11.24-13.3-13.67-23.64-13.77-24.07c-0.27-1.2,0.48-2.38,1.67-2.65c1.19-0.27,2.38,0.48,2.65,1.67
					c0.03,0.13,2.41,9.95,13.06,22.46c17.9,21.02,44.97,33.32,64.52,39.94c1.16,0.39,1.78,1.65,1.39,2.81
					C1331.48,1149.31,1330.62,1149.89,1329.69,1149.89z"/>
			</g>
			<g>
				<path class="st11" d="M1590.99,1411.17c-0.9,0-1.74-0.55-2.08-1.44c-0.43-1.15,0.15-2.43,1.29-2.86
					c34.6-13.03,30.89-39.55,28.18-58.91c-0.32-2.26-0.61-4.39-0.82-6.36c-9.58-89.46-23.53-168.19-41.46-233.99
					c-14.34-52.64-31.25-97.18-50.25-132.37c-32.31-59.84-59.82-71.97-60.09-72.09c-1.13-0.47-1.66-1.77-1.19-2.9
					c0.47-1.13,1.76-1.66,2.89-1.19c1.16,0.48,28.84,12.48,61.84,73.25c19.25,35.44,36.36,80.29,50.86,133.33
					c18.1,66.2,32.16,145.43,41.81,235.49c0.2,1.9,0.5,4,0.81,6.22c2.58,18.48,6.91,49.4-31.01,63.68
					C1591.51,1411.12,1591.25,1411.17,1590.99,1411.17z"/>
			</g>
			<g>
				<g>
					<g>
						<path class="st10" d="M1223.01,911.41c0,0,45.44-52.93,86.27-53.67c40.83-0.74,93.54,29.18,68.33,35.01
							c-25.21,5.83-59.48,4.39-59.48,4.39s73.07,6.53,64.14,22.96c-8.93,16.43-72.43,10.13-72.43,10.13s86.33,14.7,72.88,27.49
							c-13.46,12.79-78.96,1.16-78.96,1.16s79.78,16.89,63.8,31.38c-15.98,14.49-65.84-14.38-74.77,2.04
							c-8.93,16.43-49.95,78.66-98.64,59.42L1223.01,911.41z"/>
					</g>
				</g>
				<g>
					<path class="st17" d="M1288.16,903.66c-0.79,0-1.58-0.32-2.15-0.95c-1.08-1.19-0.99-3.02,0.2-4.09
						c10.49-9.51,31.7-4.5,32.6-4.29c1.55,0.38,2.51,1.94,2.13,3.5c-0.38,1.55-1.94,2.51-3.5,2.13l0,0
						c-0.19-0.05-19.13-4.5-27.34,2.95C1289.55,903.41,1288.85,903.66,1288.16,903.66z"/>
				</g>
				<g>
					<path class="st17" d="M1274.06,937.45c-0.99,0-1.95-0.5-2.49-1.41c-0.82-1.37-0.37-3.15,1-3.97
						c16.8-10.03,37.15-4.86,38.01-4.63c1.55,0.41,2.47,1.99,2.07,3.54c-0.41,1.55-1.99,2.47-3.54,2.07
						c-0.28-0.07-18.93-4.74-33.56,4C1275.08,937.32,1274.57,937.45,1274.06,937.45z"/>
				</g>
			</g>
			<g>
				<g>
					<path class="st10" d="M983.54,1131.9c-41.77-18.19-63.87-63.53-65.87-106.44c-2.58-55.25,4.01-97.5,37.16-155.51
						c21.41-37.47,32.68-54.19,36.21-55.86c19.22-9.06,49.02,7.92,60.1,15.44c15.55,10.55,50.47,39.13,37.45,63.46
						c-0.13,0.25-5.93,15.16-21.72,43.21c-18.59,33.02-20.73,58.48-14.06,65.43c8.87,9.24,51.65,5.06,92.22-22.86
						c42.9-29.52,76.28-66.42,76.61-66.79l71.14,80.32c-1.71,1.92-24.25,41.64-72.18,89.19
						C1184.5,1117.32,1071.29,1170.1,983.54,1131.9z"/>
				</g>
			</g>
			<g>
				<path class="st13" d="M1340.75,645.43c0,0,12.86-13.96,24.87-8.14c12.01,5.82,7.69,19.05,0.44,18.84
					C1358.8,655.93,1360.23,642.61,1340.75,645.43z"/>
			</g>
			<g>
				<path class="st13" d="M1250.3,635.43c1.95-1.46,0.92-4.58-1.52-4.59c-14.83-0.08-47.03,2.78-57.79,28.16
					c-14.15,33.38,18.32,52.71,32.79,39.33C1237.55,685.61,1214.04,662.65,1250.3,635.43z"/>
			</g>
			<g>
				<path class="st13" d="M1246.97,625.54c0.54,0.3,1.16-0.26,0.91-0.83c-1.52-3.46-5.55-10.67-12.58-10.53
					c-9.25,0.18-10.37,9.76-5.75,11.74C1233.95,627.79,1236.86,619.93,1246.97,625.54z"/>
			</g>
			<g>
				<path class="st13" d="M1326.77,649.11c-0.83-1.96,1.27-3.86,3.12-2.81c10.03,5.7,29.11,19.32,26.87,39.48
					c-3.03,27.2-31.55,27.92-36.13,13.76C1316.31,686.19,1339.84,679.77,1326.77,649.11z"/>
			</g>
			<g>
				<path class="st18" d="M1178.61,648.19c-0.24,0-0.44-0.18-0.46-0.42c-0.02-0.25,0.17-0.48,0.42-0.5
					c0.12-0.01,11.94-1.12,15.24-10.7c3.43-9.96-2.22-17.24-6.34-22.57c-0.71-0.92-1.38-1.78-1.95-2.59
					c-10.74-15.25-10.67-32.7,0.18-46.69c11.11-14.33,34.14-24.31,60.53-14.31c21.09,7.99,36.65,5.47,45.99,1.95
					c10.1-3.81,15.27-9.54,15.32-9.6c0.17-0.19,0.46-0.21,0.65-0.04c0.19,0.17,0.21,0.46,0.04,0.65
					c-0.16,0.18-12.12,13.24-35.32,13.24c-7.75,0-16.76-1.46-27-5.34c-25.95-9.83-48.57-0.05-59.48,14.01
					c-10.59,13.65-10.65,30.7-0.16,45.6c0.56,0.79,1.22,1.65,1.93,2.56c4.25,5.49,10.08,13,6.49,23.43
					c-3.5,10.16-15.91,11.31-16.04,11.32C1178.63,648.19,1178.62,648.19,1178.61,648.19z"/>
			</g>
		</g>
		<g>
			<path class="st11" d="M1287.43,1496.26c-0.94,0-1.82-0.61-2.12-1.55c-0.37-1.17,0.28-2.41,1.45-2.78
				c0.51-0.16,51.38-16.62,85.84-61.99c0.74-0.97,2.13-1.16,3.11-0.42c0.98,0.74,1.17,2.13,0.42,3.11
				c-35.34,46.52-87.52,63.37-88.04,63.53C1287.88,1496.23,1287.65,1496.26,1287.43,1496.26z"/>
		</g>
	</g>
	<g>
		<g>
			<path class="st2" d="M1937.92,470.41c-0.16,0-0.32-0.04-0.5-0.11c-2.32-0.94-0.44-6.58-0.35-6.82l0.39,0.13
				c-0.52,1.53-1.51,5.65,0.12,6.31c0.27,0.11,0.5,0.1,0.71-0.04c0.95-0.65,1.12-3.67,1.11-4.79l0.41-0.04
				c0,0.03,0.5,3.13,1.65,3.81c0.23,0.14,0.47,0.15,0.73,0.06l0.14,0.39c-0.38,0.14-0.74,0.11-1.08-0.09
				c-0.73-0.43-1.22-1.61-1.5-2.59c-0.11,1.3-0.42,3.04-1.22,3.59C1938.34,470.35,1938.14,470.41,1937.92,470.41z"/>
		</g>
		<g>
			<path class="st2" d="M1904.33,390.36c-0.19-0.17-4.56-4.2-2.99-6.14c0.28-0.34,0.61-0.49,1-0.46c0.98,0.09,2.08,1.47,2.81,2.55
				c-0.22-1-0.37-2.27,0.06-3c0.2-0.34,0.51-0.54,0.9-0.6l0.06,0.41c-0.27,0.04-0.47,0.17-0.61,0.4c-0.57,0.95,0.09,3.3,0.39,4.13
				l-0.37,0.17c-0.53-0.98-2.15-3.55-3.29-3.65c-0.24-0.02-0.45,0.08-0.64,0.3c-1.11,1.36,1.75,4.49,2.95,5.58L1904.33,390.36z"/>
		</g>
		<g>
			<path class="st10" d="M1873.48,582.47c0,0,125.29,60.18,172.89,21.72c24.98-20.18,30.99-40.85,39.03-51.04
				c52.06-65.94,142.16-64.79,162.89-77.44c28.21-17.21,66.68-204.76,66.68-204.76l-109.42-142.28c0,0-80.24,55.97-137.69,77.58
				c-21,7.9-42.62,47.84-77.77,41.05c-107.6-20.79-163.68,4.89-224.28,34.14c-26.83,12.95-63.02,25.12-123.92,40.56
				c-29.31,7.43-117.29,12.89-120.62,47.97c-4.47,47.17,117.09,43.08,149.87,36.03C1891.01,358.65,1873.48,582.47,1873.48,582.47z"
				/>
		</g>
		<g>
			<g>
				<path class="st19" d="M2645.1,410.7v46.77c-123.19,23.8-484.41,99.88-495.9,68.92c-1.96-5.27-3.28-11.75-4.27-19.22
					c-5.6-41.8-1.18-114.54-42.53-179.73c-28.88-45.52-45.53-84.54-49.96-111.03c-3.04-18.22-0.3-30.52,8.22-34.94
					c6.82-3.53,64.48-34.56,136.16-72.64c46.57,1.75,89.64,4.21,128,7.46C2500.95,131.22,2645.1,248.09,2645.1,410.7z"/>
			</g>
			<g>
				<path class="st20" d="M2222.46,486.27c-6.59,1.7-15.19-2.6-17.66-8.94c-3.23-8.27,0.85-16.24,7.45-17.94
					c7.71-1.99,16.77,2.92,18.82,10.89C2232.76,476.88,2229.05,484.58,2222.46,486.27z"/>
			</g>
		</g>
		<g>
			<path class="st10" d="M1686.11,395.65c7.32,2.55,25.4,17.31-6.21,26.41c-75.98,21.88-237.13,99.61-228.42,128.76
				c12.99,43.49,99.09,9.28,187.9-26c17.88-7.1,37.04-9.66,27.3,0.09c-22.32,22.35-235.6,83.56-221.17,131.59
				c17.4,57.95,246.66-72.04,254.7-63.36c11.59,12.52-186.53,90.26-168.11,128.71c22.29,46.53,215.16-81.83,220.7-63.23
				c5.54,18.59-143.25,80.35-91.36,115.93c18.99,13.02,129.06-68.35,234.74-98.45c35.68-10.16,75.08-23.66,104.78-39.77
				c104.91-56.9,102.27-149.97,102.27-149.97s-225.08-140.53-303.73-147.41C1720.86,332.1,1640.59,379.77,1686.11,395.65z"/>
		</g>
		<g>
			<g>
				<path class="st21" d="M2098.23,500.07c0.04,0.29,0.04,0.58,0.03,0.87c-2.43,43.17-17.75,69.43-30.18,83.85
					c-13.69,15.89-26.9,21.35-27.46,21.58c-2.5,1.01-5.34-0.19-6.35-2.69c-1.01-2.49,0.19-5.33,2.68-6.34l0,0
					c0.12-0.05,11.95-5.04,24.13-19.37c11.27-13.25,25.19-37.47,27.44-77.57c0.15-2.69,2.45-4.75,5.14-4.59
					C2096.05,495.93,2097.94,497.77,2098.23,500.07z"/>
			</g>
		</g>
		<g>
			<path class="st21" d="M1884.36,430.7c-22.24,0-40.69-7.95-61.55-16.94c-5.46-2.35-11.11-4.79-17.02-7.15
				c-44.25-17.71-74.32-7.18-74.62-7.07c-1.94,0.71-4.1-0.29-4.81-2.24c-0.71-1.94,0.28-4.09,2.22-4.81
				c1.32-0.49,32.88-11.71,79.99,7.15c6,2.4,11.7,4.86,17.2,7.23c18.59,8.01,34.64,14.93,53.23,16.07
				c20.42,1.26,42.08-4.8,68.16-19.05c1.82-0.99,4.1-0.33,5.09,1.49c0.99,1.82,0.33,4.1-1.49,5.09
				C1923.72,425.26,1902.75,430.7,1884.36,430.7z"/>
		</g>
		<g>
			<path class="st21" d="M1891.84,542.49c-1.15,0-2.29-0.53-3.03-1.53c-47.95-65.3-154.78-98.7-155.85-99.03
				c-1.98-0.61-3.09-2.71-2.48-4.69c0.61-1.98,2.7-3.1,4.69-2.48c0.27,0.08,27.81,8.61,60.99,25.27
				c30.74,15.43,72.81,41.23,98.7,76.49c1.23,1.67,0.87,4.02-0.8,5.24C1893.39,542.25,1892.61,542.49,1891.84,542.49z"/>
		</g>
	</g>
	<g>
		<path class="st3" d="M2327.04,1139.25c29.34,7.37,35.72,18.88,32.84,30.38c-2.89,11.5-13.95,18.63-43.29,11.27
			c-53.44-13.41-74.04-40.72-74.04-40.72S2272.82,1125.64,2327.04,1139.25z"/>
	</g>
	<g>
		<path class="st3" d="M2264.34,1060.57c24.18-14.99,36.14-11.77,42.01-2.29c5.88,9.48,3.45,21.62-20.73,36.61
			c-44.05,27.31-75.97,23.35-75.97,23.35S2219.65,1088.28,2264.34,1060.57z"/>
	</g>
	<g>
		<path class="st3" d="M1719.9,866.85c4.58-26.05,17.26-31.81,31.21-29.36c13.95,2.46,23.9,12.19,19.32,38.24
			c-8.34,47.45-37.64,65.95-37.64,65.95S1711.44,915,1719.9,866.85z"/>
	</g>
	<g>
		<g>
			<path class="st1" d="M687.14,1468.42c0,0-53.15-54.19-34.87-85.05c18.29-30.86,49.15,66.3,49.15,66.3s-16-114.89,17.15-116.89
				c33.15-2,0,116.89,0,116.89s12.29-27.72,24.29-29.43c12-1.71,8.57,23.51-12.86,48.19"/>
		</g>
		<g>
			<path class="st2" d="M690.95,1469.78c-0.15-0.16-15.36-15.74-27.81-35.43c-16.98-26.87-21.03-48.2-12.02-63.39
				c3.36-5.67,7.4-8.28,12-7.76c9.17,1.05,19.94,15.53,32.01,43.03c3.7,8.43,6.97,16.85,9.53,23.8c-0.93-9.69-1.92-22.51-2.29-36
				c-1.02-37.96,3.17-62.97,12.47-74.32c3.6-4.39,7.98-6.77,13.04-7.08c4.92-0.3,8.97,1.47,12.02,5.25
				c14.89,18.43,1.43,83.54-5.96,114c5.51-8.93,13.34-18.89,21.33-20.04c3.78-0.54,6.79,0.87,8.49,3.98
				c4.82,8.86-1.83,31.43-21.33,53.88l-2.94-2.55c19.17-22.07,24.42-42.91,20.85-49.47c-0.91-1.67-2.34-2.3-4.52-1.99
				c-10.29,1.47-22.29,23.78-26.05,32.25l-3.65-1.31c0.07-0.26,7.34-26.45,12.21-55.12c6.38-37.49,5.87-62.11-1.46-71.18
				c-2.25-2.78-5.11-4.03-8.76-3.81c-3.98,0.24-7.34,2.09-10.26,5.66c-20.91,25.54-7.52,123.72-7.38,124.71l-3.78,0.86
				c-6.94-21.83-28.37-78.89-44.01-80.67c-2.98-0.35-5.67,1.58-8.21,5.88c-19.75,33.34,38.67,93.51,39.26,94.12L690.95,1469.78z"/>
		</g>
	</g>
	<g>
		<g>
			<path class="st1" d="M956.23,1539.33c0,0-25.72-26.22-16.87-41.15c8.85-14.93,23.78,32.08,23.78,32.08s-7.74-55.59,8.3-56.56
				c16.04-0.96,0,56.56,0,56.56s5.95-13.41,11.75-14.24c5.81-0.83,4.15,11.37-6.22,23.32"/>
		</g>
		<g>
			<path class="st2" d="M958.07,1539.99c-0.07-0.07-7.43-7.62-13.45-17.14c-8.22-13-10.17-23.32-5.82-30.67
				c1.63-2.75,3.58-4,5.8-3.75c7.54,0.86,15.79,20.47,20.06,32.15c-1.41-14.59-3.03-43.44,4.96-53.2c1.74-2.12,3.86-3.28,6.31-3.42
				c2.38-0.15,4.34,0.71,5.82,2.54c7.2,8.92,0.69,40.42-2.89,55.16c2.67-4.32,6.45-9.14,10.32-9.7c1.83-0.26,3.29,0.42,4.11,1.92
				c2.33,4.28-0.89,15.21-10.32,26.07l-1.42-1.23c9.27-10.68,11.82-20.76,10.09-23.94c-0.44-0.81-1.13-1.12-2.19-0.96
				c-4.98,0.71-10.79,11.5-12.6,15.6l-1.77-0.63c0.04-0.13,3.55-12.8,5.91-26.67c3.09-18.14,2.84-30.05-0.71-34.44
				c-1.09-1.35-2.48-1.94-4.24-1.84c-1.93,0.12-3.55,1.01-4.96,2.74c-10.11,12.35-3.64,59.86-3.57,60.34l-1.83,0.41
				c-3.36-10.56-13.72-38.17-21.3-39.03c-1.44-0.17-2.74,0.76-3.97,2.84c-9.56,16.13,18.71,45.25,19,45.54L958.07,1539.99z"/>
		</g>
	</g>
	<g>
		<g>
			<path class="st1" d="M2165.68,1472.68c0,0-30.68-31.28-20.12-49.09c10.56-17.81,28.37,38.27,28.37,38.27s-9.24-66.31,9.9-67.46
				c19.13-1.15,0,67.46,0,67.46s7.09-16,14.02-16.99s4.95,13.57-7.42,27.81"/>
		</g>
		<g>
			<path class="st2" d="M2167.88,1473.46c-1.45-1.47-35.26-36.33-22.99-57.04c1.94-3.27,4.27-4.79,6.92-4.48
				c5.29,0.6,11.51,8.96,18.47,24.84c2.12,4.83,4,9.67,5.47,13.67c-1.69-17.36-3.65-51.94,5.9-63.61c2.08-2.53,4.61-3.91,7.52-4.08
				c2.84-0.18,5.18,0.85,6.94,3.03c8.59,10.64,0.83,48.21-3.44,65.8c3.18-5.16,7.7-10.91,12.31-11.56c2.18-0.31,3.92,0.5,4.9,2.29
				c2.78,5.11-1.06,18.14-12.31,31.1l-1.7-1.47c11.06-12.74,14.1-24.77,12.04-28.55c-0.52-0.96-1.36-1.33-2.61-1.15
				c-5.94,0.85-12.87,13.72-15.04,18.61l-2.11-0.76c0.04-0.15,4.24-15.27,7.05-31.82c3.68-21.64,3.39-35.85-0.84-41.09
				c-1.3-1.61-2.97-2.32-5.06-2.2c-2.3,0.14-4.24,1.21-5.92,3.27c-12.07,14.74-4.34,71.41-4.26,71.98l-2.18,0.49
				c-4-12.6-16.37-45.53-25.4-46.56c-1.74-0.2-3.27,0.91-4.74,3.39c-11.4,19.24,22.32,53.97,22.66,54.32L2167.88,1473.46z"/>
		</g>
	</g>
</g>
</svg>
