<svg width="114" height="114" viewBox="0 0 114 114" fill="none" xmlns="http://www.w3.org/2000/svg">
<path d="M50.5675 34.578C52.512 34.1229 54.5029 33.8953 56.5 33.9C76.275 33.9 87.575 56.5 87.575 56.5C85.8602 59.7081 83.8151 62.7284 81.473 65.5118M62.489 62.489C61.7131 63.3217 60.7775 63.9896 59.7379 64.4528C58.6983 64.916 57.576 65.165 56.4381 65.1851C55.3001 65.2052 54.1698 64.9959 53.1145 64.5696C52.0592 64.1434 51.1006 63.5089 50.2959 62.7042C49.4911 61.8994 48.8566 60.9408 48.4304 59.8855C48.0042 58.8302 47.7948 57.6999 47.8149 56.5619C47.835 55.424 48.0841 54.3017 48.5473 53.2622C49.0105 52.2226 49.6783 51.2869 50.511 50.511M73.2805 73.2805C68.4514 76.9615 62.5712 79.0008 56.5 79.1C36.725 79.1 25.425 56.5 25.425 56.5C28.939 49.9514 33.8128 44.23 39.7195 39.7195L73.2805 73.2805Z" stroke="#5C5C5C" stroke-width="2" stroke-linecap="round" stroke-linejoin="round"/>
<path d="M25.425 25.425L87.575 87.575" stroke="#5C5C5C" stroke-width="2" stroke-linecap="round" stroke-linejoin="round"/>
</svg>
