<svg id="Layer_2" data-name="Layer 2" xmlns="http://www.w3.org/2000/svg" viewBox="0 0 174.64 174.64"><defs><style>.cls-1{fill:#64FFF0;}</style></defs><path class="cls-1" d="M90.75,176.52A84.16,84.16,0,1,1,174.9,92.37a84.25,84.25,0,0,1-84.15,84.15m0-166.93a82.78,82.78,0,1,0,82.78,82.78A82.87,82.87,0,0,0,90.75,9.59" transform="translate(-3.42 -5.05)"/><path class="cls-1" d="M90.75,179.69a87.32,87.32,0,1,1,87.32-87.32,87.43,87.43,0,0,1-87.32,87.32m0-173.27a86,86,0,1,0,85.95,86A86.05,86.05,0,0,0,90.75,6.42" transform="translate(-3.42 -5.05)"/><path class="cls-1" d="M90.8,159.48a67.11,67.11,0,1,1,67.12-67.11A67.19,67.19,0,0,1,90.8,159.48m0-132.86a65.75,65.75,0,1,0,65.76,65.75A65.82,65.82,0,0,0,90.8,26.62" transform="translate(-3.42 -5.05)"/><path class="cls-1" d="M90.8,156.67a64.3,64.3,0,1,1,64.3-64.3,64.37,64.37,0,0,1-64.3,64.3m0-127.23a62.93,62.93,0,1,0,62.93,62.93A63,63,0,0,0,90.8,29.44" transform="translate(-3.42 -5.05)"/><path class="cls-1" d="M20.21,125l.49,1a1,1,0,0,0-.12.28,1.73,1.73,0,0,0-.08.49,3.19,3.19,0,0,0,.07.64,3.28,3.28,0,0,0,.29.78,4.23,4.23,0,0,0,.46.74,1.33,1.33,0,0,0,.39.35.49.49,0,0,0,.34.08,1.39,1.39,0,0,0,.31-.1l.68-.36a.34.34,0,0,0,.19-.2,1,1,0,0,0,.06-.4,7,7,0,0,0,0-.7c0-.29,0-.67-.06-1.13s0-.65-.07-1a3.54,3.54,0,0,1,0-.92,2.1,2.1,0,0,1,.27-.81,1.93,1.93,0,0,1,.76-.65l.76-.39a2.43,2.43,0,0,1,.87-.27,1.36,1.36,0,0,1,.85.17,2.88,2.88,0,0,1,.85.73,6.68,6.68,0,0,1,.89,1.4,9.84,9.84,0,0,1,.73,1.7,3.93,3.93,0,0,1,.24,1.13l-1.77.92-.43-.83a.94.94,0,0,0,.13-.23,1.07,1.07,0,0,0,.06-.39,2.67,2.67,0,0,0-.08-.58,3.63,3.63,0,0,0-.32-.79,3.14,3.14,0,0,0-.6-.86.49.49,0,0,0-.61-.09l-.31.16a.8.8,0,0,0-.26.19.69.69,0,0,0-.12.37,5.66,5.66,0,0,0,0,.79c0,.35,0,.84.08,1.46s0,.91,0,1.24a2.65,2.65,0,0,1-.15.86,1.69,1.69,0,0,1-.43.62,3.25,3.25,0,0,1-.75.5l-1,.5a1.66,1.66,0,0,1-.79.17,1.91,1.91,0,0,1-.84-.24,3.21,3.21,0,0,1-.82-.66,5.29,5.29,0,0,1-.74-1.07c-.32-.63-.56-1.14-.72-1.55a6.53,6.53,0,0,1-.33-1,2.56,2.56,0,0,1-.08-.67,3.9,3.9,0,0,1,0-.5Z" transform="translate(-3.42 -5.05)"/><path class="cls-1" d="M24.86,136.06a1.72,1.72,0,0,0-.28.24.65.65,0,0,0-.21.35l-.59-.13-1-1.47.13-.59a.67.67,0,0,0,.44-.05l.29-.15,6.37-4.11.29-.21a.71.71,0,0,0,.24-.4l.59.13.94,1.47-.12.59a.49.49,0,0,0-.24,0l-.26.08a1.83,1.83,0,0,0-.28.14Z" transform="translate(-3.42 -5.05)"/><path class="cls-1" d="M32.85,134.34a1.45,1.45,0,0,0,.28-.27.73.73,0,0,0,.19-.38l.6.07L35,135.14l-.08.6a.75.75,0,0,0-.21,0,1.28,1.28,0,0,0-.53.26l-5.46,4.25L30,141.88a1,1,0,0,0,.34.31,1,1,0,0,0,.33.1.88.88,0,0,0,.36,0l.51.66-1.64,1.27a1.22,1.22,0,0,1-.4-.25,3.49,3.49,0,0,1-.46-.4,6.41,6.41,0,0,1-.59-.68L26,139.7l.48-.86a.53.53,0,0,0,.27,0,1.16,1.16,0,0,0,.35-.11,2.18,2.18,0,0,0,.48-.29Z" transform="translate(-3.42 -5.05)"/><path class="cls-1" d="M37.49,140.22a2.18,2.18,0,0,0,.27-.32c.05-.09.1-.17.13-.24a1.81,1.81,0,0,0,0-.19h.61l2.6,2.67a3,3,0,0,1,.63.88,2.51,2.51,0,0,1,.26,1,2.42,2.42,0,0,1-.16,1,2.83,2.83,0,0,1-.66,1l-.66.64a3.28,3.28,0,0,1-1.19.77,2.82,2.82,0,0,1-1.24.16,3.26,3.26,0,0,1-1.2-.36,4.34,4.34,0,0,1-1-.78c-.06-.06-.12-.13-.2-.2l-.22-.26a2.14,2.14,0,0,1-.19-.26.94.94,0,0,1-.12-.2L33.61,147a2.35,2.35,0,0,0-.22.29.67.67,0,0,0-.13.38h-.61l-1.22-1.25v-.6a.65.65,0,0,0,.43-.14,2.23,2.23,0,0,0,.26-.2Zm-1.07,4a1.39,1.39,0,0,0,.21.37,3.51,3.51,0,0,0,.29.36,1.61,1.61,0,0,0,1.17.52,1.55,1.55,0,0,0,1.08-.44l.51-.49a.82.82,0,0,0,.29-.71,1.57,1.57,0,0,0-.46-.77l-.94-1Z" transform="translate(-3.42 -5.05)"/><path class="cls-1" d="M40.76,152.51a5.09,5.09,0,0,1-.4.32l-.35.25a2.26,2.26,0,0,1-.27.2l-.36.19a1.08,1.08,0,0,1-.27.07.55.55,0,0,1-.25,0l-1.19-.94-.12-.67a1,1,0,0,0,.26-.07,2.38,2.38,0,0,0,.65-.28l.54-.35,1-.63,1.23-.81c.45-.29.9-.58,1.35-.89s.89-.59,1.32-.86l1.13-.75c.33-.21.67-.45,1-.71l1.87,1.48-.46,1.19L47,150.55c-.17.48-.36,1-.55,1.48l-.57,1.51c-.18.5-.35,1-.51,1.38s-.29.78-.4,1.08-.18.51-.22.61-.08.28-.1.39a1.89,1.89,0,0,0,0,.3,1.3,1.3,0,0,0,0,.28l-.68,0-1.19-1a1,1,0,0,1,0-.25c0-.08,0-.18,0-.29a1.59,1.59,0,0,1,.11-.38,1.26,1.26,0,0,1,.13-.32l.17-.38c.07-.15.14-.31.22-.46Zm4.94-3.22-.32-.25L42,151.55l2,1.57Z" transform="translate(-3.42 -5.05)"/><path class="cls-1" d="M49.11,159.52s0,0-.07.09,0,.11-.09.19l-.06.25a.68.68,0,0,0,0,.25l-.59.15-1.24-.75a1.14,1.14,0,0,1-.06-.44,2.25,2.25,0,0,1,.06-.4,1.09,1.09,0,0,1,.11-.28.87.87,0,0,1,.06-.13L51.15,152a1.47,1.47,0,0,0,.14-.28,2.44,2.44,0,0,0,.06-.26.49.49,0,0,0,0-.24l.59-.14,1.24.74a1.6,1.6,0,0,1,0,.47,3.65,3.65,0,0,1-.07.4A1.26,1.26,0,0,1,53,153l-1.59,2.64a2.2,2.2,0,0,0,.8.11,1.92,1.92,0,0,0,1.09-.44l2-1.45a1,1,0,0,0,.18-.17c0-.06.09-.12.13-.19a.3.3,0,0,0,0-.08l0-.06,0-.08,2.12,1.28-.37.6a.93.93,0,0,0-.24,0,1,1,0,0,0-.28.05,1.26,1.26,0,0,0-.32.17l-2,1.42a2.42,2.42,0,0,1-.58.32l-.49.13a1.44,1.44,0,0,1-.34,0l-.14,0,.13.22a1.39,1.39,0,0,1,.14.32,4,4,0,0,1,.1.5,4.42,4.42,0,0,1,0,.72l-.22,2.4a1,1,0,0,0,0,.47,1.48,1.48,0,0,0,.18.33,1.16,1.16,0,0,0,.28.26l-.47.8-.38-.14-.44-.2-.53-.31a.92.92,0,0,1-.33-.32,1.52,1.52,0,0,1-.19-.43,2.42,2.42,0,0,1-.07-.47c0-.17,0-.33,0-.49l.18-3a1.33,1.33,0,0,0,0-.45,2.09,2.09,0,0,0-.16-.4,1.42,1.42,0,0,0-.2-.3c-.07-.09-.14-.15-.19-.21Z" transform="translate(-3.42 -5.05)"/><path class="cls-1" d="M58.64,165.9a5.91,5.91,0,0,1-1.65-1,3.06,3.06,0,0,1-.86-1.34,3.84,3.84,0,0,1-.11-1.71,8.89,8.89,0,0,1,.67-2.16,5.72,5.72,0,0,1,2.5-3.09,4.05,4.05,0,0,1,3.44.2,4.07,4.07,0,0,1,2.48,2.39,5.7,5.7,0,0,1-.57,3.93,8.82,8.82,0,0,1-1.14,2,3.7,3.7,0,0,1-1.33,1.08,3.15,3.15,0,0,1-1.59.27,5.85,5.85,0,0,1-1.84-.5m.73-1.68a2.45,2.45,0,0,0,1,.24,1.47,1.47,0,0,0,.81-.24,2.41,2.41,0,0,0,.71-.74,7.71,7.71,0,0,0,.67-1.27,7.56,7.56,0,0,0,.48-1.37,2.66,2.66,0,0,0,.08-1.06,1.42,1.42,0,0,0-.36-.77,2.33,2.33,0,0,0-.83-.57,2.43,2.43,0,0,0-1-.23,1.57,1.57,0,0,0-.82.27,2.79,2.79,0,0,0-.72.76,8.16,8.16,0,0,0-.68,1.3,8.28,8.28,0,0,0-.48,1.35,2.61,2.61,0,0,0-.06,1,1.51,1.51,0,0,0,.37.76,2.6,2.6,0,0,0,.84.55" transform="translate(-3.42 -5.05)"/><path class="cls-1" d="M68.13,160.33a1.61,1.61,0,0,0,.08-.41v-.27c0-.07,0-.14-.07-.19l.53-.29,3.58,1a3.74,3.74,0,0,1,1,.46,2.67,2.67,0,0,1,.72.74,2.41,2.41,0,0,1,.36,1,2.65,2.65,0,0,1-.09,1.17l-.25.89a3.16,3.16,0,0,1-.93,1.53,3.07,3.07,0,0,1-1.43.71l.36,2a1.19,1.19,0,0,0,.18.44,1,1,0,0,0,.25.28,1,1,0,0,0,.35.16l-.26.89-.4,0-.47-.08-.59-.15a1.08,1.08,0,0,1-.41-.22,1.76,1.76,0,0,1-.29-.37,2.19,2.19,0,0,1-.2-.44,2.42,2.42,0,0,1-.13-.46l-.48-2.23-.46-.18-.35-.18-.58,2a1.47,1.47,0,0,0,0,.36.64.64,0,0,0,.08.4l-.54.3L66,168.72l-.3-.53a.74.74,0,0,0,.3-.33l.12-.3Zm1.07,4a1.45,1.45,0,0,0,.37.22,2.23,2.23,0,0,0,.43.16,1.58,1.58,0,0,0,1.27-.12,1.56,1.56,0,0,0,.72-.92l.19-.68a.81.81,0,0,0-.09-.76,1.59,1.59,0,0,0-.78-.44L70,161.45Z" transform="translate(-3.42 -5.05)"/><path class="cls-1" d="M83.33,172.32,81.22,172,79,166.31l-.45-1.48-.11,1.47-.57,4a1.61,1.61,0,0,0,0,.36,1.37,1.37,0,0,0,.05.25.48.48,0,0,0,.09.19l-.48.37-1.74-.25-.36-.48.14-.15.11-.21a1.54,1.54,0,0,0,.09-.37l1-7.33a1.56,1.56,0,0,0,0-.47c0-.12,0-.21,0-.28l-.09-.18.48-.36,1.45.2a.72.72,0,0,1,.38.19,1.41,1.41,0,0,1,.3.46l2,5.06.45,1.4.09-1.35.57-4.06a1.33,1.33,0,0,0,0-.34,2.14,2.14,0,0,0,0-.23,1.5,1.5,0,0,0-.09-.18l.48-.36,1.73.24.37.49a.56.56,0,0,0-.14.16,1.45,1.45,0,0,0-.12.22,2,2,0,0,0-.08.35Z" transform="translate(-3.42 -5.05)"/><path class="cls-1" d="M97,163.59c0-.09,0-.21,0-.36a.72.72,0,0,0-.23-.4l.4-.46,1.74-.1.46.4a.72.72,0,0,0-.12.21,2.38,2.38,0,0,0,0,.26.86.86,0,0,0,0,.32l.41,6.59a1.26,1.26,0,0,1-.2.68,3.56,3.56,0,0,1-.54.72,3.66,3.66,0,0,1-.75.6,1.88,1.88,0,0,1-.77.27l-2.57.16a2.24,2.24,0,0,1-1.08-.17,2.34,2.34,0,0,1-.85-.61,3.07,3.07,0,0,1-.57-1,4.15,4.15,0,0,1-.27-1.26l-.34-5.54c0-.09,0-.21,0-.36a.78.78,0,0,0-.23-.4l.4-.45,1.74-.11.45.4a.47.47,0,0,0-.11.21l-.06.26c0,.1,0,.2,0,.31l.34,5.36a3.16,3.16,0,0,0,.13.79,1,1,0,0,0,.31.47,1,1,0,0,0,.53.22,3.66,3.66,0,0,0,.76,0l1.23-.08a.46.46,0,0,0,.32-.11.6.6,0,0,0,.05-.33Z" transform="translate(-3.42 -5.05)"/><path class="cls-1" d="M111.18,170l-2.08.44-4-4.63-.93-1.23.4,1.41.85,4a1.25,1.25,0,0,0,.1.34.69.69,0,0,0,.13.21.78.78,0,0,0,.15.16l-.33.5-1.71.37-.51-.34a1.59,1.59,0,0,0,.08-.18,1.44,1.44,0,0,0,0-.24,1.32,1.32,0,0,0,0-.38l-1.53-7.24a1.41,1.41,0,0,0-.14-.45l-.12-.25-.15-.14.33-.5,1.44-.31a.75.75,0,0,1,.41,0,1.27,1.27,0,0,1,.44.33l3.6,4.07.91,1.18-.38-1.31-.85-4a1.08,1.08,0,0,0-.11-.32,1.11,1.11,0,0,0-.11-.2l-.15-.14.33-.51,1.71-.36.51.33a.84.84,0,0,0-.08.2,1,1,0,0,0,0,.25,1.56,1.56,0,0,0,0,.35Z" transform="translate(-3.42 -5.05)"/><path class="cls-1" d="M116.4,167.17a2.33,2.33,0,0,0,.16.33.78.78,0,0,0,.28.29l-.27.53-1.66.54-.54-.27a.66.66,0,0,0,.06-.44,2.44,2.44,0,0,0-.07-.32l-2.36-7.2a2.7,2.7,0,0,0-.13-.33.66.66,0,0,0-.33-.33l.27-.54,1.66-.55.55.28a.46.46,0,0,0-.06.23,2.44,2.44,0,0,0,0,.27,1.25,1.25,0,0,0,.07.31Z" transform="translate(-3.42 -5.05)"/><path class="cls-1" d="M122.1,166.22l-6-6.76a.7.7,0,0,0-.28-.22l-.23-.09a.49.49,0,0,0-.24,0l-.21-.69,2.29-1,.12.27.09.22a.56.56,0,0,0,.1.14l4.61,5.46-1-7.08a2.21,2.21,0,0,0-.13-.39l-.12-.28,2.28-1,.37.61a.55.55,0,0,0-.16.18.93.93,0,0,0-.09.24.8.8,0,0,0,0,.35l1,9Z" transform="translate(-3.42 -5.05)"/><path class="cls-1" d="M132.69,158.6a1,1,0,0,0,.32-.29,1,1,0,0,0,.15-.32.83.83,0,0,0,0-.35l.72-.43L135,159a2.31,2.31,0,0,1-.31.36c-.11.11-.25.24-.43.39s-.41.29-.68.46l-3.81,2.3-.8-.58a.44.44,0,0,0,.05-.27,1.4,1.4,0,0,0-.05-.37,2.2,2.2,0,0,0-.24-.5l-3.32-5.49a.87.87,0,0,0-.21-.25l-.26-.18a1.51,1.51,0,0,0-.29-.13l0-.73,4-2.4.59-.35a1.58,1.58,0,0,0,.49-.43l1.14.83a1.53,1.53,0,0,1-.17.51,2.36,2.36,0,0,1-.33.46,2.22,2.22,0,0,1-.59.47l-2.29,1.39,1,1.72,2.4-1.45.92,1.52-2.39,1.46,1.27,2.09Z" transform="translate(-3.42 -5.05)"/><path class="cls-1" d="M132.44,150.59a1.79,1.79,0,0,0-.3-.31l-.21-.15-.2-.06.08-.6,2.92-2.3a3,3,0,0,1,1-.52,2.61,2.61,0,0,1,1-.15,2.35,2.35,0,0,1,1,.26,2.81,2.81,0,0,1,.9.77l.57.73a3.2,3.2,0,0,1,.7,1.65,3.11,3.11,0,0,1-.28,1.58l1.85.89a1.49,1.49,0,0,0,.46.12,1.17,1.17,0,0,0,.38-.05,1.06,1.06,0,0,0,.33-.18l.57.73-.26.3c-.09.1-.2.21-.34.34s-.3.25-.47.39a1,1,0,0,1-.42.2,1.42,1.42,0,0,1-.46,0,2.73,2.73,0,0,1-.48-.1l-.45-.16-2.09-.92-.41.26a1.58,1.58,0,0,1-.36.17l1.32,1.67a2.09,2.09,0,0,0,.26.26.66.66,0,0,0,.37.17l-.07.6-1.38,1.08-.6-.07a.69.69,0,0,0-.09-.44l-.17-.27Zm3.88,1.5a1.79,1.79,0,0,0,.39-.16,3.28,3.28,0,0,0,.38-.27,1.57,1.57,0,0,0,.33-2.22l-.44-.56a.8.8,0,0,0-.66-.36,1.5,1.5,0,0,0-.82.38l-1.05.82Z" transform="translate(-3.42 -5.05)"/><path class="cls-1" d="M143.51,149.42l.75-.76a1.19,1.19,0,0,0,.31,0,1.5,1.5,0,0,0,.48-.08,2.67,2.67,0,0,0,.59-.26,2.73,2.73,0,0,0,.66-.52,4,4,0,0,0,.56-.66,1.62,1.62,0,0,0,.22-.48.51.51,0,0,0,0-.35,1.21,1.21,0,0,0-.2-.26l-.54-.54a.45.45,0,0,0-.26-.12.94.94,0,0,0-.39.07l-.66.25-1.05.4-.91.37a3.67,3.67,0,0,1-.87.28,1.92,1.92,0,0,1-.86,0,1.78,1.78,0,0,1-.84-.51l-.61-.61a2.51,2.51,0,0,1-.53-.75,1.46,1.46,0,0,1-.1-.86,3,3,0,0,1,.43-1,7.64,7.64,0,0,1,1.06-1.28,10.71,10.71,0,0,1,1.4-1.22,3.89,3.89,0,0,1,1-.57l1.41,1.4-.66.67a.7.7,0,0,0-.25-.06,1,1,0,0,0-.4.06,2.51,2.51,0,0,0-.52.26,4.06,4.06,0,0,0-.66.55,3.23,3.23,0,0,0-.63.83.49.49,0,0,0,.1.61l.25.25a1,1,0,0,0,.26.19.74.74,0,0,0,.39,0c.17,0,.42-.13.75-.26l1.36-.52c.46-.18.86-.31,1.18-.4a2.54,2.54,0,0,1,.86-.12,1.52,1.52,0,0,1,.72.22,3.26,3.26,0,0,1,.71.56l.77.76a1.5,1.5,0,0,1,.4.69,1.85,1.85,0,0,1,0,.88,3.31,3.31,0,0,1-.37,1,4.87,4.87,0,0,1-.8,1c-.5.5-.91.89-1.25,1.17a9.38,9.38,0,0,1-.86.63,3.81,3.81,0,0,1-.62.28l-.49.12Z" transform="translate(-3.42 -5.05)"/><path class="cls-1" d="M152.59,141.61a1.41,1.41,0,0,0,.32.19.57.57,0,0,0,.39.09l.06.61-1.11,1.35-.6.05a.71.71,0,0,0-.19-.4,2.7,2.7,0,0,0-.22-.23l-5.87-4.8a1.69,1.69,0,0,0-.29-.21.69.69,0,0,0-.45-.11l-.06-.6,1.11-1.35.6-.06a.53.53,0,0,0,.08.23,2.17,2.17,0,0,0,.15.22,1.52,1.52,0,0,0,.22.22Z" transform="translate(-3.42 -5.05)"/><path class="cls-1" d="M149.81,133.73l-.45.67a.84.84,0,0,0-.18.42.86.86,0,0,0,0,.36.88.88,0,0,0,.12.32l-.47.69L147.12,135a2.07,2.07,0,0,1,.11-.47,3.1,3.1,0,0,1,.25-.55,6.47,6.47,0,0,1,.46-.78l1.93-2.83a7.46,7.46,0,0,1,.54-.72c.17-.18.32-.33.43-.43a1.73,1.73,0,0,1,.39-.27l1.72,1.16-.48.7a.91.91,0,0,0-.33,0,1.31,1.31,0,0,0-.34.13,1.09,1.09,0,0,0-.33.32L151,132l5.71,3.89a1.27,1.27,0,0,0,.55.23h.21l.12.6-1,1.44-.6.12c0-.06,0-.12-.07-.19a1.5,1.5,0,0,0-.14-.19,2.08,2.08,0,0,0-.3-.25Z" transform="translate(-3.42 -5.05)"/><path class="cls-1" d="M155.74,121.25a1.5,1.5,0,0,0,0,.22,1.41,1.41,0,0,0,.25.55l3.09,4.67,2.26,1.18a1.07,1.07,0,0,0,.56.16h.22l.18.57-.81,1.55-.57.18-.09-.17-.17-.18a1.48,1.48,0,0,0-.32-.21L158,128.51l-5.39.15a1.28,1.28,0,0,0-.36,0,.75.75,0,0,0-.24.08l-.19.1-.58-.4,1.07-2.07.27.12.22.09a.35.35,0,0,0,.17.06h3.47l.58.06-.38-.44-2-2.84-.14-.1-.2-.13a1.81,1.81,0,0,0-.25-.16l1.08-2.07Z" transform="translate(-3.42 -5.05)"/><path class="cls-1" d="M36.8,45.13a3.06,3.06,0,0,1,.65.73,3,3,0,0,1,.36,1,1.83,1.83,0,0,1,0,.57,3.24,3.24,0,0,1-.19.55,3.19,3.19,0,0,1-.24.49,3.11,3.11,0,0,1-.22.33,4,4,0,0,0-.79-.11,5.62,5.62,0,0,0-.82,0,3.7,3.7,0,0,0-.8.18,2.47,2.47,0,0,0-.69.34L35,50a2.29,2.29,0,0,1,.15.51,2.39,2.39,0,0,1,0,.54,1.8,1.8,0,0,1-.17.62,2.29,2.29,0,0,1-.71.62,1.93,1.93,0,0,1-1.65,0,2.86,2.86,0,0,1-.81-.46,1.84,1.84,0,0,0-.22-.17,1.21,1.21,0,0,1-.19-.2c0-.14-.05-.3-.07-.47s0-.28,0-.45a2.25,2.25,0,0,1,.08-.52l-2.16-1.7a.87.87,0,0,0-.82-.2,1.41,1.41,0,0,0-.7.5.93.93,0,0,0-.12.19l-1.15-1.23q.24-.42.45-.72c.13-.2.26-.37.37-.52a3.13,3.13,0,0,1,.56-.58,1.28,1.28,0,0,1,.51-.22,1.84,1.84,0,0,1,.77,0,2.21,2.21,0,0,1,.83.43l2.87,2.25A8,8,0,0,1,34,47.5,5.71,5.71,0,0,1,35.45,47a.53.53,0,0,0-.1-.12l-3.85-3a2.56,2.56,0,0,0-.42-.28,1,1,0,0,0-.48-.11l-.16-1.61.58-.17a3.94,3.94,0,0,1,.6-.08,1.94,1.94,0,0,1,.59.06,1.43,1.43,0,0,1,.56.26Z" transform="translate(-3.42 -5.05)"/><path class="cls-1" d="M46.31,37.5a1.67,1.67,0,0,1,.35.63,1.26,1.26,0,0,1,.05.68l-1.07,1-.69,0a.85.85,0,0,0-.12-.45,3.39,3.39,0,0,0-.33-.42l-2.62-2.83a4.43,4.43,0,0,1-.38-.46c-.12-.18-.22-.35-.32-.51s-.22-.37-.32-.56a1.1,1.1,0,0,1,0,.31,1.94,1.94,0,0,1-.07.33c0,.11-.06.22-.09.31a1.9,1.9,0,0,1-.11.21,6.35,6.35,0,0,1,.85,1.35,15.43,15.43,0,0,1,.7,1.65,17.88,17.88,0,0,1,.54,1.76c.16.61.28,1.17.39,1.73l-2.21,2a4.67,4.67,0,0,1-1.48-.65,7,7,0,0,1-1.17-1,7.17,7.17,0,0,1-.59-.71q-.3-.39-.57-.78l-.51-.72a4.64,4.64,0,0,0-.42-.52.91.91,0,0,0-.64-.31,1.08,1.08,0,0,0-.83.37l-.07.08-.06.07-.06,0-1-1.41.55-.64c.17-.17.32-.33.46-.45A1.82,1.82,0,0,1,36,37a2.11,2.11,0,0,1,1.25.72,6,6,0,0,1,.57.72c.15.24.3.47.44.71s.3.48.47.73a6.1,6.1,0,0,0,.63.8l.35.33.44.38.47.35A2.92,2.92,0,0,0,41,42c0-.36-.12-.76-.2-1.21s-.21-.88-.34-1.32A11.31,11.31,0,0,0,40,38.17a4.73,4.73,0,0,0-.59-1,1.62,1.62,0,0,1-1.15.29,1.55,1.55,0,0,1-.93-.48,1.5,1.5,0,0,1-.39-1,1.67,1.67,0,0,1,.61-1.18,1.51,1.51,0,0,1,1-.47,1.55,1.55,0,0,1,.83.19.8.8,0,0,0,.11-.34,1.7,1.7,0,0,0,0-.39,1.35,1.35,0,0,0-.08-.36,1.26,1.26,0,0,0-.11-.25,2.11,2.11,0,0,1,.81-.51,2.05,2.05,0,0,1,.81-.1,1.91,1.91,0,0,1,.77.23,3.17,3.17,0,0,1,.69.53Z" transform="translate(-3.42 -5.05)"/><path class="cls-1" d="M52.23,33.33a1.58,1.58,0,0,1,.26.64,1.7,1.7,0,0,1,0,.71l-1.2.84-.7-.09a1.28,1.28,0,0,0-.27-.86L47.09,30a.2.2,0,0,0-.31-.05l-1.59,1.12a1.46,1.46,0,0,0-.64.76l-1.37-.2c0-.11,0-.22,0-.33s0-.19,0-.3,0-.21,0-.32a1.48,1.48,0,0,1,.21-.61,1.62,1.62,0,0,1,.43-.47l2.44-1.71a1.57,1.57,0,0,1,1.35-.28,2.18,2.18,0,0,1,1.19.91Z" transform="translate(-3.42 -5.05)"/><path class="cls-1" d="M58.43,29a1.8,1.8,0,0,1,.23,1.52,2.15,2.15,0,0,1-1,1.11l-.21.1-.23.1-.86.37-1-1.34.15-.06.14-.06a1.13,1.13,0,0,0,.54-.61,1,1,0,0,0-.12-.8l-2-3.63a.22.22,0,0,0-.32-.09L52,26.59a2.05,2.05,0,0,0-.42.29,2.31,2.31,0,0,0-.31.41l-1.33-.36a6.66,6.66,0,0,1,.16-.8,3.14,3.14,0,0,1,.27-.64,1.27,1.27,0,0,1,.5-.5l2.6-1.44a1.52,1.52,0,0,1,1.35-.13,2.2,2.2,0,0,1,1.1,1Z" transform="translate(-3.42 -5.05)"/><path class="cls-1" d="M54.56,21.87a10.21,10.21,0,0,0-1.72.37,11.66,11.66,0,0,0-1.74.69,12.9,12.9,0,0,0-1.59.91,10.43,10.43,0,0,0-1.34,1.06L47.31,24a1.59,1.59,0,0,1,.25-.5,5.76,5.76,0,0,1,.61-.75,9.58,9.58,0,0,1,1-.84,8.36,8.36,0,0,1,1.33-.8A9.84,9.84,0,0,1,52,20.44a10.79,10.79,0,0,1,1.19-.28,6.19,6.19,0,0,1,1-.05l.62,1.27Z" transform="translate(-3.42 -5.05)"/><path class="cls-1" d="M68.15,25.54a1.67,1.67,0,0,1,.11.69,1.18,1.18,0,0,1-.21.66l-1.36.54-.63-.26a.82.82,0,0,0,0-.49,4.15,4.15,0,0,0-.18-.53l-2-4.92c-.05-.13-.11-.18-.17-.16l-.09.08-1.79,2,1.68,4.21a1.42,1.42,0,0,1,.1.62,1.93,1.93,0,0,1-.15.64l-.05.09-1.36.55L61.48,29a1,1,0,0,0,0-.42,2.61,2.61,0,0,0-.16-.56l-1.83-4.58a1.28,1.28,0,0,0-.28-.43.85.85,0,0,0-.47-.21.87.87,0,0,0-.32,0l-.31.1-.1.05L58,23l-.08,0-.38-1.66.85-.44.28-.15.25-.12a1.84,1.84,0,0,1,1.27-.1,1.91,1.91,0,0,1,.89.66l1.89-2a1.73,1.73,0,0,1,.3-.25,2.59,2.59,0,0,1,.33-.17,2.17,2.17,0,0,1,.64-.14,1.26,1.26,0,0,1,.53.05,1.81,1.81,0,0,1,.66.42,2.28,2.28,0,0,1,.5.79Z" transform="translate(-3.42 -5.05)"/><path class="cls-1" d="M77.59,21.9A1.55,1.55,0,0,1,77.45,23a3.47,3.47,0,0,1-.74,1,4.88,4.88,0,0,1-1.08.76,4.46,4.46,0,0,1-1.11.45,5.66,5.66,0,0,1-1.31.15,4,4,0,0,1-1.3-.23,2.77,2.77,0,0,1-1.08-.67,2.53,2.53,0,0,1-.65-1.21,2.8,2.8,0,0,1-.05-1,1.86,1.86,0,0,1,.36-.91,1.61,1.61,0,0,1-.57-.08,1.77,1.77,0,0,1-.54-.29,2.15,2.15,0,0,1-.47-.52,2.29,2.29,0,0,1-.3-.73,2.32,2.32,0,0,1,0-1.08,2.55,2.55,0,0,1,.46-.95,3.33,3.33,0,0,1,.8-.74,3.54,3.54,0,0,1,1-.44l.8.92.12.47a1.78,1.78,0,0,0-.36.14,1.3,1.3,0,0,0-.31.26.87.87,0,0,0-.19.37,1,1,0,0,0,0,.5,1.27,1.27,0,0,0,.44.74,2.76,2.76,0,0,0,.71.39,3.34,3.34,0,0,0,.92.18l.14.56a.87.87,0,0,0-.33.17,1.1,1.1,0,0,0-.28.32,1.12,1.12,0,0,0-.17.44,1.17,1.17,0,0,0,0,.52,1.07,1.07,0,0,0,.68.86,1.92,1.92,0,0,0,1.09,0,2.92,2.92,0,0,0,.66-.24,2.32,2.32,0,0,0,.56-.39l-1.23-5.11a2.72,2.72,0,0,0-.15-.48.92.92,0,0,0-.31-.39l.87-1.37a5.55,5.55,0,0,1,.56.24,2.7,2.7,0,0,1,.52.3,1.91,1.91,0,0,1,.43.42,1.29,1.29,0,0,1,.27.55Z" transform="translate(-3.42 -5.05)"/><path class="cls-1" d="M85.05,22.11a1.63,1.63,0,0,1-.07.69,1.68,1.68,0,0,1-.37.6l-1.46.17-.56-.42a1.21,1.21,0,0,0,.16-.88l-.62-5.53a.19.19,0,0,0-.25-.18l-1.94.21a1.48,1.48,0,0,0-.92.37l-1.1-.83.17-.29a2.63,2.63,0,0,1,.16-.26l.17-.26a1.59,1.59,0,0,1,.5-.43,1.34,1.34,0,0,1,.59-.2l3-.34a1.55,1.55,0,0,1,1.32.4,2.19,2.19,0,0,1,.61,1.37Z" transform="translate(-3.42 -5.05)"/><path class="cls-1" d="M94.56,22a1.42,1.42,0,0,1-.2.7,1.63,1.63,0,0,1-.45.52l-1.43,0L92,22.7a1.08,1.08,0,0,0,.2-.33,1.51,1.51,0,0,0,.07-.53l0-2a1.79,1.79,0,0,0-.34-.17l-.46-.12a5.36,5.36,0,0,0-.65-.06,2.36,2.36,0,0,0-.58.07,1.24,1.24,0,0,0-.52.24,1.33,1.33,0,0,0-.41.44,1.38,1.38,0,0,0-.16.71,1.05,1.05,0,0,0,.09.52,1.1,1.1,0,0,0,.25.36,1,1,0,0,0,.32.22.84.84,0,0,0,.32.1l-.48.95-1,0a2.5,2.5,0,0,1-.63-.27,2.27,2.27,0,0,1-.54-.49,2.41,2.41,0,0,1-.39-.71,2.86,2.86,0,0,1-.13-.91,2.89,2.89,0,0,1,.33-1.37,2.6,2.6,0,0,1,.82-.92,3.19,3.19,0,0,1,1.16-.5,6,6,0,0,1,1.33-.14,8.6,8.6,0,0,1,.86.08,6.55,6.55,0,0,1,.82.2l0-1.81a.2.2,0,0,0-.22-.22L88.61,16a.85.85,0,0,0-.63.24l-1-1a3.27,3.27,0,0,1,.28-.35,3.78,3.78,0,0,1,.4-.4,2.41,2.41,0,0,1,.5-.33,1.29,1.29,0,0,1,.58-.13l4.22.07a1.55,1.55,0,0,1,1.24.57,2,2,0,0,1,.44,1.44Z" transform="translate(-3.42 -5.05)"/><path class="cls-1" d="M97.74,12.2a2.51,2.51,0,0,1-.42.32,3.82,3.82,0,0,1-.81.41,5.94,5.94,0,0,1-1.1.34,4.35,4.35,0,0,1-1.32.08l-1.74-.12a2.46,2.46,0,0,1-1.13-.31,1.91,1.91,0,0,1-.58-.59,1.67,1.67,0,0,1-.21-.63,3.54,3.54,0,0,1,0-.44v-.09l1.23-.8a1.43,1.43,0,0,0,.3.55.77.77,0,0,0,.55.29l2,.14a4,4,0,0,0,1.11,0,3.82,3.82,0,0,0,.82-.24,2.68,2.68,0,0,0,.68-.39Z" transform="translate(-3.42 -5.05)"/><path class="cls-1" d="M104.82,22.07a1.52,1.52,0,0,1-.53,1,3.41,3.41,0,0,1-1.06.64,4.87,4.87,0,0,1-1.29.31,4.72,4.72,0,0,1-1.19,0,4.91,4.91,0,0,1-1.27-.35A3.81,3.81,0,0,1,98.35,23a2.94,2.94,0,0,1-.75-1,2.44,2.44,0,0,1-.15-1.36,2.81,2.81,0,0,1,.32-.95,2,2,0,0,1,.67-.72,1.33,1.33,0,0,1-.49-.28,1.56,1.56,0,0,1-.4-.48,1.88,1.88,0,0,1-.25-.65,2.61,2.61,0,0,1,0-.79,2.3,2.3,0,0,1,.39-1,2.52,2.52,0,0,1,.78-.71,3.21,3.21,0,0,1,1-.38,3.3,3.3,0,0,1,1.13,0l.4,1.16-.07.47a1.27,1.27,0,0,0-.39,0,1.07,1.07,0,0,0-.38.13.88.88,0,0,0-.31.27,1,1,0,0,0-.18.47,1.28,1.28,0,0,0,.15.85,2.38,2.38,0,0,0,.51.62,3.21,3.21,0,0,0,.78.52l-.08.57a.94.94,0,0,0-.37,0,1.4,1.4,0,0,0-.38.2,1.23,1.23,0,0,0-.49.84,1.1,1.1,0,0,0,.32,1,1.8,1.8,0,0,0,1,.44,2.34,2.34,0,0,0,.7,0,2.43,2.43,0,0,0,.67-.15l.75-5.2a3.13,3.13,0,0,0,0-.5,1,1,0,0,0-.15-.48l1.32-.94c.15.13.29.27.44.42a3.34,3.34,0,0,1,.36.48,2.2,2.2,0,0,1,.25.54,1.76,1.76,0,0,1,0,.61Z" transform="translate(-3.42 -5.05)"/><path class="cls-1" d="M117.6,18.06l-.1.35a1.64,1.64,0,0,0-.6.47,3.19,3.19,0,0,0-.47,1l-1.75,5.85a3.68,3.68,0,0,0-.1.5,1.43,1.43,0,0,0,.1.5l-.66.3-1.5-.45a1.31,1.31,0,0,1-.3-.6,1.52,1.52,0,0,1,0-.76l1.55-5.2a3,3,0,0,0-.58-.82,2.1,2.1,0,0,0-.9-.51,1.65,1.65,0,0,0-1.31.12,1.78,1.78,0,0,0-.84,1.09,2,2,0,0,0-.08.67,1,1,0,0,0,.2.56,5,5,0,0,1,.67,0,3.75,3.75,0,0,1,.6.11,2.2,2.2,0,0,1,.41.18l0,1.1-.2.3a1.94,1.94,0,0,0-.5-.08,2.15,2.15,0,0,0-.55.08,2,2,0,0,0-.52.26,1.33,1.33,0,0,0-.41.49c-.12.2-.24.42-.37.63a4.71,4.71,0,0,1-.42.59,1.86,1.86,0,0,1-.52.39.85.85,0,0,1-.63,0l-1.48-.44.13-.43a.77.77,0,0,0,.48-.44c.11-.23.22-.49.34-.77a5.31,5.31,0,0,1,.44-.81,1.6,1.6,0,0,1,.77-.59,1.82,1.82,0,0,1-.47-.6,3,3,0,0,1-.22-.72,2.77,2.77,0,0,1,0-.76,3.69,3.69,0,0,1,.15-.75,2.8,2.8,0,0,1,.64-1.16,3.19,3.19,0,0,1,1-.74,3.81,3.81,0,0,1,1.28-.3,3.87,3.87,0,0,1,1.39.16,6.63,6.63,0,0,1,1.29.56,2.84,2.84,0,0,1,1,1,2.08,2.08,0,0,1,.48-.46,2.53,2.53,0,0,1,.47-.23,1.31,1.31,0,0,1,.46-.12Z" transform="translate(-3.42 -5.05)"/><path class="cls-1" d="M117.32,17.71a9.37,9.37,0,0,0-1.44-1,12.41,12.41,0,0,0-1.69-.79,11.83,11.83,0,0,0-1.76-.54,9.49,9.49,0,0,0-1.68-.25l.1-1.28a1.66,1.66,0,0,1,.54-.16,5.19,5.19,0,0,1,1-.07,7.6,7.6,0,0,1,1.27.13,7.82,7.82,0,0,1,1.51.42,10.24,10.24,0,0,1,1.51.71,10.53,10.53,0,0,1,1,.68,6.38,6.38,0,0,1,.74.71l-.51,1.32Z" transform="translate(-3.42 -5.05)"/><path class="cls-1" d="M123.43,29.85a1.5,1.5,0,0,1-.47.56,1.92,1.92,0,0,1-.63.3L121,30.1l-.27-.64a.92.92,0,0,0,.32-.22,1.76,1.76,0,0,0,.28-.45L122.2,27a1.39,1.39,0,0,0-.26-.29,2.46,2.46,0,0,0-.36-.3,3.43,3.43,0,0,0-.58-.32,2,2,0,0,0-.54-.17,1.47,1.47,0,0,0-.59,0,1.45,1.45,0,0,0-.54.24,1.43,1.43,0,0,0-.45.58,1.18,1.18,0,0,0-.12.52,1.37,1.37,0,0,0,.08.43,1.08,1.08,0,0,0,.2.33.87.87,0,0,0,.26.22l-.82.67-.89-.41a2.44,2.44,0,0,1-.46-.5,2.2,2.2,0,0,1-.3-.66,2.16,2.16,0,0,1-.06-.81,2.64,2.64,0,0,1,.24-.89,3,3,0,0,1,.86-1.12A2.69,2.69,0,0,1,119,24a3.2,3.2,0,0,1,1.27,0,5.88,5.88,0,0,1,1.27.41,6.31,6.31,0,0,1,.76.42,7.37,7.37,0,0,1,.65.51l.77-1.64a.19.19,0,0,0-.12-.29L120.41,22a.76.76,0,0,0-.67,0l-.52-1.29c.11-.07.24-.13.4-.21a4,4,0,0,1,.52-.2,2.35,2.35,0,0,1,.59-.1,1.18,1.18,0,0,1,.59.12L125.15,22a1.56,1.56,0,0,1,.91,1,2.1,2.1,0,0,1-.18,1.49Z" transform="translate(-3.42 -5.05)"/><path class="cls-1" d="M126.63,33.15a1.35,1.35,0,0,1-.52-.61,2,2,0,0,1-.21-.85,3.34,3.34,0,0,1,.13-1,3.87,3.87,0,0,1,.49-1.06,8.9,8.9,0,0,1,1.17-1.5A11.42,11.42,0,0,1,128.92,27a.61.61,0,0,0,.16-.16.5.5,0,0,0,0-.47,2.22,2.22,0,0,0-.23-.41,1.3,1.3,0,0,0-.3-.32l-.3-.21-.11-.07,1.13-1.27.62.31.36.19.21.12.12.06a2.06,2.06,0,0,1,.89,1,3,3,0,0,1,.08.35,1.24,1.24,0,0,1,0,.44,2.11,2.11,0,0,1-.12.55,2.55,2.55,0,0,1-.3.63,4.54,4.54,0,0,1-.73.85c-.3.28-.61.6-.94,1a7.62,7.62,0,0,0-.84,1.06,2.48,2.48,0,0,0-.37.84.5.5,0,0,0,.23.58l1.75,1.14a.39.39,0,0,0,.23.08c.05,0,.11-.06.17-.16L135.3,26a1.75,1.75,0,0,1,.45-.45,1.39,1.39,0,0,1,.58-.23l1.39.89.12.53a.81.81,0,0,0-.38.22,3.08,3.08,0,0,0-.34.45l-4.29,6.64a2.15,2.15,0,0,1-.74.73,2.64,2.64,0,0,1-.92.38,2.52,2.52,0,0,1-.94.06,1.89,1.89,0,0,1-.8-.27Z" transform="translate(-3.42 -5.05)"/><path class="cls-1" d="M137.7,39.8a1.48,1.48,0,0,1-.56.42,1.62,1.62,0,0,1-.69.15l-1.12-.94-.09-.7a1.2,1.2,0,0,0,.75-.49L139.56,34a.19.19,0,0,0,0-.31L138,32.42a1.46,1.46,0,0,0-.91-.42L137,30.63l.32-.08.29-.06.31,0a1.62,1.62,0,0,1,.66,0,1.59,1.59,0,0,1,.56.3l2.29,1.91a1.55,1.55,0,0,1,.61,1.22,2.18,2.18,0,0,1-.57,1.4Z" transform="translate(-3.42 -5.05)"/><path class="cls-1" d="M149.13,40.2a1.53,1.53,0,0,1,.46,1.29,2.13,2.13,0,0,1-.74,1.31l-4.26,4a1.43,1.43,0,0,1-.62.36,1.46,1.46,0,0,1-.68.06l-1-1.06v-.7a1,1,0,0,0,.44-.13,2.76,2.76,0,0,0,.43-.33l4.09-3.83s0-.08,0-.13l-1.76-1.88a.12.12,0,0,1-.06.1l-.1.1-4.1,3.85a1.55,1.55,0,0,1-.65.36,1.73,1.73,0,0,1-.66.06l-1-1.07v-.7a1.41,1.41,0,0,0,.89-.48l3.67-3.44a2,2,0,0,0,.44-.62,1.43,1.43,0,0,0,.14-.72l.35-.05a2.61,2.61,0,0,1,.56,0,2.49,2.49,0,0,1,.63.12,1.29,1.29,0,0,1,.56.36Z" transform="translate(-3.42 -5.05)"/><path class="cls-1" d="M154.65,48.6l-.43,0a4.87,4.87,0,0,1-.52-.12,2.53,2.53,0,0,1-.53-.24,1.72,1.72,0,0,1-.43-.37l-.47-.66c-.08.29-.16.6-.27.93a8.08,8.08,0,0,1-.37,1,7.59,7.59,0,0,1-.51.93,4.18,4.18,0,0,1-.67.78l-.23.2-.23.18a4,4,0,0,1-1.2.63,2.63,2.63,0,0,1-1.1.09,2.19,2.19,0,0,1-.95-.35,3.14,3.14,0,0,1-.77-.73,2.49,2.49,0,0,1-.37-.7,3.73,3.73,0,0,1-.14-.66,5.3,5.3,0,0,1,0-.69l1.49-.32.39.55a.47.47,0,0,0,.06.43.51.51,0,0,0,.58.22,2.17,2.17,0,0,0,.65-.31,5.71,5.71,0,0,0,.83-.82,3.93,3.93,0,0,0,.69-1.32,6.85,6.85,0,0,0,.26-1.09,7.29,7.29,0,0,0,.12-.92,6.16,6.16,0,0,0,0-.86l.32-.23,1.58,0,1.77,2.39a3.17,3.17,0,0,0,.34.39.8.8,0,0,0,.44.22Z" transform="translate(-3.42 -5.05)"/><path class="cls-1" d="M16.64,88.12a1.87,1.87,0,0,1-.67.2,1.79,1.79,0,0,1-1.49-2.95,1.74,1.74,0,0,1,1.22-.61h.14a1.79,1.79,0,0,1,1.77,1.65,1.72,1.72,0,0,1-.43,1.3,1.62,1.62,0,0,1-.45.37l-.09.05" transform="translate(-3.42 -5.05)"/><path class="cls-1" d="M14.43,82.42c.27-1.08,1.06-1.68,2.12-3,.29.77.55,1.2.74,1.72a5.85,5.85,0,0,1,.53,1.61,1.7,1.7,0,0,1-.52,1.43,2.91,2.91,0,0,0-1.68-.39,3.81,3.81,0,0,0-.89.21,1.77,1.77,0,0,1-.3-1.54" transform="translate(-3.42 -5.05)"/><path class="cls-1" d="M14.48,89a4,4,0,0,0,.88.31,2.94,2.94,0,0,0,1.7-.26,1.69,1.69,0,0,1,.41,1.47,6,6,0,0,1-.65,1.57c-.23.49-.53.9-.87,1.65-1-1.44-1.7-2.1-1.88-3.2A1.84,1.84,0,0,1,14.48,89" transform="translate(-3.42 -5.05)"/><path class="cls-1" d="M11.88,87.67A5.9,5.9,0,0,1,9.47,86a5.92,5.92,0,0,1,2.64-1.26A2.24,2.24,0,0,1,13.5,85a3.12,3.12,0,0,0-.44,1.85,2.89,2.89,0,0,0,.2.88,2.26,2.26,0,0,1-1.38,0" transform="translate(-3.42 -5.05)"/><path class="cls-1" d="M19.57,88.22a2.34,2.34,0,0,1-1.35-.2,3,3,0,0,0,.42-1.74,2.88,2.88,0,0,0-.26-.91,2.3,2.3,0,0,1,1.41,0A5.8,5.8,0,0,1,22.15,87a5.83,5.83,0,0,1-2.58,1.25" transform="translate(-3.42 -5.05)"/><path class="cls-1" d="M164.77,88.07a1.83,1.83,0,0,1-.46-.37,1.76,1.76,0,0,1-.43-1.3,1.8,1.8,0,0,1,1.78-1.65h.14a1.79,1.79,0,0,1,1.21.62,1.83,1.83,0,0,1,.43,1.3,1.78,1.78,0,0,1-1.91,1.64,1.72,1.72,0,0,1-.68-.19.28.28,0,0,1-.08-.05" transform="translate(-3.42 -5.05)"/><path class="cls-1" d="M166.75,84a3.63,3.63,0,0,0-.88-.21,2.86,2.86,0,0,0-1.67.39,1.65,1.65,0,0,1-.52-1.43,5.5,5.5,0,0,1,.52-1.61c.19-.52.46-.95.74-1.72,1.06,1.36,1.85,2,2.12,3a1.77,1.77,0,0,1-.31,1.54" transform="translate(-3.42 -5.05)"/><path class="cls-1" d="M167.43,90.54c-.19,1.1-.93,1.76-1.88,3.2-.35-.75-.64-1.16-.87-1.65a5.72,5.72,0,0,1-.66-1.57,1.69,1.69,0,0,1,.42-1.47,2.9,2.9,0,0,0,1.7.26A4.15,4.15,0,0,0,167,89a1.84,1.84,0,0,1,.42,1.54" transform="translate(-3.42 -5.05)"/><path class="cls-1" d="M168.23,87.69a2.89,2.89,0,0,0,.2-.88A3.12,3.12,0,0,0,168,85a2.26,2.26,0,0,1,1.4-.21A5.93,5.93,0,0,1,172,86a5.9,5.9,0,0,1-2.41,1.66,2.26,2.26,0,0,1-1.38,0" transform="translate(-3.42 -5.05)"/><path class="cls-1" d="M159.34,87a5.8,5.8,0,0,1,2.36-1.61,2.29,2.29,0,0,1,1.41,0,2.63,2.63,0,0,0-.25.91,3,3,0,0,0,.42,1.74,2.38,2.38,0,0,1-1.36.2A5.83,5.83,0,0,1,159.34,87" transform="translate(-3.42 -5.05)"/><path class="cls-1" d="M82.18,92.52c.22-.12-.41-.49-.71-.52,0,0-.46.11-.51.47s1,.17,1.22,0" transform="translate(-3.42 -5.05)"/><path class="cls-1" d="M130.18,71.44c.29.17.6.26.72-.17a1.32,1.32,0,0,0-.12-.89.64.64,0,0,0-.86.08.85.85,0,0,0,.26,1" transform="translate(-3.42 -5.05)"/><path class="cls-1" d="M113.06,126.91a7,7,0,0,1-1.35.69,12.29,12.29,0,0,1-1.21.33c-.51.11-.56.46.09.74a3.19,3.19,0,0,0,2.23-.46c.79-.56.65-1.58.24-1.3" transform="translate(-3.42 -5.05)"/><path class="cls-1" d="M132.52,74c.59.34.76-.42,1.06-.76s-.09-.73-.26-1.15-.55-.3-.85-.42-.12-.43-.42-.17a3.19,3.19,0,0,0-.59.89l-.09.47c-.08.47.56.8,1.15,1.14m-.27-1.81c.14-.15.4,0,.42.27s.17.46-.23.35c-.22-.06-.58-.19-.19-.62" transform="translate(-3.42 -5.05)"/><path class="cls-1" d="M89.75,64.38c.42,0,.79-.14,1.38-.18a3.21,3.21,0,0,1,1.53.14c.5.18.45,0,.55-.21a.49.49,0,0,0-.23-.6,1.55,1.55,0,0,0-.85-.21c-.51,0-1.46.13-1.83.09a1.28,1.28,0,0,0-1,.28c-.41.42.06.74.47.69" transform="translate(-3.42 -5.05)"/><path class="cls-1" d="M90.67,78.28c-.46.27-.23.46.37.46.38,0,1.3-.12,1.62-.09.59,0,.64-.37.64-.37A1.74,1.74,0,0,0,92.15,78c-1.15,0-1.48.32-1.48.32" transform="translate(-3.42 -5.05)"/><path class="cls-1" d="M92.06,88.93c-.42.28-.14.64.13.6s.52-.14.6-.33-.53-.41-.73-.27" transform="translate(-3.42 -5.05)"/><path class="cls-1" d="M92.16,84.91c-.74,0-.88.31-.88.31s0,.42.78.47.88-.41.88-.41,0-.37-.78-.37" transform="translate(-3.42 -5.05)"/><path class="cls-1" d="M96.62,66.16c.36,0,.65.13.51,0a4.73,4.73,0,0,1-.78-1.23c0-.22.19-.24.47-.24s1-.3.55-.49a3.49,3.49,0,0,0-1.5-.16.8.8,0,0,0-.31,1.25c.47.5.78.89,1.06.92" transform="translate(-3.42 -5.05)"/><path class="cls-1" d="M82,78c0-.13.24-.32.12-.4s-.42.07-.42.07a.42.42,0,0,0-.11.51c.17.19.4,0,.41-.18" transform="translate(-3.42 -5.05)"/><path class="cls-1" d="M91.5,74.87c.46-.05,1.29,0,1.25-.19s-.41-.5-1.2-.45-1.29.24-1.38.45.87.23,1.33.19" transform="translate(-3.42 -5.05)"/><path class="cls-1" d="M92.15,66.26a1.8,1.8,0,0,1,1.1.17c.61.23.79.09.7,0a2.15,2.15,0,0,0-1.06-1,10.13,10.13,0,0,0-2.35,0c-1,0-1.2.6-1.57,1,0,0,0,.37.51.32s.55-.41.83-.41a13,13,0,0,0,1.84,0" transform="translate(-3.42 -5.05)"/><path class="cls-1" d="M90.9,82.89s0,.32.38.41a6.06,6.06,0,0,0,1.47,0,.52.52,0,0,0,.41-.32,1.65,1.65,0,0,0-1.08-.4,1.67,1.67,0,0,0-1.18.35" transform="translate(-3.42 -5.05)"/><path class="cls-1" d="M91.87,76.67c.47,0,1.11.18,1.34,0s-.65-.65-1.52-.6a2.22,2.22,0,0,0-1.34.46s-.14.18.14.28.92-.19,1.38-.14" transform="translate(-3.42 -5.05)"/><path class="cls-1" d="M84.82,64.17c-.32.17-.2.38.21.61s.74-.09.88.28.19,1,.52,1.14.27.1.45-.55a1.71,1.71,0,0,0-.41-1.4c-.47-.41-1.5-.15-1.65-.08" transform="translate(-3.42 -5.05)"/><path class="cls-1" d="M91.87,90.77c-.28.28-.24.55.19.55a.69.69,0,0,0,.6-.27c.13-.18-.49-.57-.79-.28" transform="translate(-3.42 -5.05)"/><path class="cls-1" d="M92.75,87.36s-.23-.41-.56-.37-.5.1-.55.23c-.09.28,0,.51.55.56a.49.49,0,0,0,.56-.42" transform="translate(-3.42 -5.05)"/><path class="cls-1" d="M91.41,92.71c-.09.18,0,.41.33.41s.6-.09.55-.36a.5.5,0,0,0-.88-.05" transform="translate(-3.42 -5.05)"/><path class="cls-1" d="M91.83,80.82c1,0,1.31,0,1.11-.42s-1.63-.45-2.08,0,.34.44,1,.42" transform="translate(-3.42 -5.05)"/><path class="cls-1" d="M147.66,101.14a6.44,6.44,0,0,0-2.08-7.52A7.77,7.77,0,0,0,141.7,92a4.48,4.48,0,0,1-2-.7,1.27,1.27,0,0,1-.53-1.08,1.18,1.18,0,0,1,.39-.78,2.41,2.41,0,0,0,2.34.59,2,2,0,0,0,1.28-1.69,2.93,2.93,0,0,0-1.14-2.77c-2.29-1.74-5.74-1.3-8,1A5.27,5.27,0,0,0,132.69,92a4.57,4.57,0,0,0-3,4.7,5.55,5.55,0,0,0,2.66,4.58,4.41,4.41,0,0,0,4.06.4,3.45,3.45,0,0,0,1.86-1.9,3.44,3.44,0,0,1,1.65,3,2.63,2.63,0,0,1-1.35,2.46,4.58,4.58,0,0,0-2.74-2,6.4,6.4,0,0,0-4.2.5l-.09-.16a11,11,0,0,0-7.07-4.28,27.71,27.71,0,0,0-9.41.87,48.82,48.82,0,0,0-6.31,2.18,21.54,21.54,0,0,1-3.17.7,5.64,5.64,0,0,0-1.52-1.9,14,14,0,0,0,0-3.07,9.73,9.73,0,0,1,.37-2.55,27.51,27.51,0,0,0,.26-2.87,6.12,6.12,0,0,0,1.91-2.58l.52.1a2.09,2.09,0,0,0,2.15,2.11,2.15,2.15,0,0,0,2.49,1.48c1.58,1.76,6.07,4,8.48,3.84.93,0,2.11-.46,4.5-3.18,2.76-3.14,3.8-9.13,3.8-9.13,1.06-.55.87-2.5.87-2.5.86-.24.7-1.71.7-1.71a4.57,4.57,0,0,1,2.76-.89c1.31-.16,2.9.47,4,.33a5.12,5.12,0,0,0,2.83-1.77c.42-.6.28-1.25.56-1.76s.57-.63.71-1a1.75,1.75,0,0,0,.14-.5,8,8,0,0,0,.84-1.42c.26-.72.52-1,.05-1.7s-1.46-.58-1.46-.58a4.23,4.23,0,0,0-.65-2.83c-.51-.56-.83-1-2.95-1.14a42.18,42.18,0,0,0-4.25,0,4.62,4.62,0,0,0-1.75.4h-.84a1.78,1.78,0,0,0-1.66,1.62c-.17,1.15.18,1.91,0,2.46a5.39,5.39,0,0,1-.3.9,7.5,7.5,0,0,0-1.32.7,8.39,8.39,0,0,0-2.27,2.09,2.54,2.54,0,0,0-1-1.62,3,3,0,0,0-.37-1.14,6.7,6.7,0,0,0,1-3.73,32.4,32.4,0,0,0-2.23-7.11c-.84-1.67-2-1.67-2-1.67a3.9,3.9,0,0,0-.08-1.62c.94-.43.79-2.56.79-2.56,1-.84.84-3.16.84-3.16,1-2.41-.81-3.35-.81-3.35a2.83,2.83,0,0,0-.33-1.8,13,13,0,0,0-.35-1.62,2.12,2.12,0,0,0-1.85-1.54c-1.2-.09-1.57.6-1.28,1.18a13,13,0,0,1,.65,1.54A1.92,1.92,0,0,0,115.84,49c-2.51.18-2.09,2.92-2.09,2.92-1.53.93-.47,3.49-.47,3.49a2.41,2.41,0,0,0,.42,2.41c-.23,2,.7,2.6.7,2.6l-.23.6c-1.49-.27-1.82,1.07-1.31,2.09s1.26,5.16,1.91,7.76a12.73,12.73,0,0,0,1.44,3.76,2.84,2.84,0,0,0,0,2.46,1.91,1.91,0,0,0,0,1.84,2.7,2.7,0,0,0-.41,1.11,2.24,2.24,0,0,0-1.83-.63c-.46-.56-3.13-3.21-3.13-3.21l-.3-.34a16.42,16.42,0,0,0,1-10.7C110.29,60,108.93,56,92.16,33.23c-.41-.56-.79-1-1.2-1h-.35c-.39,0-.77.44-1.15,1C73.68,56,72.4,60,71.21,65.11c-1.39,6,.37,9.17.37,9.17a34.4,34.4,0,0,0-5.23,2.92,2.55,2.55,0,0,0-2.53,1.24,2.22,2.22,0,0,0-1.34.42L62.23,78A2.3,2.3,0,0,0,62.31,76a2.93,2.93,0,0,0,0-1.21c.16-.2.38-.55.38-.55a6.59,6.59,0,0,0,1.14,1.42,1.09,1.09,0,0,0,1.36.06,4.36,4.36,0,0,0,1-1.4,3,3,0,0,0,1-1.29,3.47,3.47,0,0,0-.12-2.1,1.72,1.72,0,0,0,.39-1,8.13,8.13,0,0,0-.32-2.11,2.08,2.08,0,0,0,.2-1.67,5.2,5.2,0,0,0,.7-1.37,2.72,2.72,0,0,0-.58-2.41.91.91,0,0,0-1.17,0l0-1.75a2.68,2.68,0,0,0,.7-.91,2,2,0,0,0,.12-1.15c.43-.24,1.1-1.23,1-1.62s-.33-.79-.09-1,.69,0,.89,0,1-.36,1-3a6.2,6.2,0,0,0-2.4-4.79c-.62-.5-.82-.22-.71.25a6.16,6.16,0,0,1,.59,2.24,2.4,2.4,0,0,1-.74,2.29,45.68,45.68,0,0,0-.77-4.59s-.13-.75-.25-1.29c-.18-.83-.62-1.1-.79-1.1s-.42.15-.75.83a7.18,7.18,0,0,0-.36,1.56c-.37,1.17-.92,4.21-.92,4.21-1-.77-.56-3.17-.32-3.78s0-.93-.3-.73a4.68,4.68,0,0,0-2,2,5.54,5.54,0,0,0-.15,5.33c.49.68.82.12,1.07.54s0,.33,0,.84a3.65,3.65,0,0,0,.46,1.54c.16.23-1.2,2.06-1.28,2.8a10.19,10.19,0,0,1-.28,2c-.29.78-1.47,2.77-2.72,5.26a20.41,20.41,0,0,0-1.6,4.1c-1.21.23-.94,2.33-.94,2.33a2.63,2.63,0,0,0-.3,2.53,24.07,24.07,0,0,0-.21,11.14A32.06,32.06,0,0,0,52,100.31a3.25,3.25,0,0,0-.61,3,2.32,2.32,0,0,0,1,2.56,4.17,4.17,0,0,0,2.55,2.55c1.35.56,3.72.05,5.16-.42a27.83,27.83,0,0,0,5.34-2c1.44-.88,1.49-1.67,2-2a3.65,3.65,0,0,0,1.43-2,3.33,3.33,0,0,0-.74-1.83s.91-2.88.17-4.5-1.72-1.67-2-1.34-.11.66-.3,1.5a3.45,3.45,0,0,1-1.11,1.57C64,96.45,62,97.21,62,97.21a18.72,18.72,0,0,0,1.88-5.1,13.71,13.71,0,0,0,3.52-1.65,2.62,2.62,0,0,0,2.16-.79c.65.23,1.78-.79,1.78-.79A15.16,15.16,0,0,0,73,94.17a17.68,17.68,0,0,1,1.72,3.34,2.7,2.7,0,0,1-.43,1.63,2.6,2.6,0,0,0-1.9,1.49,2.77,2.77,0,0,0-.14,2.31,2.88,2.88,0,0,0-.83,1.89,2.11,2.11,0,0,0,.83,1.84,1.15,1.15,0,0,0-.28.88,10.89,10.89,0,0,0-5.2,1.67,2.8,2.8,0,0,0-1.85-.79,3.55,3.55,0,0,0-2.78,1,6.68,6.68,0,0,0-3.94-.24,6.84,6.84,0,0,0-4,2.82s-.78-.74-.75-1.27a2.63,2.63,0,0,0-.58-2.39c-.82-1-2.28-.78-3.16-1s-.91-1.26-1.23-2a1.6,1.6,0,0,0-1-.83,4.1,4.1,0,0,1-.69,2.12.48.48,0,0,0-.12,0,2.54,2.54,0,0,1-2.07-.79,3.37,3.37,0,0,1-.76-2.67,3.45,3.45,0,0,1,1-2.26,3.33,3.33,0,0,0,2.63.84A3.56,3.56,0,0,0,50,100.48a8.07,8.07,0,0,0,1.61-5.75,5,5,0,0,0-2.62-4,9.12,9.12,0,0,0-.7-4.09,6.78,6.78,0,0,0-3-2.88,5.46,5.46,0,0,1-1.11-.82,1.41,1.41,0,0,1-.36-1.23,2,2,0,0,0,1.61.28,2.49,2.49,0,0,0,1.9-2.51A3,3,0,0,0,45.68,77c-.8-.44-2.48-1-4.83.43a6,6,0,0,0-2.66,6A6.87,6.87,0,0,0,36.64,92a4.39,4.39,0,0,0,1,1.17,11.16,11.16,0,0,0-2.31,2.32,12.36,12.36,0,0,0-2,8,7.44,7.44,0,0,0,1.75,3.82,7.36,7.36,0,0,0,.47,5.77,6.11,6.11,0,0,0,4.15,3.12,11.59,11.59,0,0,0,6.56,12.74,9.34,9.34,0,0,0,8,.11l.41.47a7.75,7.75,0,0,0,.78,8.29,6.9,6.9,0,0,0,4.72,3.12s.6,2.34,4,3.72a5.7,5.7,0,0,0,5.25-.31A10.92,10.92,0,0,0,72.85,148a10.62,10.62,0,0,0,6.34,1.86,1.55,1.55,0,0,0,1.22.78,2.66,2.66,0,0,0,1.39-.42,4.71,4.71,0,0,0,2.23-.75s1.08.38,3.44-.45a7.07,7.07,0,0,0,4.34-4.28,9.83,9.83,0,0,0,6.4,4.62,7.89,7.89,0,0,0,6.88-1.16,9.81,9.81,0,0,0,7.13-.17,7.54,7.54,0,0,0,4.68-4.93,8.17,8.17,0,0,0,3.11.19,9.66,9.66,0,0,0,8.07-5.65,8.27,8.27,0,0,0,0-7.54s3.2,1.05,7.79-.85c5-2.07,4.77-6.21,4.77-6.21,4.57-1.28,5.47-8.2,3.22-11.23a6.82,6.82,0,0,0,5.1-5.1,6.42,6.42,0,0,0-1.35-5.61m-8.65,5a3.65,3.65,0,0,0,1.94-3.4,4.43,4.43,0,0,0-2.48-4.09v-.25a3.36,3.36,0,0,0-.2-.9A4.38,4.38,0,0,1,142,100a6.44,6.44,0,0,1,0,6.09,3.8,3.8,0,0,1-2.76,1.64,5.36,5.36,0,0,0-.18-1.5m-5.48,10.69c-.74-2-3.22-2.32-3.22-2.32a11.59,11.59,0,0,0,1.91-2.37c2.63,0,4.07,1.49,4.24,3.28a3.37,3.37,0,0,1-1.67,3.48c-.55.25-.6.35-.75,1a2.67,2.67,0,0,1-2,2.17c-1.36.36-2.52-.3-2.42-1.16.07-.55.51-.35.51-.35s.3.46,1.41.35c1.51-.13,2.82-1.91,2-4.13m-4.15-3a24.2,24.2,0,0,1-3.46,2.49,3.14,3.14,0,0,1-.61-1.23s2-1.47,3.71-2.88a10,10,0,0,0,2.9-3.51,6.8,6.8,0,0,1-2.54,5.13m1.13-9.91a3.71,3.71,0,0,1,1.08,3.2c-.15,1.11-1.51,2.81-2.77,3.87s-4.07,3.2-4.07,3.2c-.3-.45-1.25-1.65-1.25-1.65a45.81,45.81,0,0,0,4.94-4.44,5.34,5.34,0,0,0,1.72-3.93c0-.43-.21-.91.35-.25m-11.62,24.23a6.22,6.22,0,0,0,.37-1.43,2.71,2.71,0,0,0,1.48-.07c.3.2.16,1.56-.52,1.74a1.84,1.84,0,0,1-1.33-.24m.68,1.63c-.11.55-.47,1-1.15.86a1.3,1.3,0,0,1-.88-.77l.86-.84,1.11.42s.11,0,.06.33m1-4.18c-.6.28-1.67,0-2.13.23s0,.55-.46,2-4.23,3.3-5.72,3.34-4.41-2-5.48-2.55-3.51-.55-5.29-1.35c-2.18-1-1.9-2.32-1.66-3,.48-1.42,2-2.57,2.51-2.55.37,0,.53.67.82.71.56.1,1.07-.41,1.62-.18a21.68,21.68,0,0,0,2.75.6,55.61,55.61,0,0,0,5.75.33,33.52,33.52,0,0,1,3.48.18,11.63,11.63,0,0,0,3.35.09c.78-.18,1.25-.27,1.4.28a2.06,2.06,0,0,1-.94,1.91m-4,6.65c-.64,0-1.19-.71-1.11-.93l1.22-.68s.45.42.77.74c.14.14,0,.83-.88.87m5.51.8c-.27-.4-.48-.24-.51-.45s.5-.4,1-.11a2,2,0,0,1,.88,2.05,4.4,4.4,0,0,1-4.81,3.84,6.56,6.56,0,0,1-3.59-1.13l.1-.61a6.93,6.93,0,0,0,4.42.86c2.3-.41,3.52-2.9,2.49-4.45m-29.92,4.1s-1.48-.93-1.61-2.13.62-1.24.62-1.24l1,.19a1.89,1.89,0,0,1,.08,1.16,4.12,4.12,0,0,0-.11,2m-2.87-4.84a5.36,5.36,0,0,0-.21-1.51,10.15,10.15,0,0,0,4.36.94l.31,1.42a12.9,12.9,0,0,1-4.46-.85m-23,4.13c.44.43,1.18.47.73-.43s.53-1,.53-1a6.86,6.86,0,0,1,3.33,1.53,3.08,3.08,0,0,1-3.37,2.88c-2.85-.06-3.84-2.94-3.84-2.94a3,3,0,0,1-2.14-.82,5.16,5.16,0,0,1-1.31-2.9,40.4,40.4,0,0,0,6.12,1.81,1.47,1.47,0,0,0,0,1.86m13-37.89A5.19,5.19,0,0,1,79,92.78a3.58,3.58,0,0,1,3.82-1.21c.88.32,1.54,1.3,1.45,1.57s-.42.44-1,.54-.86.31-1.23.26-.88-.24-1.21-.24-.42.67-.23.81.14.6.18.73.28.33.32.51.19.6-.5.6c-.38,0-.27.78.55.65s1.15-.24,1.47.13-.13.55-.45.65a6.18,6.18,0,0,0-.75.28s-.09.41.84.36a3.38,3.38,0,0,0,1.1-.32,7.18,7.18,0,0,1,.54.79c.14.29-.65.62-1.27.69,0,0,0,.4.58.47a3.54,3.54,0,0,0,1.16-.25,2.93,2.93,0,0,1,.51,1.23,3.33,3.33,0,0,1-1,.22c-.53,0-.31.39,0,.58a3.88,3.88,0,0,0,1.16.25,2.65,2.65,0,0,1-.22,1.16.41.41,0,0,1-.49.16c-.18,0-.55,0-.65.14a.62.62,0,0,0,.14.64l.57.18s-.47.94-1,1c-.28.05-.47-.22-.79-.09-.12,0-.06.25-.12.59,0,.17-.41.33-1.12.44a4.36,4.36,0,0,1-1.31,0,1.07,1.07,0,0,1-.81-.61s2.07-.6,2.39-2.26c.3-1.5-.66-2.89-2.39-4.84m9-15.73a7.05,7.05,0,0,1-1.38-.4c-.23-.22-.1-1-.1-1a8.56,8.56,0,0,1,1.34.46c.08.38.14.91.14.91m-5.42-7.18a7.72,7.72,0,0,0-1.7-.28c-.18,0-1,.29-1,.21-.18-.23-.44-.35-.82-.81a8.47,8.47,0,0,1-.87-1.63c-.35-.66-1-.8-1.5-1A3.69,3.69,0,0,1,75.6,70.6c-.17-.46-.45-.91-.73-.56s-.28.52-.59.45-.22-.69-.22-.69,0-.49,0-1.08.11-3.07.63-3.63a1.84,1.84,0,0,1,1.81-.71c.66,0,1.36,0,1.95.06a5.52,5.52,0,0,1,1.74.28c.17.08.28.68.28.68A6.31,6.31,0,0,0,81,67a1.33,1.33,0,0,1-.78.11A9,9,0,0,1,78,65.79a1.68,1.68,0,0,0-1.14-.52,2.42,2.42,0,0,1-.85-.12c-.17-.06-.49,0-.32.36s.64.35,1,.46a7.24,7.24,0,0,1,1.56,1,6.3,6.3,0,0,0,1.78,1,2.69,2.69,0,0,0,1.11-.07,1.59,1.59,0,0,1,.11,1,7,7,0,0,0-1.15.21,1.12,1.12,0,0,0-.84.76c0,.14.38.63.56.6s.21-.42.56-.56a1.77,1.77,0,0,1,.94-.07c.17,0,.15.22.18.57s.2,1,.17,1.15-.64.06-.58.51.58.15.8.32a2.13,2.13,0,0,1,.57.9,14.67,14.67,0,0,1,.66,1.42c.11.31.32,1.3.36,1.43a1.85,1.85,0,0,0-.7-.48m.49,2.22a2.5,2.5,0,0,1-.64.57c-.28.21-.59.37-.93.61a1,1,0,0,1-.84.18c-.4-.06-.48-.38-.52-.66-.05-.45,0-.35-.29-.66A.7.7,0,0,1,80,77a1.27,1.27,0,0,1,.57-.63,2.79,2.79,0,0,1,2.29.22c.46.45.6,1,.46,1.25m9.75-32.74s-.08.65-.49.69a22.46,22.46,0,0,1-3.48,0c-.39,0-.46-.69-.46-.69Zm-4.22-.77,1.94-3.23,2.06,3.23ZM108,68c-.08-.46-.39-.06-.49.49a13.54,13.54,0,0,1-1.21,2.57,5.62,5.62,0,0,0-.6,1.81c0,.38-.24.42-.66.54a4.72,4.72,0,0,0-1.24.83s-.23.38-.46.44a1.43,1.43,0,0,1-.71,0,5.41,5.41,0,0,0-1,0,3,3,0,0,0-1.36.44c-.39.22-.44-.14-.16-.79s.81-1.4.86-1.73a1.29,1.29,0,0,1,.34-.6,3.41,3.41,0,0,1,1-.22c.22,0,.44-.16.22-.32a1.55,1.55,0,0,0-1.15-.22l.11-1.32a1.57,1.57,0,0,1,1-.22c.6.06.82.11.77-.21s-.71-.61-1-.55l-.77.11s.06-.61.06-.93,1-.28,1.31-.6a8.52,8.52,0,0,0,.88-1c.38-.49.7-.82,1.41-.71a1.5,1.5,0,0,0,1.43-.33c.22-.27-.16-.11-.71-.21a9.33,9.33,0,0,0-1.7-.17c-.27,0-1,.71-1.25,1.15a1.26,1.26,0,0,1-1.43.65,1,1,0,0,1,.07-.82c.22-.49.64-1.14.86-1.52s1.46-.59,2.46-.59a3.31,3.31,0,0,1,3.66,2.72c.12.54.12,1.74.17,2.24s.23,1.43,0,1.54a9.16,9.16,0,0,1-1,.2c-.22.06.21-.57.26-1.19A6.13,6.13,0,0,0,108,68M97.13,87l.29-.06a1.12,1.12,0,0,1-1.32,1c-.74-.08-1.14-.6-1.18-1.52,0-.65.41-.42.41-.42a1.74,1.74,0,0,0,1.8,1m-1.29-1.69s.09-2.09.23-3.89L97.55,81s.3,2.24.4,3.39c.07.92-.18,1.82-.82,2s-1.29-1-1.29-1m-.19,3.58c2.4.18,2.91-1.76,3.09-3.69a27.7,27.7,0,0,0-.37-4.83l.22-.36-.09-.75a1.79,1.79,0,0,0,.78-.57,6.4,6.4,0,0,1,.55-.63c.47.45.79.72.79.72C99.7,89.2,97.19,94.2,93.68,97.31a21.06,21.06,0,0,1-7.57,4,7.59,7.59,0,0,0-.62-1.85,34.57,34.57,0,0,0,3.93-1.67,9.46,9.46,0,0,0,3.48-2.57,4.21,4.21,0,0,0,2-2.52,25.29,25.29,0,0,0,.74-3.73m4.55-11.8a5,5,0,0,1,0-.86,2.63,2.63,0,0,1,1-.66,3.91,3.91,0,0,1,1.6-.07,1,1,0,0,1,.44.75c.06.41.19,1.31,0,1.5a1.35,1.35,0,0,1-1,.54,1.53,1.53,0,0,1-1.26-.47c-.27-.27-.69-.52-.75-.73m1.88-13.79a6.74,6.74,0,0,0-.63-2.41s.17-.87.76-1a15.91,15.91,0,0,1,2.35-.15l-1.22,3.46a10.59,10.59,0,0,1-1.26.12m0-4.32a7.89,7.89,0,0,0-3.39-2.16,16.28,16.28,0,0,0-4.36-1,19.83,19.83,0,0,0-1.47-1.8,28.77,28.77,0,0,1,6.83,1.73c3.42,1.45,4.5,3.13,4.5,3.13Zm-7.38-2.31s4.14.15,6.57,2.6c0,0-.32.54-.46.84a10.29,10.29,0,0,0-6.06-2.34,3.32,3.32,0,0,0,0-1.1m-3.92-6.17a10.52,10.52,0,0,1,2,1.29A1.31,1.31,0,0,1,93,53.27a19.78,19.78,0,0,0-2.21-.13h-.07a17.27,17.27,0,0,0-2.07.13,1.41,1.41,0,0,1,.27-1.44,10.48,10.48,0,0,1,1.82-1.29m0,3.4a7.28,7.28,0,0,1,2.14,1.78,2.62,2.62,0,0,1,.68,2.16s-2.6.53-2.79.65h-.07c-.17-.12-2.62-.65-2.62-.65a2.71,2.71,0,0,1,.63-2.16,6.93,6.93,0,0,1,2-1.78M94,52.29a9.18,9.18,0,0,1,3.2.81,2.36,2.36,0,0,0-.38.85s-1.47-.3-2.91-.56a5.06,5.06,0,0,0,.09-1.1m6.43,2.07a1,1,0,0,1-.41.68s-1.21-.51-2.33-.84c0,0,.08-1.06,1.62-1.87,0,0,1.21,1.51,1.12,2M98,52.16s-1-.37-2-.63a11.34,11.34,0,0,0-2.11-4.27,14.6,14.6,0,0,1,5,4.27,3.28,3.28,0,0,0-.86.63m-3.15-.8a12.67,12.67,0,0,0-1.33-.15,8.14,8.14,0,0,0-2.13-1.45s-.14-2.36-.13-2.92c0-.26,1.08-.16,1.49.26a8.93,8.93,0,0,1,2.1,4.26M88.94,47.1c.38-.42,1.41-.52,1.41-.26a20.9,20.9,0,0,1-.13,2.92,8.11,8.11,0,0,0-2,1.45,10.26,10.26,0,0,0-1.23.15,9.06,9.06,0,0,1,2-4.26m-1.17,6.29C86.42,53.65,85,54,85,54a1.91,1.91,0,0,0-.38-.88,8,8,0,0,1,3-.78,5.06,5.06,0,0,0,.09,1.1m-1.86-1.86c-.93.26-1.9.63-1.9.63a3.19,3.19,0,0,0-.81-.63,13.89,13.89,0,0,1,4.69-4.27,11.7,11.7,0,0,0-2,4.27M84.22,54.2A23.2,23.2,0,0,0,82,55a.94.94,0,0,1-.38-.68c-.09-.52,1.06-2,1.06-2a2.67,2.67,0,0,1,1.52,1.87M82.4,55.8a25.68,25.68,0,0,1,6.43-1.73,19,19,0,0,0-1.44,1.8,13.55,13.55,0,0,0-4,.94A7.59,7.59,0,0,0,80.16,59l-2-.09s1-1.68,4.23-3.13m4.62,2a9.29,9.29,0,0,0-5.68,2.36c-.12-.3-.42-.84-.42-.84,2.28-2.45,6.13-2.62,6.13-2.62a4.07,4.07,0,0,0,0,1.1m-7,2.12c.56.15.69,1.06.69,1.06-.47.8-.38,2.61-.5,2.61s-1.13-.17-1.13-.17l-1.27-3.65a14.05,14.05,0,0,1,2.21.15m8.71,34.91a6.54,6.54,0,0,0,2.35.64,12.76,12.76,0,0,1-3.35,2A23.25,23.25,0,0,1,85,98.52a18,18,0,0,0-1-1.5c3.09-1.35,4.78-2.2,4.78-2.2M80.83,107.3c2.19,0,4.52-1.45,5.24-4.75,0,0,8.7-2.09,12-8.92a6.56,6.56,0,0,0,2.72.33,6.42,6.42,0,0,0,2.82-.59,12.27,12.27,0,0,1-.35,2.72,2.3,2.3,0,0,0-.59-.61c-.48-.32-.66,0-.28.89a9.86,9.86,0,0,1-5.09,12.13,4,4,0,0,0-2-1.09c-1.37-.33-4.1-.71-6.12,1.32a6.33,6.33,0,0,1-1.37.71A3.88,3.88,0,0,0,86,110a3.43,3.43,0,0,1-1,.45c-.87.12-5.94-.34-8.28-3l-.39-.55,1.8-.55s.55.93,2.63.93m8.85,19.59a14.4,14.4,0,0,1-3.52-1.39,18.28,18.28,0,0,0,3.47-8,12.52,12.52,0,0,0-.56-7.12c-.14-.41.32-.65.59-.54s1.3,1.33,1.36,4.61a46.75,46.75,0,0,1-.89,7.45c-.38,2.19-.72,3.85-.45,5m-10-16.28a13.61,13.61,0,0,0,5.91,1,3.79,3.79,0,0,1,0,2.3,18.34,18.34,0,0,1-8.08-1.86c-3.28-1.75-5.1-4-4-5h1.76s.74,2.11,4.47,3.53m6.75.74c0-.47.54-.33.54-.33a12.22,12.22,0,0,1-1.44,8.55,13.77,13.77,0,0,1-6.93,5.93l-2.46-1.31-.67-1.12a17.38,17.38,0,0,0,7.56-3.54,9.06,9.06,0,0,0,3.4-8.18M74.84,122.29s-2.22-1-3.63-1.64c-.75-.36-3-3.23-5.86-4.82a12.08,12.08,0,0,0-5.68-1.47,8,8,0,0,1,2.79-1.21,13.54,13.54,0,0,1,6.5,2.9c2.68,2.08,4.92,4.9,7.44,5.83Zm-20.33-4.93s-.18-.1-.65-.31a6.76,6.76,0,0,0,1.86-1.76,7.16,7.16,0,0,1,1.34-1.45c.65-.52,2.1-1.39,2.84-.73a22.63,22.63,0,0,0-5.39,4.25m4.56-2.06a12,12,0,0,1,9.4,4,14.45,14.45,0,0,0-4-.38A8.28,8.28,0,0,0,56,117.31a6.35,6.35,0,0,1,3.12-2m2,5c-.17-.28-.58,0-.74.49a2.41,2.41,0,0,0,.38,2.48c1.25,1.7,8.45,3.75,8.56,4a10.08,10.08,0,0,1,0,1.75s-7.48-2.25-9.45-3.73-1.37-4-.67-5.13a10.53,10.53,0,0,1,1.7-2.08,5.47,5.47,0,0,1,1,.32,3,3,0,0,0-.64.69c-.18.26.28.57.69.21a6.12,6.12,0,0,1,.76-.53l.71.47s-1.1.49-1.21,1.25.1,1.45,2.17,2.07c2.3.68,4.41,1.34,4.41,1.34a11.14,11.14,0,0,1,.37,2.22,49.52,49.52,0,0,1-6.29-2.34c-1.64-.94-1.89-1.48-1.92-2.24s.29-1,.12-1.26m6.69,2.35c-.41-.13-3.55-1-4.18-1.28s-.52-1.2.32-1.34a5.85,5.85,0,0,1,3.05.22c.89.42,1,1.09,1.3,1.81s.19.79-.49.59m-8-4.65a10.63,10.63,0,0,0-1.8,2.68,4.41,4.41,0,0,0,1.83,5.7,56.52,56.52,0,0,0,9.38,3.7s-.06,1.58-.33,1.53c-3.71-.72-9.75-2.58-11.65-4.67-1.66-1.82-2-5.33.83-8.84a3.24,3.24,0,0,1,1.74-.1m10.83,16.95-1.69-.68s1.36-1.78,1.36-6.16a15.15,15.15,0,0,0-1.82-7.63,26.18,26.18,0,0,1,3,1.34s1.41,2,1.3,7.16a10.68,10.68,0,0,1-2.12,6m3.06-5.36a16,16,0,0,0-1.09-7.16,5.14,5.14,0,0,1,2.18,1.37c.66.87,1.27,3.08.77,6.94-.54,4.23-2.65,6.31-2.78,6.06a4.76,4.76,0,0,0-1.34-1.26,10.2,10.2,0,0,0,2.26-5.95m2.72-4.38,2,1.32s1.45,1.45.77,4.63-2.7,3.69-2.7,3.69l-.86-.34a15.94,15.94,0,0,0,.75-9.3m3.41,7.11a8.29,8.29,0,0,0,.05-5.09,1.78,1.78,0,0,1,1.26,1.42,7.64,7.64,0,0,1-.14,3.5c-.49,2.46-2,3.51-2.71,3.67a1,1,0,0,1-1.09-.38,5.13,5.13,0,0,0,2.63-3.12m1.47,1.92a8.91,8.91,0,0,0,.55-5.86c.87,0,1.08,1.46,1.08,1.46a7.42,7.42,0,0,1-.1,3c-.46,2.26-1.63,3.72-2.9,4.15-1,.36-1.2-.32-1.2-.32a4.25,4.25,0,0,0,2.57-2.46m1.53-6.84a2.1,2.1,0,0,0-1.52-.22,2.8,2.8,0,0,0-1.48-.89A14.57,14.57,0,0,0,86.4,120a13.2,13.2,0,0,0,1.39-9.18.27.27,0,0,1,.51-.14c.11.28,1.39,3.37-.09,8.4a16.67,16.67,0,0,1-5.47,8.26m2.67-.88a31.51,31.51,0,0,0,4.65,1.68A7.28,7.28,0,0,0,93,129.83l.23,1a9.4,9.4,0,0,1-4.56-1.35,13.86,13.86,0,0,0-4.75-1.37,21.46,21.46,0,0,0,1.52-1.65m8.06,2.44c-2.57-.55-3-2.71-2.63-4.73s1.64-8.85,1-11.93c-.49-2.46-1.46-3-1.46-3a4.9,4.9,0,0,1,4.79-.8c1.22.43,1.79,1.27,1.84,3.18s-.32,10.36.55,12.79a5.77,5.77,0,0,0,2.07,2.94c-1.38,1.64-3.61,2.11-6.18,1.57m9.28,3.65a4.56,4.56,0,0,1-3.86-3,9.75,9.75,0,0,0,1.75-1.25,16.33,16.33,0,0,0,3.61,1s-1.76.62-1.5,3.27M98,129.92l.42.9a7.28,7.28,0,0,1-4,.43l-.18-1.11a9.78,9.78,0,0,0,3.79-.22m.92,1.72,1,.89c-2,1.62-5,.83-5,.83L94.57,132a7.8,7.8,0,0,0,4.35-.39m1.06,3.05a3.43,3.43,0,0,0,1.48,1.35,4.61,4.61,0,0,1-2.13.13c-1.29-.37-1.5-1-1.5-1.81l1.1-.34a1.45,1.45,0,0,1,1,.67m-3.08-.25a2.16,2.16,0,0,0,1.15,2.11,5.27,5.27,0,0,0,4.15.24c.75-.25,1.51-.94.63-1s-1.63-1-2.07-1.56a1.88,1.88,0,0,0-.86-.69l.74-.5c2.8,1.46,4.49.34,6,.28a2.22,2.22,0,0,1,2.07,1,4,4,0,0,0-2.37,2,7.09,7.09,0,0,1-5.88,4c-2.55.19-3-1-3-1,1.18-.87-.06-1.24-.06-1.24-1.52-.47-2.32-3.88-2.32-3.88a7.88,7.88,0,0,0,1.82.15m10.88,1.79s.52-.93,1.24-.51c.31.17.26.78.87,1.13a1.77,1.77,0,0,1-2.11-.62m2.56,1.55a1.91,1.91,0,0,1-1.76,2.12,2.84,2.84,0,0,1-2.7-.87,11.33,11.33,0,0,0,1.35-1.83s1.75,1.41,3.11.58m-10.76,3.76a9.75,9.75,0,0,0,5.25-1.56,4.7,4.7,0,0,0,4.12,1,3,3,0,0,0,2.44-3.5.61.61,0,0,0-.06-.75,6.35,6.35,0,0,1-1-1.12c-.25-.4-.29-1.14-.53-1.5-1.77-2.64-4.14-1.58-5.71-1.51,0,0-.46-.8.39-2a1.56,1.56,0,0,1,1.8-.71,12,12,0,0,1,2.3,1.2c1.46.88,2.6,1.49,3.73,1.44a2.91,2.91,0,0,0,1.69,1.94,9.58,9.58,0,0,1-1.12,5.37c-1.44,2.19-3.74,4.06-7.5,2.69-.49-.18-.68-.4-1.12-.07a5.87,5.87,0,0,1-4.44,1.32,4.92,4.92,0,0,1-4.15-3.54l.65-.27a3.89,3.89,0,0,0,3.25,1.62m13.91-9.33s.91-.27,1-.27a5.18,5.18,0,0,1,.79.82c.17.23-.22.75-1,.52a1,1,0,0,1-.8-1.07m-2.44-14.5a7.37,7.37,0,0,1,3.82,3.58.5.5,0,0,1-.46.67,8,8,0,0,1-.85,0,6.47,6.47,0,0,0-2.81-3.1,10.17,10.17,0,0,0-4.92-1.35,1.89,1.89,0,0,1,.88-.8,8.5,8.5,0,0,1,4.34,1m-3.18-2,.95-1.09a11.49,11.49,0,0,1,7.56.87,6.19,6.19,0,0,1,2.53,3l-3.18,2.17a10.55,10.55,0,0,0-7.86-4.9m2.29,3.85a4.23,4.23,0,0,1,2.07,2.37l-1.64,0a5.1,5.1,0,0,0-3.33-2.33,9,9,0,0,0-2.91-.29c.18-.6,1.05-.83,1.05-.83a8.85,8.85,0,0,1,4.76,1.12m-5.52.69a7.6,7.6,0,0,1,3.41.7,2.35,2.35,0,0,1,1.24,1s-.88,0-2.09-.19a6.19,6.19,0,0,1-1.9-.5,1.58,1.58,0,0,0-1.25,0c-.24,0-.75,0-.56-.56,0,0,.11-.35,1.15-.48m15.84,2.11a10.4,10.4,0,0,1-2.37,0c-.74,0-2.23-.21-2.23-.21a.86.86,0,0,0,.21-.54c.2-.2.49-.34.91-.66.94-.69,2.42-1.52,2.42-1.52a4,4,0,0,0,2.46,1.82l-.14.77a7.64,7.64,0,0,0-1.26.34m1.82,2.81a4.91,4.91,0,0,0,.41,1.22,6.15,6.15,0,0,1-.81.23l-.12-.64a2.73,2.73,0,0,0,.52-.81m-.07-5c-2.72-.86-1.55-3.14-4.73-5.31s-8-1.4-8-1.4l1-1.29a10.24,10.24,0,0,1,4.63.07c2.52.51,5.1,2,6,4.14A7.48,7.48,0,0,0,123,118.9Zm-4.81-8.33a15,15,0,0,0-6-.73l1.15-1.44c4.28-.1,6.9.66,9.22,2.72,2.11,1.89,2.07,3,3.23,4.44a11.69,11.69,0,0,0-1.21,1.19c-1.69-1-.9-4.31-6.34-6.18m-1.77-3.16c-.5,0-2.11-.07-2.11-.07a7.85,7.85,0,0,1,2.33-2,6.39,6.39,0,0,1,2.7-1.07,9.62,9.62,0,0,0-2.92,3.14m3.32-2.59c.36-.3,1-.9,1.61-.85.86.07.66.55.55.8s-2.77,3.18-2.77,3.18l-1.71-.4a13.89,13.89,0,0,1,2.32-2.73m9.67-3.83c.76.81.81,3.13-.9,5.1a40.86,40.86,0,0,1-4.94,4.38l-1.11-.91c1.71-2.17,4.5-4,4.74-6,.35-3-3.18-3.93-3.18-3.93,1.82-1.21,4.64.61,5.39,1.41m-3.17,1.77c0,1.41-1.21,2.52-2.62,4-.63.68-2,2.06-2,2.06l-1.46-.55s3-3.13,3.23-4.33-.56-1.16-.56-1.16.11.4-.2.45a5,5,0,0,1-1.31-.2,3.35,3.35,0,0,0-1.16.05h-.72a5.31,5.31,0,0,1,1-1.14,5.68,5.68,0,0,1,2,0c.37.07.43-.81-.87-.92a5.65,5.65,0,0,1,1.26-.83c.61-.26,3.48.9,3.43,2.52m-7.18-3.45a8.52,8.52,0,0,1,3.78-.41,9.47,9.47,0,0,0-4.41,4.43,10.72,10.72,0,0,0-2.47,1.19c.1-.73.87-4.42,3.1-5.21m-1.56.15a9.66,9.66,0,0,0-2.65,5.87,15.18,15.18,0,0,0-2.27,2.37,16.3,16.3,0,0,1,2.11-7.29,20.44,20.44,0,0,1,2.81-1m-7.49,3.56a1.8,1.8,0,0,1,.84-1.35,25.57,25.57,0,0,1,2.72-1.1,16,16,0,0,0-1.14,2.68,24.6,24.6,0,0,0-.93,5.37c-.14.56-4.24,5.55-4.24,5.55a3.09,3.09,0,0,0-1.85,1.89,2.36,2.36,0,0,0-1.42,1.68,2.28,2.28,0,0,0-1.24,1.45,5.23,5.23,0,0,0-3.28,3.29c-.79-1.21-.56-6.84-.56-6.84a9.15,9.15,0,0,0,2.52-1,5.16,5.16,0,0,0,2.22-2.72,4.84,4.84,0,0,0,3-1.44,5.9,5.9,0,0,0,1.39-3.53c.93-.51,1.68-2.09,2-4m-3.25-.09,2.23-.56a6.45,6.45,0,0,1-.42,2c-.65,1.67-1.53,2-1.53,2a6.55,6.55,0,0,1-1.11,3.21,4.49,4.49,0,0,1-2.92,1.49c-.92,2.83-4.14,3.46-4.14,3.46l0-2.74a12.29,12.29,0,0,0,5.26-3.47c2.56-3.25,2.6-5.34,2.6-5.34m-1.11-.14a7.68,7.68,0,0,1-2.46,5,10.46,10.46,0,0,1-4.32,2.75,11.43,11.43,0,0,0-.19-2.13,8.38,8.38,0,0,0,3.53-2.66,12.72,12.72,0,0,0,2.42-4.46s1,.74,1,1.53m4.3-12.78c-1.27-.21-1.33-1.66-.85-2.88a12.9,12.9,0,0,1,1.44-2.72,3.94,3.94,0,0,0,1.35.31,5.12,5.12,0,0,0-1.06,1.73,9.11,9.11,0,0,0-.88,3.56M111.52,84a7.44,7.44,0,0,0,2.17.17A1.68,1.68,0,0,1,115.34,86c-.16,1.19-1,1.23-1,1.23a2.48,2.48,0,0,0-.43-1.61A2.28,2.28,0,0,0,112,85c-.59,0-1.87.09-2.08-.76a2,2,0,0,1,1.27-2.35s-.68,1.72.3,2.09m-.1,8.7c-1.75-.09-1.2-2.48-.74-3.93a8.05,8.05,0,0,1,1.48-2.56.76.76,0,0,1,.94.13,1.05,1.05,0,0,1,.12,1,4.57,4.57,0,0,0-1.13,1.87,11.14,11.14,0,0,0-.67,3.47m14.64-2.58c-1.14,2.7-4.09,6.37-6.08,6.3-3.53-.13-7.4-3.49-7.4-3.49a7.4,7.4,0,0,1,1.27-4.73,1.78,1.78,0,0,0,2.05-.93,3.33,3.33,0,0,0,.25-2.29,3.41,3.41,0,0,1,1.11-.93l.51.41a8.82,8.82,0,0,0-1.06,3.9c0,.77.8.79.8.36A12.39,12.39,0,0,1,119,84.47a15.77,15.77,0,0,1,2.8-3.41A7.06,7.06,0,0,0,124,83.51a8,8,0,0,0,3.36,1.62,19.75,19.75,0,0,1-1.28,5m-4-17c.39.18.35.81.35.81a5.4,5.4,0,0,1-1.66-.17c-.43-.21-.56-1-.56-1a9.89,9.89,0,0,1,1.87.38m-2.72-1.61c-.34-.34.1-1,.1-1,.71-.07,1.21.54,1.66.95a.59.59,0,0,1,.2.63,5.77,5.77,0,0,1-2-.55M121,76.41a7.53,7.53,0,0,1-3.36.22.85.85,0,0,1-.47-1.07,7.55,7.55,0,0,0,3.4.22,1.89,1.89,0,0,0,.43.63m.29.81h.27c0,.42.26.64.19.69a6.6,6.6,0,0,1-4.29.54c-.54-.15-.25-1-.25-1a7.24,7.24,0,0,0,4.08-.18m.81,1.54.13.16a3.23,3.23,0,0,0-.68,1.11,15.63,15.63,0,0,0-3.27,3.53L118,83.3a2,2,0,0,0-1.32-2,3.55,3.55,0,0,1,.42-1.87,7.09,7.09,0,0,0,5-.63m6,5.36c-.78.28-2.07-.18-3.26-1.11s-2.25-2.17-2.12-2.86a1.84,1.84,0,0,1,.59-1.1,5,5,0,0,0,2,2.72,5.32,5.32,0,0,0,3.23,1.3s0,.88-.44,1.05M140,74c.3-.43.22-.85.56-.94s.58.33.49.59a3.09,3.09,0,0,1-.38,1,3.12,3.12,0,0,1-.59.54l-.67-.35s.29-.38.59-.8m-5-5.06c.34,0,2.13.26,2.3.26s.2.39,0,.47a4.45,4.45,0,0,1-1.26.1,1.84,1.84,0,0,1-.87-.11,4.26,4.26,0,0,1-.75-.59,1.79,1.79,0,0,1,.63-.13m-5.69,2.21c0-.68-.08-1,.21-1.27s.69-.17,1.19,0a7,7,0,0,0,1.66.25,12,12,0,0,1,1.78.07c.25.09.39.31.43.74s1,1.32,1.45,1.44,1.2.11,1-.11a12.53,12.53,0,0,1-1-.83c-.17-.21-.58-.82-.32-.78a10.1,10.1,0,0,0,1.65,0c.25,0,.27-.25.6-.34a3.75,3.75,0,0,1,1.19-.08c.3,0,.21.55.21,1a5.57,5.57,0,0,1-.42,2.25,3.52,3.52,0,0,1-2.76,2.21,15.46,15.46,0,0,1-4.89-.3c-.81-.25-1.45-.21-1.7-.42a1.53,1.53,0,0,1-.54-1.28,6.42,6.42,0,0,1,.41-1.28c.08-.39-.13-.66-.17-1.31m7.82,5.65-.34.47-.72.09-.54-.39Zm-11.46-.09c.15-1,1.9-2,2.53-2.2a2.34,2.34,0,0,0,.52,1.15,4.38,4.38,0,0,0-.64.89c0,.21.34.64.93.38a4,4,0,0,1,2.51-.51,7.89,7.89,0,0,1,4.11,1.86,4.06,4.06,0,0,1,1.67-.12s.3-.34.51-.55c0,0,.21-1.87,1.32-1.83a.32.32,0,0,1,.13.47,5.54,5.54,0,0,0-.35,1.62c0,.51-1,1.27-1.44,1.53a3.1,3.1,0,0,1-2.33,0,8.67,8.67,0,0,0-3.38,0c-1.14.26-1.94.74-2.24.78a2.76,2.76,0,0,1-2-.29c-.77-.51-2.07-1.84-1.86-3.2m-1.08,1a5.71,5.71,0,0,0,1.83,2.59,3.47,3.47,0,0,0,2.58.88s0,.91-.63.91a4.9,4.9,0,0,1-2.8-1.15,5.55,5.55,0,0,1-1.66-2.43s.21-.66.68-.8m-.77-.63a3,3,0,0,0-.91,1c-.38-.21-.6-1.28-.6-1.28a4.13,4.13,0,0,1,1.44,0c.18,0,.27.13.07.27m-.5-1.75a6.75,6.75,0,0,1,.33.68,6.62,6.62,0,0,1-1.87-.17c-.38-.22-.42-.9-.42-.9.47,0,1.74,0,2,.39M120.49,62a5.55,5.55,0,0,1,1.4,2.56,21.39,21.39,0,0,1,1.43,5.59,4,4,0,0,1-.78,2.24,3.73,3.73,0,0,0-.22-.82A6.52,6.52,0,0,0,120.85,70a8.36,8.36,0,0,0-1.47-.65l-.93.12a2.85,2.85,0,0,0,.16.6c.09.13-.29,1.11-.8,1.15s-.73-1.15-.84-1.52c-.16-.58-.14-.91.08-1.07s.93-.68,1-1-.76-.34-.76-.34a4.06,4.06,0,0,1-1,.59c-.46.17-.63-.41-.58-.7s.12-1,.38-1.15,1.43-.61,1.61-.78a.37.37,0,0,0-.22-.6c-.29,0-1.36.27-1.57.19s.07-.61.24-1a1,1,0,0,1,.78-.59,3.12,3.12,0,0,0,.94-.26c.21-.12.11-.69.11-.69l-.51-.06a8.62,8.62,0,0,0-1.47.33s0-.89.46-1.11a2.37,2.37,0,0,1,1.62,0c.5.17,1.91.13,2.38.55M115,60a1.37,1.37,0,0,1-.47-1.41,4.38,4.38,0,0,0,1.27.39,3.72,3.72,0,0,0,.18,1.32,3.27,3.27,0,0,1-1-.3m.7,1.08a1.39,1.39,0,0,0-.26.57,3.14,3.14,0,0,0-.51-.45l.15-.37Zm3.52-1.55c0-.23.07-.15.1-.11a2.72,2.72,0,0,1,0,1.14c-.13.15-.13,0-.13,0a3,3,0,0,0,0-1m-.14-1a5.07,5.07,0,0,0,.21-2.08l.57.35a6.15,6.15,0,0,1-.06,1,.77.77,0,0,1-.72.77m.29-5.36-1-.64a1.31,1.31,0,0,1-.14-.58,2.32,2.32,0,0,1,.12-1l.21-.22,1.14.69a1.73,1.73,0,0,1,.1.93c0,.73-.38.85-.38.85m-.34.6a1.42,1.42,0,0,1,.08,1.23,1.85,1.85,0,0,1-.34.77l-1.15-.88.09-.78s.09-.72.43-.81c.15,0,.76.34.89.47m-.47,3.14c.13.6,0,1.53-.29,1.45a3.19,3.19,0,0,1-1.3-1,1.41,1.41,0,0,1,0-.95c.09-.38.32-.86.56-.61s.91.47,1,1.06m-1.4,1.79a7.24,7.24,0,0,1,1.15.61c.13.26.12,1.16,0,1.21a2,2,0,0,1-1.23-.06c-.33-.15-.47-.78-.49-1.12-.07-.86.6-.64.6-.64m3.53-7.44s.3,0,.47.81A3.32,3.32,0,0,1,121,53l-.51-.38a4.19,4.19,0,0,0-.08-1.15Zm-.42,2.38.46.25s0,.71-.08,1.07a2.13,2.13,0,0,1-.48.89l-.51-.28s.27-1.12.31-1.55Zm-.5-4.84a2.57,2.57,0,0,1,.15.52,2.66,2.66,0,0,1-.08,1.12,4.9,4.9,0,0,1-1.2-.62c-.21-.26-.14-1.34-.14-1.34Zm-1.38-2.87c.26,0,.38.08.61.38a6.55,6.55,0,0,1,.55,1.56l-1.06-.27c-.18-.05-.25-.49-.48-1a3,3,0,0,1-.18-.42.51.51,0,0,1,.56-.3m-1.8,3.48c.21-.59,1.14-.79,1.13-.53a3.19,3.19,0,0,0,.17,1.19,1.38,1.38,0,0,0-.41,1.11s-.56.19-.64.11a2.19,2.19,0,0,1-.25-1.88m.25,2.77.56-.11.1.64a3.75,3.75,0,0,0-.58,2.18c-.31.12-.53,1-.53,1a6.15,6.15,0,0,0-.25-1.78,5.43,5.43,0,0,0,.7-1.89m-2-1.64a.76.76,0,0,1,.72-.39c0,.69.43,1.32.43,1.83a3.61,3.61,0,0,1-.47,1.32l-1.06-1.36a3.2,3.2,0,0,1,.38-1.4m-.81,2.38a8.76,8.76,0,0,1,1.23,1.49,4.31,4.31,0,0,1,.22,1.4s-1.2-.3-1.41-.68-.85-1.62,0-2.21M114,56l1.75.82a3,3,0,0,0,.26,1,.67.67,0,0,1-.48.15,1.47,1.47,0,0,1-1.15-.6A2.2,2.2,0,0,1,114,56m.72,10.79s-.08-.51-.25-1.16c-.21-.85-.27-1.18-.48-2a3.78,3.78,0,0,0-.59-1.27s.34-.88,1-.32a4.85,4.85,0,0,1,1,1.25,4.53,4.53,0,0,0-.49,1.93,3.67,3.67,0,0,1-.19,1.55m1.11,4.8c-.3-.89-.9-3.35-.9-3.35A3.09,3.09,0,0,0,116,69.44c.51,2.26,1.06,2.64,1.61,2.72a3.25,3.25,0,0,0,1,0l.68.38a2.8,2.8,0,0,0,1,2l-.09.22a5.61,5.61,0,0,1-3.1-.29,11,11,0,0,1-1.31-2.91m0,10.59c.46-.12,1.23.43,1,1l-1.06.85a2.76,2.76,0,0,0-1.32-.55s.94-1.19,1.41-1.32m-1.11-1.69c.76.21.59.82.59.82a7.86,7.86,0,0,0-2,1.81c-1.91.76-1.36-.8-1.36-.8a8.37,8.37,0,0,1,1.62-1.54,1.4,1.4,0,0,1,1.1-.29m-1.64-.57a9.89,9.89,0,0,0-1.28,1.2,2.15,2.15,0,0,0-1.56.4,3.1,3.1,0,0,0-1.19,3.45A9.24,9.24,0,0,0,107.23,89l-.34-.09a41.37,41.37,0,0,0,.35-4.13c0-.41,0-.66.1-1.16.16-1.19-.59-.56-.82.22-.14.48-.16,1.31-.38,3.36s-1,6.27-6.84,5.53a1.68,1.68,0,0,1-.66-.2,40.5,40.5,0,0,0,2.86-13.3,11.69,11.69,0,0,0,1.58.08,1.45,1.45,0,0,0,1-.71,2.43,2.43,0,0,0,.28-1.53c-.07-.49-.11-1.15-.16-1.53s.49-.61.93-.94a1.9,1.9,0,0,1,2.24-.1,46.92,46.92,0,0,1,5.76,5.39m-32.7-31.4c3.93-6.23,10.17-14.91,10.17-14.91a.23.23,0,0,1,.39,0s6.44,8.8,10.81,14.91c7,9.74,11.67,19.12,8,26.65a11.21,11.21,0,0,0-3.06-2,8.8,8.8,0,0,1,.41-1.06c.23-.41.51-.39,1.1-.52s1.26.35,1.39-.89a38.52,38.52,0,0,0-.39-4.44c-.16-1.58-2.08-2.77-3-3a17.27,17.27,0,0,0-1.86-.16l1.3-3.84A13.36,13.36,0,0,0,101,55.52a1.62,1.62,0,0,0,.28-1.54,17.77,17.77,0,0,0-7.5-7.78s.63-1.14.31-1.6-2.45-3.69-2.74-4.11a.62.62,0,0,0-.59-.33h-.07a.58.58,0,0,0-.55.33c-.28.42-2.29,3.64-2.58,4.11s.29,1.6.29,1.6C83.42,48.49,81,53.54,80.83,54a1.71,1.71,0,0,0,.28,1.54,12.82,12.82,0,0,0-4.39,3.69l1.39,4.25a11.7,11.7,0,0,0-2.93.14c-1.18.27-1.88,1.88-1.94,3.27a35.41,35.41,0,0,0-.14,3.69c.06.77.7.91,1.25,1s.76-.07,1,.34a4.67,4.67,0,0,0,1,1c-1.13.21-3.81.85-3.81.85C70,67.3,73.93,58.72,80.41,48.49m-14,29.74a4.8,4.8,0,0,1,2,1.59c-.12.31.12.94-.15,1.1a1.49,1.49,0,0,1-.56.19A15.87,15.87,0,0,0,65,78.88c-.09-.56,1-.82,1.44-.65M69.26,81a1.32,1.32,0,0,1,.06-.94,2.34,2.34,0,0,0,.6.69A1.31,1.31,0,0,1,70.34,82a1.48,1.48,0,0,1-1.56,1,5.49,5.49,0,0,0-2.32.45c-.47.37-.39,1.25-.39,1.25a7.91,7.91,0,0,1,.35,1.49,1.22,1.22,0,0,1-1.2-.56,2.53,2.53,0,0,1,0-2.77c.61-.75,2-.8,3.06-.86s1.06-.67,1-1m-5-1.56c.77.55,2.37,1.75,2.15,1.8a9.44,9.44,0,0,0-1.22.46,24.19,24.19,0,0,0-2.34-1.54c0-.69,1.1-.94,1.41-.72m.25-4.59c-.51,0-1.26-1.42-1.26-1.42.19-.3.63-.92,1.22-.58a1.72,1.72,0,0,1,.84,1s-.3,1-.8,1m1.93-11.36s.22-.53.52-.43a1.19,1.19,0,0,1,.49.89c.06.33,0,.89-.34.89s-.7-.46-.7-.46Zm.36-9.43a4.68,4.68,0,0,0,1.23-2,8.71,8.71,0,0,0,.08-2.07c.91.82,1.06,2.81.88,3.94s-.74.83-1.17.95A1.29,1.29,0,0,0,67.08,56c-.06.4.24.89.19,1.2a1,1,0,0,1-.41.52l-.4-.46a3.73,3.73,0,0,0-.24-1.82c.5-.33.58-1.34.58-1.34m-2-7.09a2.3,2.3,0,0,1,.32,1.09,2.68,2.68,0,0,0-.63,0c.06-.89.31-1.09.31-1.09m-1.24,6.16c.06-.58.84-3.9.84-3.9a.4.4,0,0,1,.74,0c.09.31.69,3.49.72,4s-.12,1.23-.46,1.42a3.07,3.07,0,0,1-1.44,0,1.77,1.77,0,0,1-.4-1.46m2.07,4H63.9a2.27,2.27,0,0,1-.14-.65c0-.75.28-.78.28-.78h1.49a1.4,1.4,0,0,1,.2.53,2.13,2.13,0,0,1-.08.9m-.94.88c1,0,1.45.18,1.42.8s-.47,1.06-1.45,1-1.47-.22-1.47-1,.55-.83,1.5-.83m.82,4.18v1.53s-1.63-.94-1.81-1.06c0,0,0-1.83,0-1.82a6.08,6.08,0,0,0,1.76,0Zm-4.84-7.79a5.31,5.31,0,0,1,.19-3.85c.31-.68.66-1,.76-.89a6.74,6.74,0,0,0,.22,2.91,2.65,2.65,0,0,0,1,1.11s0,1.36.48,1.76a2.77,2.77,0,0,0-.24.87,2.52,2.52,0,0,0,.1.88,1.59,1.59,0,0,0-.68.82A2.49,2.49,0,0,1,62,56.79a4,4,0,0,0,.13-1.24c-.24-.89-1.17-.47-1.48-1.11m.73,6.47a14.32,14.32,0,0,1,.86-1.48,2.1,2.1,0,0,0,.53,1.09l-.06,1.75h-.6c-.25,0-.61.18-.85.07a2.37,2.37,0,0,1,.12-1.44m-2.18,6c1.11-1.91,2-3.12,2.52-3.32.83-.31,1.73.24,2.52.74,1.29.8,2.18,1.47,2.28,1.9s0,1-.34.77a5.1,5.1,0,0,0-1.54-.89c-.31,0-.43.49,0,.86s1.66,1.32,1.85,1.57.19,1.54-.09,1.35-.56-.31-1-.52c-.27-.14-.92,0-.49.49s1.38,1.29,1.5,1.51.13,1.16-.15,1.32-.4.18-.55-.07a3.35,3.35,0,0,0-1.12-1,1.15,1.15,0,0,0-1.26.16c-.49.42-1,.91-1.13,1.31a1.17,1.17,0,0,1-1,1.09c-.5.08-4.54-.16-4.48-1.9a57.18,57.18,0,0,1,2.52-5.38m-3.07,6.82a5.84,5.84,0,0,0,2.51,1.21,6.1,6.1,0,0,0,2.38.11s.58,0,.21.65c0,0-.59.56-2.59.32a3.93,3.93,0,0,1-2.75-1.36c-.37-.55-.06-1.05.24-.93m-.46,2a5.47,5.47,0,0,0,2.8,1.16,5.9,5.9,0,0,0,2.75-.21s.6,0,.23.65c0,0-.58.85-2.92.64a4.62,4.62,0,0,1-3.09-1.36c-.38-.55,0-1.1.23-.88m-.44,2.2A7.72,7.72,0,0,0,59,79a5.12,5.12,0,0,0,2.46-.46,10.6,10.6,0,0,0,.41,1.7A42.61,42.61,0,0,0,57.52,84a14.06,14.06,0,0,0-2.46,3,22,22,0,0,1,.21-9.1m-2.21,22.81a6.54,6.54,0,0,1,2.35-.56l-.64,1a5.75,5.75,0,0,0-2.56,1.07,1.38,1.38,0,0,1,.85-1.52m-.83,3.18a.78.78,0,0,1,.14-.74,5.12,5.12,0,0,1,1.94-.88,12.82,12.82,0,0,0-.56,1.3,10.27,10.27,0,0,0-1.1.69s-.34.08-.42-.37m15.63-2.12c0,.46-.69.73-.69.73.22-.27.14-1.37.14-1.37a.86.86,0,0,1,.55.64m-1.14-5.27c.22-.67.16-1,.34-1s.5.38.52,1.48A4.79,4.79,0,0,1,67,99.54a1.53,1.53,0,0,1-.29.08,12.31,12.31,0,0,0-1.18-1.4,5.18,5.18,0,0,0,1.17-1.7m-2.18,1.9a13.06,13.06,0,0,1,1.8,2.35c.23.46,0,1.48-.28,1.52a1.5,1.5,0,0,1-.65-.09,7.46,7.46,0,0,0-.36-1.2,6.82,6.82,0,0,0-.51-.78s-.6.09-.42.55a5.49,5.49,0,0,1,.47,1.85,14.1,14.1,0,0,1-.51,1.38c0,.18-.74.46-1,.23s-.18-.92-.14-1.43-.37-.92-.5-1.2-.79-.09-.65.42a6.06,6.06,0,0,1,.28,1.34c0,.32-.19,1.19-.56,1.28s-.87,0-.92-.27-.09-1-.09-1-.28-.47-.51-.47-.26,0-.35.32.29,1.19,0,1.47-.63.44-.82.16a11.85,11.85,0,0,0-.66-1,.71.71,0,0,0-1,0c-.23.27,0,.71.33.92s.44,1.31,1.15,1.31a6,6,0,0,0,1.84-.39c.32-.19,1,.09,1.34-.14a1.89,1.89,0,0,1,.78-.28,4.36,4.36,0,0,0,1.66-.27c.87-.69.78-1.25,1-1.52a3.49,3.49,0,0,0,1.1-.14c.19-.14-.32.74-.6,1a5.33,5.33,0,0,1-2.16,1.47c-1.38.51-3.27,1.08-4.35,1.39a8.51,8.51,0,0,1-3.58.45,4.13,4.13,0,0,1-2.48-2.33l.36-.39s.55,0,.78-.27a36,36,0,0,1,2-4c.69-.83,4-2.17,5.39-2.4s2.22-.33,2.77.18m2.19-8.93a7.87,7.87,0,0,1-3,1.55c-.12-.7-.71-1.24-1-1.24s.14.4,0,2.11a16,16,0,0,1-2.06,5.51C58.78,98,56,99.18,56,99.18a5.56,5.56,0,0,0-2.73.44c-.18-1.68.67-8.93,2.58-11.85a26.18,26.18,0,0,1,6.82-6.56,8.14,8.14,0,0,1,1.7,1.18,3.6,3.6,0,0,0-.11,3.29,2.32,2.32,0,0,0,2.44,1.59c.15.7.26,2,0,2.22M68.87,89a.58.58,0,0,1-.46.45,1.15,1.15,0,0,1-.74,0,9.75,9.75,0,0,0-.15-2.33,16,16,0,0,0-.54-2.4c-.14-.83,1-.78,1.09-.68a11.29,11.29,0,0,1,.8,4.94m1.59-.47a.7.7,0,0,1-.64.09,15.44,15.44,0,0,0-.14-2.6,12.33,12.33,0,0,0-.54-2.16,2.87,2.87,0,0,1,.47-.13c.22-.05.44-.18.54-.05.74,1,.76,3.91.76,3.91s0,.72-.45.94m1.16-3.88a10.22,10.22,0,0,0-.54-1.76,1.46,1.46,0,0,0,.18-1.47c-.27-.94-1.15-1.3-1.41-2-.33-.81-.63-.72-.9-.41a10.58,10.58,0,0,0-1.48-1.24,26.06,26.06,0,0,1,5.85-2.94,25.09,25.09,0,0,1,4.3-.79,11.43,11.43,0,0,0,.92,1.39,7,7,0,0,0,.81.85,3.53,3.53,0,0,0-.43,1.32c-.06.49.6,1.14.72,1.72a1.2,1.2,0,0,0,1.51,1A5.62,5.62,0,0,0,84,78.69c.22-.39.44,0,.44,0A3.46,3.46,0,0,0,85.83,80,2.09,2.09,0,0,0,86,81.2s-.12,1.43.21,1.75a3.94,3.94,0,0,0,2.15.73s.19,1.15.33,2S89,88,89,88a2.73,2.73,0,0,0-1.3,2A6.3,6.3,0,0,0,88,94.07s-.79.41-2.51,1.16L83,96.29a3.62,3.62,0,0,1-.79-.52,1.14,1.14,0,0,1-.34-.81,2.64,2.64,0,0,0,1.19-.22,1.68,1.68,0,0,1,.82-.29,5.44,5.44,0,0,0,1.15-.32c.37-.14.43-.81.43-.81s.71-.07,1.28-.19c.24,0-.06-.48-.23-.66a2.61,2.61,0,0,0-1.34-.14s-.52-.57-1-1a3.56,3.56,0,0,0-2.07-1,4.56,4.56,0,0,0-3.05.78s-.59.4-.69.36a4.43,4.43,0,0,1-3-2.13c-.67-1.32-1.15-2.73-1.37-3.09s-.44-.09-.58,0-1.14.79-1.54,1a14.58,14.58,0,0,0-.31-2.71m.73,3.72,1.07-.7a12.9,12.9,0,0,0,2.12,3.65,7.36,7.36,0,0,0,2.31,1.29,7.79,7.79,0,0,0-.58,2.24,6.82,6.82,0,0,0,.62,3.82,5.52,5.52,0,0,1-2.34.44,4.83,4.83,0,0,0,.35-1.55,5.72,5.72,0,0,0-1.09-2.2c-.71-1.1-2.64-5.16-2.46-7m1.31,12.27a1.58,1.58,0,0,1,1.29-.51,8.93,8.93,0,0,0,3.51-.6,16.14,16.14,0,0,1,1.27,1.58,17.61,17.61,0,0,1-2.15.91c-1.29.46-3.46.88-4,.55s-.37-1.33.13-1.93m-.45,3a8.4,8.4,0,0,0,2.86-.23,21,21,0,0,0,4.23-1.53,1.5,1.5,0,0,1-.18,2.09,8.82,8.82,0,0,1-4.42,1.93,5.12,5.12,0,0,1-2.73-.14c-1-.78.24-2.12.24-2.12m-1.13,5.15a10.14,10.14,0,0,0,3,3.12c3.06,2.19,7.77,3.06,10.23,3.17a6.94,6.94,0,0,1-1.81,2.68,5,5,0,0,1-2.13-1.2c-.21-.22-.71-.06-1.15-.06a4.65,4.65,0,0,1-3-.77c-1.14-.72-1.2-1.36-1.53-1.52s-.6,0-1.75-.34a5.37,5.37,0,0,1-2.84-2.34c-.35-.57-.55-.61-.55-.61a8.14,8.14,0,0,1-1.75-.27c-.91-.3-1-.6-1-.6a7.55,7.55,0,0,1,4.32-1.26m-2,3.23a5.54,5.54,0,0,0,2.3,2.29,5.46,5.46,0,0,0,2.84.88,6,6,0,0,0,2.54,2.13,4.71,4.71,0,0,0,3.09.22,4.32,4.32,0,0,0,1.75,1.15s-3,2.41-5,2.63a12.47,12.47,0,0,1-4.57-3c-2.4-2.25-5.93-5.3-9.43-5.9l3.17-1.69A6.47,6.47,0,0,0,70.06,112m-10.6-2c2-.08,2.66.41,2.66.41a5.3,5.3,0,0,1,2.42-1c1.12-.08,1.47.36,1.47.36l-5,2.69a3.29,3.29,0,0,0-2.42-.55,6.11,6.11,0,0,0-2.72,1.52,5.23,5.23,0,0,1-1.06-.84,6.37,6.37,0,0,1,4.66-2.58m-6.52,2.13a10.56,10.56,0,0,0,1.37,1.46c.43.34.66.52.84.64a10,10,0,0,1-.93,1.13c-1,1-1.48.72-1.48.72a1.4,1.4,0,0,1-.8-1.92c.26-.63,1-2,1-2m-2.67,10.45s-.08,2,1,2.53a6.52,6.52,0,0,1-6.72-6.46,5,5,0,0,1,1.64-4.46c.81-.57,2-.48,1.29.75a5.68,5.68,0,0,0-1.11,3.08,4,4,0,0,0,3.9,4.56m-.43-1.14a10.48,10.48,0,0,1,.13-1.18c.08-.4.24-.49.48-.4a.73.73,0,0,1,.27.24l-.25,1.44a1.55,1.55,0,0,1-.63-.1m1.42,1.66a6,6,0,0,1,.34-2.34.68.68,0,0,1,1,.49,6.84,6.84,0,0,1-.09,1.34s-.17,1.19-.17,1.76c0,.19-.22.19-.33.16l-.33-.23s-.31-.25-.39-1.18m.88-3.4c0-.53.56-1.68.87-1.77s.83.44.61.84a9.24,9.24,0,0,0-.46,1.18,2.82,2.82,0,0,1-1-.25m-4.26-13a3,3,0,0,0,.39,1c.5.65,1.36.59,2.4.7s1.67.65,1.7,1.46c.07,1.28-1,3.09-1.41,4a2.56,2.56,0,0,0,.37,2.57,2.32,2.32,0,0,0,1.07.7,5.36,5.36,0,0,0-1.13,1.92,1.79,1.79,0,0,1-.75-.12c-.36-.12-.76-.18-1,.12a4.36,4.36,0,0,0-.57,2.06c-1.25-.33-1.77-2.07-1.46-3.73s2.22-3.93,2.66-5.06c.77-2,.07-2.79-1.09-3.52-.86-.55-1.16-.49-1.4-.87s.21-1.26.21-1.26m-3.59-6.62a4.77,4.77,0,0,0-.51,6.55,3.62,3.62,0,0,0,2.68,1.11,1.39,1.39,0,0,0,.27.73,5,5,0,0,1-5.42-2.08c-1-1.8-1.25-5.2,1.39-6.79A4.21,4.21,0,0,1,44.31,99a1.79,1.79,0,0,0,0,1.1M43,109.15a2.45,2.45,0,0,1-1.3.45,2,2,0,0,1-1.8-1A2.58,2.58,0,0,1,40,106a6.49,6.49,0,0,0,.4.88,5.26,5.26,0,0,0,2.6,2.23M44.55,98a4.74,4.74,0,0,0-2.34.64,5.64,5.64,0,0,0-2.58,5.91,2.7,2.7,0,0,1-1.13-2.13,5.38,5.38,0,0,1,2.74-4.83A3.75,3.75,0,0,1,43,97.05a2.38,2.38,0,0,1,1.63.56c.11.15,0,.37-.09.37m-7-6.57A5.8,5.8,0,0,1,39,84.05a.51.51,0,0,0,.22-.54s-.69-3.51,2.13-5.19c1.9-1.13,3.18-.75,3.78-.42a2.08,2.08,0,0,1,1.13,1.56,1.43,1.43,0,0,1-1.1,1.47.82.82,0,0,1-1-.39.55.55,0,0,0-.35-.28.48.48,0,0,0-.43.09,2.35,2.35,0,0,0-.27,3,5.54,5.54,0,0,0,1.59,1.31A5.72,5.72,0,0,1,47.3,87a7.64,7.64,0,0,1,.63,3.77c0,.19,0,.33,0,.38,0,.21,0,.22.51.41a4,4,0,0,1,2.14,3.25,7,7,0,0,1-1.38,5,2.55,2.55,0,0,1-1.77,1c-1.23.07-1.88-.44-2.07-.89a.78.78,0,0,1,0-.54l.12.1a2.56,2.56,0,0,0,2.66.11,3.23,3.23,0,0,0,1.59-3.14,5.61,5.61,0,0,0-2.72-4.35,5.27,5.27,0,0,0-1.3-4.52A4.32,4.32,0,0,0,42.2,86a3.48,3.48,0,0,0-2.8,1.42,2.38,2.38,0,0,0-.26,2.23,1.46,1.46,0,0,0,2.26.64l.1-.1a1.31,1.31,0,0,1,.37.4,1.55,1.55,0,0,1,0,1.19,1.76,1.76,0,0,1-1.56,1.13,2.87,2.87,0,0,1-2.8-1.46m-1,21.23a6.11,6.11,0,0,1-.39-5.27.54.54,0,0,0-.11-.6,6.39,6.39,0,0,1-1.69-3.45,11.42,11.42,0,0,1,1.83-7.25,9.31,9.31,0,0,1,2.47-2.36l0,0a3.74,3.74,0,0,0,1.77.22,2.79,2.79,0,0,0,2.43-1.86,2.47,2.47,0,0,0-.12-2A2.19,2.19,0,0,0,41.53,89a.78.78,0,0,0-.62.05.45.45,0,0,0-.18.42l0,0a.33.33,0,0,1-.36,0,.67.67,0,0,1-.26-.3,1.3,1.3,0,0,1,.14-1.12,2.29,2.29,0,0,1,2-1,3.35,3.35,0,0,1,2.66,1.22,4.08,4.08,0,0,1,1,3.9.52.52,0,0,0,.24.65s2.44,1.28,2.52,3.67a2.15,2.15,0,0,1-1,2.19,1.53,1.53,0,0,1-1.55,0,1,1,0,0,1-.34-1,.51.51,0,0,0-.09-.41c-.59-.78-2.37-1.92-4.88-.53a6.38,6.38,0,0,0-3.28,5.81,3.67,3.67,0,0,0,1.69,3,3.63,3.63,0,0,0-.27,3.49,3,3,0,0,0,2.72,1.7h.16a3.18,3.18,0,0,0,2.33-1.13,5.37,5.37,0,0,0,3.49-.23.67.67,0,0,1,.19-.06c1.17.46,1.93,1,1.73,1.93a2,2,0,0,1-.59,1.11c-1.13-2.18-6.92-2.5-8.85,2.74a4.88,4.88,0,0,1-3.5-2.36m11.27,15.64c-3.78-1.23-8.49-6.07-7-12,1-4.31,4.45-4.7,5.79-4.46s1.85,1.16.78,1.27a3,3,0,0,0-2.6,1.33,7.7,7.7,0,0,0-.34,7.65,7.06,7.06,0,0,0,8.13,4.23,10.78,10.78,0,0,0,.93,1.74,8.1,8.1,0,0,1-5.64.26m6.76-.2c-2.75-3.76-.43-8.09.28-8.91a4.75,4.75,0,0,1,1.91-1A9.7,9.7,0,0,0,55,124.59c.51,4.78,8,6.45,13.51,7.94,0,0-.32,1.24-.81,1.4-.32.11-10.61-2.41-13.13-5.85M79,148.64a9.48,9.48,0,0,1-6.18-2c-2.54-2.1-3.12-4-3.16-5.13s-.88-.82-.94-.11a10.62,10.62,0,0,0,.13,1.85,6.69,6.69,0,0,1-2.14.58c-1.47.18-4.93-.82-5.78-3.85a6.36,6.36,0,0,1-4.48-2.66c-1.63-2.46-1.91-5.42-1-7a19.32,19.32,0,0,0,3.45,2,6,6,0,0,0,1.45,3.9,4,4,0,0,0,2.48,1.4s1.34,3.24,4.52,3.24a4.82,4.82,0,0,0,4.49-3.18l.54.61A3.36,3.36,0,0,0,74,137.14c.49-.61,1.12-1.62,1.12-1.62l.88.33a1.75,1.75,0,0,0,1.37.92s.21.83.76.88a8.13,8.13,0,0,0,0,3c.32,1.26.83,4.07.83,4.07a5.78,5.78,0,0,1-4-1.26c-2.17-1.66-1.54-3.93-.87-4.5,1.22-1,2.92,0,2,1.24,0,0-.06.88.76.44a1.51,1.51,0,0,0,.12-2.41,2.71,2.71,0,0,0-3.5-.16c-1.36,1.09-1.88,3.43,0,5.54A7.45,7.45,0,0,0,79,145.92a4.9,4.9,0,0,0,0,2.72m4.06-.35a.94.94,0,0,1-1.15.57s-.15-.37-.31-.86a4.25,4.25,0,0,1,0-1.28c0-.93-.56-.93-.56-.93-.11.72-.49,1.16-.38,1.7a12.23,12.23,0,0,1,.27,1.48c.06.66-.71.46-.71.46s-.14-1.09-.33-1.88a2.64,2.64,0,0,1,.28-1.63,19.36,19.36,0,0,0-.74-5,7,7,0,0,1-.21-2.86c1.37,0,2.93-.9,4-3.34a8.67,8.67,0,0,0,.49-5.47s3,.33,3.78,1.26.87,1.91.21,3.39a28,28,0,0,0-2.29,6.23c-.22,2.24-.33,3.5-.82,4.21s-1.35,1.31-1.35,2a5.76,5.76,0,0,1-.14,2m3.56-8.3,1.77.56s-.13,2.62-2.41,3.09c0,0,.1-.55.3-1.44s.09-1.25.34-2.21m2.42,6.6a6.58,6.58,0,0,1-4.68,1.78,3.26,3.26,0,0,0,.12-1,2.12,2.12,0,0,1,1.15-2.23c1.54-.42,2.48-.9,3.11-2.16a8.84,8.84,0,0,0,.68-2.16l1.65.06s.1,3.75-2,5.75m2-7a10.35,10.35,0,0,1-4.09-.92,15,15,0,0,1,1-2.81,9.8,9.8,0,0,0,1.18-2.66,6.47,6.47,0,0,0,1,.25s-.52.32-.48,1.38c.07,1.6,1.7,2.83,2.57,3.26s1.19.38.84-.24a4.74,4.74,0,0,1,0-2.64,1.94,1.94,0,0,0,0-1.16l.86,0c.92,3.76,2.23,4.58,2.23,4.58a9.41,9.41,0,0,1-5.14.92m31.65,1.72a8.8,8.8,0,0,1-6.14.48c-.48-.19-.62,0-.71.48-.16.78-.74,3.11-4.07,4.53a8.49,8.49,0,0,1-6.26.29c-.52-.23-.93-.07-1.49.32a7.4,7.4,0,0,1-7,.39c-3.72-1.63-4.94-4.52-4.78-7.08a15.89,15.89,0,0,0,2.33-.31,6.25,6.25,0,0,0,4.79,4.34,6.61,6.61,0,0,0,5.28-1.28,7.25,7.25,0,0,0,6.1-.09,10.23,10.23,0,0,0,4.16-4.92s4,2.2,7.38,0c3.6-2.36,2.64-6.55.45-7.1-1.92-.48-3.14.81-2.85,2s.68-.26,1.27.16.42,2.45-1.59,2.87a5.69,5.69,0,0,1-4.42-1,6.08,6.08,0,0,0,.1-1.23,1.42,1.42,0,0,0,1.16-.84,3,3,0,0,0,1.58-.55,1.36,1.36,0,0,0,.61-1,2.27,2.27,0,0,0,1.62-.91,2,2,0,0,0,.38-1.5,1.77,1.77,0,0,0,.91-.53,1.69,1.69,0,0,0,.46-1,2.71,2.71,0,0,1,1.25-.13c.43.09,3.75,1.35,4.33,4.46a8.25,8.25,0,0,1-4.84,9.21m25.06-34.58a5.63,5.63,0,0,1-5,4.23.56.56,0,0,0-.53.33.58.58,0,0,0,.18.61,5.46,5.46,0,0,1,1.23,2.31,8.75,8.75,0,0,1-.55,5.12c-1.09,2.47-3.17,2.57-3.38,2.82s-.15.26-.35,1.77c-.27,2-3.2,4.76-7,5.14-2.84.28-4.85-.1-5.89-.81-1.51-1-3.29-2.25-3-3.54a3,3,0,0,1-.62-2.3,6,6,0,0,1,1.64-3.55,21.24,21.24,0,0,1,4.91-3.41,4.79,4.79,0,0,1,2.07.4,2.52,2.52,0,0,1,1,3.58,1.6,1.6,0,0,1-2,.3c.05-1-1.88-2.38-3.38,0-1.36,2.22.14,5.86,4,5.7,5-.2,5.75-4.38,5.75-4.38a5.12,5.12,0,0,0,2.62-2,5.7,5.7,0,0,0,.35-5.09c-.2-.51-.85-.43-.75.35.2,1.61.57,3.93-1.61,5.29a13.88,13.88,0,0,1-1.32.66.56.56,0,0,0-.3.45,4.13,4.13,0,0,1-2.42,3.18c-1.41.7-4.13.86-5.24-.66s-.36-3.37.35-3.63.36.56.36.56c-.76,1.91.8,3.42,3.37,2.82a3.34,3.34,0,0,0,2.68-3,3.8,3.8,0,0,0,2.11-2.17c.45-1.31.81-3.73-1-5.34a5.74,5.74,0,0,0-3.38-1.26,5,5,0,0,0,.4-1.72,5.54,5.54,0,0,1,3.48.81,6,6,0,0,1,1.9,1.86c.49.75.75,0,.75,0s.07-1-2-2.57a7.91,7.91,0,0,0-4.12-1.25,9.14,9.14,0,0,0-.91-3.72,5.71,5.71,0,0,1,3.3-.45,3.36,3.36,0,0,1,2.41,2.09,5,5,0,0,1,0,2.08.61.61,0,0,0,.59.41h.18a5,5,0,0,0,4.17-2.19,7.56,7.56,0,0,0,.08-7.18,5.57,5.57,0,0,0-5.19-3h-.1a2.32,2.32,0,0,0-1-.61,2.23,2.23,0,0,0-1.88.3,1.54,1.54,0,0,0-.74,1.24.52.52,0,1,0,1,.13.87.87,0,0,1,.36-.56,1.07,1.07,0,0,1,.91-.12,1.77,1.77,0,0,1,1.12,1.63,2.24,2.24,0,0,1-1.45,2.2,3.37,3.37,0,0,1-3.09-.34,4.53,4.53,0,0,1-2.16-3.73,3.54,3.54,0,0,1,2.76-3.78.55.55,0,0,0,.39-.29.54.54,0,0,0,0-.48,4.11,4.11,0,0,1,1-4.82c1.87-1.91,4.77-2.32,6.62-.92a1.92,1.92,0,0,1,.73,1.78,1,1,0,0,1-.59.87c-.41.14-1-.1-1.63-.67a.54.54,0,0,0-.63-.06,2.13,2.13,0,0,0-1.17,1.65,2.36,2.36,0,0,0,.9,2.13,5.63,5.63,0,0,0,2.45.92,6.69,6.69,0,0,1,3.4,1.44c2.16,1.88,2.75,4.24,1.67,6.64a.54.54,0,0,0,.13.6,5.66,5.66,0,0,1,1.05,5.1M98,77.87a20.9,20.9,0,0,1-1.49-3,24.15,24.15,0,0,1-1-2.89l.12,0a1.49,1.49,0,0,0,.79.34h0a1,1,0,0,0,.73-.27,2.48,2.48,0,0,0,.43-.59.94.94,0,0,0,.61-.69s0-.21-.14-.15a2,2,0,0,1-.67.07l-.18,0H97a2,2,0,0,0-.35,0,1.62,1.62,0,0,1,.51-.14,1,1,0,0,0,.72-.36,1.72,1.72,0,0,0,.24-.69.12.12,0,0,0-.21-.09.67.67,0,0,1-.34.22,2.14,2.14,0,0,1-.5,0,2.19,2.19,0,0,0-1.18.55,2,2,0,0,0-.5.86c0,.08-.06.16-.08.23a2.38,2.38,0,0,1,0-.68A5.23,5.23,0,0,1,97,68.17a1.85,1.85,0,0,1,1.2-.34c.52,0,.71-.17.36-.48a1.79,1.79,0,0,0-2.11.27c-.48.5-1,1-1.21,1.31a9,9,0,0,0-.44.86c-.09.18-.32.08-.47-.27s-.5-.57-.58-.1.75,1.47.27,2.47a1.66,1.66,0,0,1-.41.69c-.33.37-.14,1.42.16,1s.36-.34.53-.59c.43-.63.54,0,.54,0s.47,1,1,2.4,1,2.17,1.41,3a4.89,4.89,0,0,1,.28,1.43L96,80.49c-.09-1.15-.55-2.44-.6-2.07-.1.82-.41,6.5-.41,6.5-.37,0-.74,0-1,1.1a3.58,3.58,0,0,0,.69,2.4A25.33,25.33,0,0,1,94,92.34a2.85,2.85,0,0,1-2.12,2.07,5.63,5.63,0,0,1-2.93-.63c-.5-.41-.52-3-.34-3.84s.57-.83.57-.83.31,2.91.26,3.37.23.51.46.27.21-2.48.07-4.19A60.94,60.94,0,0,0,89,82.15c-.28-1.18-.33-2.16-.52-3-.13-.53-.16-.23-.16-.23l-.22,1.83-.88-.23c-.36-.11-.38-.26-.38-.54h0c0-.28.69-2.7,1.07-4.13A18.76,18.76,0,0,0,88.38,73s0-.48.35-.17c.24.18.34.6.58.89s.55-.32.4-.64c-.22-.48-.44-.93-.62-1.28-.51-1,.3-2,.21-2.46s-.38-.36-.58.12-.39.49-.49.31-.35-.44-.52-.78a4.5,4.5,0,0,0-1.37-1.25,2.62,2.62,0,0,0-1.87-.31c-.37.07.09.59.56.66a2.45,2.45,0,0,1,1.1.44c.53.51,1.43,1.16,1.57,2a7.67,7.67,0,0,1,0,1.06c0-.13-.11-.29-.18-.46a2.07,2.07,0,0,0-.54-.83,2.2,2.2,0,0,0-1.22-.48,3.55,3.55,0,0,1-.5,0,.52.52,0,0,1-.34-.21c0-.1-.19,0-.21.1a1.21,1.21,0,0,0,.28.68,1,1,0,0,0,.73.32,1.56,1.56,0,0,1,.52.11,2,2,0,0,0-.34,0l-.15,0-.2,0a2,2,0,0,1-.66,0c-.19,0-.14.16-.14.16a1,1,0,0,0,.65.66,1.8,1.8,0,0,0,.47.56,1,1,0,0,0,.73.23h0a1.47,1.47,0,0,0,.76-.38.56.56,0,0,0,.19,0,.27.27,0,0,0,.12,0,17.4,17.4,0,0,1-.45,3.36c-.42,1.66-1.1,3.56-1.1,3.56a3.31,3.31,0,0,1-1.06-.93,5.71,5.71,0,0,1-.84-2.49,9.3,9.3,0,0,0-1.38-3.35A7.63,7.63,0,0,1,82.32,69a4.34,4.34,0,0,0-.4-2.2,7.54,7.54,0,0,1-.23-5.41c.7-1.43,3.62-2.64,5.37-2.64a11.68,11.68,0,0,1,3.79.86,23.55,23.55,0,0,1,3.91-.79,8,8,0,0,1,5.23,2,4.29,4.29,0,0,1,1.2,3.73c-.14.74-.79,1.52-.74,1.85a33.84,33.84,0,0,1,.14,4.24,6.68,6.68,0,0,1-1.16,3.23,6.14,6.14,0,0,0-.27,3A1.42,1.42,0,0,1,98.5,78c-.28.19-.3.25-.48-.13Z" transform="translate(-3.42 -5.05)"/></svg>