<svg width="15" height="15" viewBox="0 0 15 15" fill="none" xmlns="http://www.w3.org/2000/svg">
<path d="M11.5198 7.03859L6.33769 3.431C6.06146 3.22659 5.49242 3.32879 5.45099 3.89507V11.1102C5.48137 11.7787 6.13328 11.7401 6.33769 11.5743L11.5198 7.96673C11.7049 7.85347 11.9673 7.41426 11.5198 7.03859V7.03859ZM6.57801 10.0302V4.97514L10.2077 7.50266L6.57801 10.0302Z" fill="#00D4D4"/>
<path d="M12.5391 0.737305H2.3296C1.41251 0.737305 0.666687 1.48313 0.666687 2.40022V12.607C0.666687 13.5268 1.41251 14.2727 2.3296 14.2727H12.5364C13.4535 14.2727 14.1993 13.5268 14.1993 12.6097V2.40022C14.202 1.48313 13.4562 0.737305 12.5391 0.737305ZM13.075 12.6097C13.075 12.9053 12.8347 13.1456 12.5391 13.1456H2.3296C2.03403 13.1456 1.79371 12.9053 1.79371 12.6097V2.40022C1.79371 2.10465 2.03403 1.86433 2.3296 1.86433H12.5364C12.8319 1.86433 13.0723 2.10465 13.0723 2.40022V12.6097H13.075Z" fill="#00D4D4"/>
<path d="M3.66929 3.33423C3.35714 3.33423 3.10577 3.5856 3.10577 3.89774V11.1129C3.10577 11.4251 3.35714 11.6764 3.66929 11.6764C3.98143 11.6764 4.2328 11.4251 4.2328 11.1129V3.89774C4.2328 3.5856 3.98143 3.33423 3.66929 3.33423Z" fill="#00D4D4"/>
</svg>
