<svg width="322" height="322" viewBox="0 0 322 322" fill="none" xmlns="http://www.w3.org/2000/svg">
<g clip-path="url(#clip0_2449_12200)">
<path fill-rule="evenodd" clip-rule="evenodd" d="M167.708 235.06C186.693 220.919 216.33 210.293 241.5 208.227V295.153C218.168 298.682 191.12 309.965 167.708 321.987V235.06ZM154.292 235.06C135.307 220.919 105.67 210.293 80.5 208.227V295.153C103.832 298.682 130.88 309.965 154.292 321.987V235.06ZM67.0833 274.196C39.5925 265.154 26.887 254.917 26.887 254.917L26.8333 227.748C26.726 199.211 28.014 182.883 62.3606 175.302C99.9944 166.997 140.164 157.632 119.261 128.062C66.9223 53.9618 108.407 0 161 0C213.607 0 254.863 53.5459 202.726 128.062C182.212 157.377 221.187 166.809 259.639 175.302C294.12 182.923 295.287 199.331 295.153 228.083L295.113 254.917C295.113 254.917 282.407 265.154 254.917 274.196V193.656L240.4 194.85C212.842 197.118 181.903 208.294 161 223.401C140.083 208.294 109.171 197.118 81.6001 194.85L67.0833 193.656V274.196Z" fill="white"/>
</g>
<defs>
<clipPath id="clip0_2449_12200">
<rect width="322" height="322" fill="white"/>
</clipPath>
</defs>
</svg>
