<?xml version="1.0" encoding="utf-8"?>
<!-- Generator: Adobe Illustrator 25.4.1, SVG Export Plug-In . SVG Version: 6.00 Build 0)  -->
<svg version="1.1" xmlns="http://www.w3.org/2000/svg" xmlns:xlink="http://www.w3.org/1999/xlink" x="0px" y="0px"
	 viewBox="0 0 500 500" style="enable-background:new 0 0 500 500;" xml:space="preserve">
<style type="text/css">
	.st0{display:none;}
	.st1{display:inline;fill:#FBF4EB;}
	.st2{fill:#F8E6D1;}
	.st3{fill:#FFAA7F;}
	.st4{fill:#C2813E;}
	.st5{fill:#B0977C;}
	.st6{fill:#FFD3B0;}
	.st7{fill:#4470EB;}
	.st8{fill:#6085EB;}
	.st9{fill:none;stroke:#4470EB;stroke-width:0.8967;stroke-miterlimit:10;}
	.st10{fill:none;stroke:#3150A8;stroke-width:0.8967;stroke-miterlimit:10;}
	.st11{fill:#E49849;}
	.st12{fill:#E4C3A0;}
	.st13{fill:none;stroke:#C47428;stroke-width:1.3451;stroke-linecap:round;stroke-linejoin:round;stroke-miterlimit:10;}
	.st14{fill:none;stroke:#B07332;stroke-width:1.3451;stroke-linecap:round;stroke-linejoin:round;stroke-miterlimit:10;}
	.st15{fill:#D18534;}
	.st16{fill:#FFD2B0;}
	.st17{fill:#96551F;}
	.st18{fill:none;stroke:#965190;stroke-width:0.8967;stroke-linecap:round;stroke-linejoin:round;stroke-miterlimit:10;}
	.st19{fill:none;stroke:#B87A3B;stroke-width:0.8967;stroke-linecap:round;stroke-linejoin:round;stroke-miterlimit:10;}
	.st20{fill:#D7A422;}
	.st21{fill:#F3D74B;}
	.st22{fill:none;stroke:#B88B1C;stroke-width:1.7935;stroke-linecap:round;stroke-linejoin:round;stroke-miterlimit:10;}
	.st23{fill:none;stroke:#B88B1C;stroke-width:0.8967;stroke-linecap:round;stroke-linejoin:round;stroke-miterlimit:10;}
	.st24{fill:none;stroke:#C48B5E;stroke-width:0.6726;stroke-linecap:round;stroke-linejoin:round;stroke-miterlimit:10;}
	.st25{fill:#FFA880;}
	.st26{fill:#B0525C;}
	.st27{fill:#FF9EB8;}
	.st28{fill:#85441B;}
	.st29{fill:#B36525;}
	.st30{fill:#FFB0B0;}
	.st31{fill:none;stroke:#C48B5E;stroke-width:0.8967;stroke-linecap:round;stroke-linejoin:round;stroke-miterlimit:10;}
	.st32{fill:none;stroke:#9C5024;stroke-width:0.8967;stroke-linecap:round;stroke-linejoin:round;stroke-miterlimit:10;}
	.st33{fill:none;stroke:#B36525;stroke-width:0.8967;stroke-linecap:round;stroke-linejoin:round;stroke-miterlimit:10;}
	.st34{display:none;clip-path:url(#SVGID_00000036243843423933780160000010398229281986829217_);}
	.st35{display:inline;fill:#FFFFFF;}
</style>
<g id="BACKGROUND" class="st0">
	<rect class="st1" width="500" height="500"/>
</g>
<g id="OBJECTS">
	
		<ellipse transform="matrix(0.7071 -0.7071 0.7071 0.7071 -74.8744 234.5926)" class="st2" cx="245.74" cy="207.68" rx="183.79" ry="183.79"/>
	<g>
		<defs>
			<rect id="SVGID_1_" width="500" height="500"/>
		</defs>
		<clipPath id="SVGID_00000161626582867080598920000013172963545562476955_">
			<use xlink:href="#SVGID_1_"  style="overflow:visible;"/>
		</clipPath>
	</g>
	<g>
		<path class="st3" d="M200.1,325.92c0,0-2.92-1.36-5.59-1.91c0,0-3.23-20.05,10.5-12.96l5.33,1.72L200.1,325.92z"/>
		<g>
			<path class="st4" d="M194.84,323.33c0,0-3.09-6.3,6.05-12.78c0,0-1.07-3.28-1.6-7.19c-0.54-3.94-0.54-8.51-1.63-9.75
				c-2.17-2.48-3.73-4.15-5.46-4.27c-1.59-0.12-3.41,1.26-5.52,3.19c-2.11,1.93-3.85,5.98-8.29,8.91
				c-4.44,2.92-21.26,15.61-22.79,20.55c-1.53,4.94-0.57,7.14,0.19,7.95c0.77,0.82,4.88,3.69,7.58,3.61
				c2.7-0.08,8.06-2.49,12.48-5.14C179.43,326.27,192.44,322.26,194.84,323.33z"/>
			<path class="st5" d="M195.83,291.6c-1.3-1.34-2.43-2.17-3.63-2.26c-1.59-0.12-3.41,1.26-5.52,3.19
				c-2.11,1.93-3.85,5.98-8.29,8.91c-4.44,2.92-21.26,15.61-22.79,20.55c-1.53,4.94-0.57,7.14,0.19,7.95
				c0.37,0.39,1.52,1.27,2.92,2.06c0,0-0.4-9.93,24.98-29.2C188.18,299.4,195.83,291.6,195.83,291.6z"/>
		</g>
		<path class="st6" d="M174.61,328.72c0,0-2.92-1.36-5.59-1.91c0,0-1.49-12.71,10.45-12.39l4.83,0.67L174.61,328.72z"/>
		<g>
			<path class="st7" d="M281.15,299.11c-2.98-11.33-11.35-34.4-17.33-50.46c-0.48-5.71-0.77-13.5,0.76-17.36
				c2.58-6.53-15.5-5.45-16.14-1.15c-0.07,0.49,0.09,1.19,0.41,2.05c-4.61,1.14-10.22,3.67-14.4,9.25
				c-4.82,6.43,9.98,48.74,18.77,81.57c-3.57,4.04-8.48,6.64-13.14,1.61c-7.17-7.75-31.89-12.59-31.89-12.59
				c-1.94,1.29-2.26,26.47-2.26,26.47c25.83,16.46,60.37,30.35,60.37,30.35C311.5,382.72,285.99,317.51,281.15,299.11z"/>
			<path class="st8" d="M272.54,306.97c-0.68-1.77-10.53-30.19-18.57-51.41l0,0c0,0,3.75-4.22,6.52-11
				c4.09-10.01,5.49-17.91,5.49-17.91s-17.73-0.7-23.35,5.34c-4.48-1.4-14.57-1.34-19.8-0.66c-5.81,0.75-11.19-0.32-23.03,18.4
				c-11.84,18.72-0.65,32.07,4.3,37.66c4.95,5.6,27.55,34,27.55,34c-5.6-5.38-26.9-7.1-32.28-6.46c-5.38,0.65-17.86-1.94-17.86-1.94
				c-7.53,4.95-8.61,15.07-8.61,15.07c18.08,6.24,32.28,34.43,80.28,40.68C301.17,374.98,273.62,309.77,272.54,306.97z"/>
			<g>
				<path class="st9" d="M232.48,234.62c0,0-14.28,14.14-13.63,24.79c0.65,10.65,17.11,38.21,24.86,47.19s28,44.61,5.61,44.71
					c-22.4,0.11-40.05-31.23-72.68-30.16"/>
				<path class="st10" d="M197.13,315.03c0,0,9.89,0.1,15.51,0.48c6.76,0.46,16.45,0.19,26.78,13.96"/>
				<path class="st10" d="M199.9,346.97c0,0,18.79,15.91,44.71,20.35c23.31,3.99,27.77-0.3,32.13-5.4
					c4.66-5.46,4.64-19.34,4.64-19.34"/>
				<path class="st10" d="M261.7,241.44c0,0-1.77,7.58-7.74,14.12"/>
			</g>
		</g>
		<g>
			<g>
				<path class="st11" d="M169.48,326.91c0,0-1.75-7.78,10.33-12.63c0,0-0.32-4,0.14-8.56c0.46-4.6,1.7-9.76,0.81-11.46
					c-1.78-3.39-3.09-5.69-5.01-6.31c-1.76-0.56-4.19,0.49-7.1,2.11c-2.91,1.61-5.97,5.72-11.78,7.82
					c-5.81,2.1-28.25,11.88-31.31,17.04c-3.07,5.17-2.58,7.91-1.94,9.04c0.65,1.13,4.52,5.49,7.59,6.13
					c3.07,0.65,9.78-0.62,15.5-2.42C151.31,326.23,166.53,326.05,169.48,326.91z"/>
				<path class="st12" d="M180.28,293.38c0,0-2.07-4.84-4.53-5.41c-1.8-0.42-4.19,0.49-7.1,2.11c-2.91,1.61-5.97,5.72-11.78,7.82
					c-5.81,2.1-28.25,11.88-31.31,17.04c-3.07,5.17-2.58,7.91-1.94,9.04c0.54,0.94,3.29,4.09,5.96,5.51c0,0-5.56-5.56,8.73-15.06
					C152.58,304.92,176.66,293.29,180.28,293.38z"/>
			</g>
			<g>
				<path class="st13" d="M155.58,326.69c0,0,1.68-1.11,2.49-4.66"/>
				<path class="st14" d="M151.7,327.2c0,0,2.9-2.34,3.3-6.05"/>
				<path class="st13" d="M146.69,327.68c0,0,4.12-2.65,4.44-7.01"/>
				<path class="st13" d="M179.7,310.72c0,0,0.58-6.88,1.37-14.3c0.07-0.62-0.26-1.76-0.53-2.42"/>
			</g>
		</g>
		<path class="st15" d="M340.55,67.22c0,0,8.99-1.11,13,19.35l-11.81-2.35L340.55,67.22z"/>
		<path class="st15" d="M126.03,82.5c0,0-1.13-12.05,15.33-18.72l3.62,5.27L135.5,82.5H126.03z"/>
		<path class="st16" d="M339.69,70.87c0,0,12.16-7.91,17.43-14.36c0,0,3.34-10.92,2.59-18.99c-0.75-8.07-1.4-10.71-1.4-11.59
			s0.81-3.07,2.34-1.21c1.53,1.86,2.02,10.09,2.02,10.09s2.26-10.81,1.45-16.38c-0.2-1.39,2.42-2.42,2.91,0
			c0.48,2.42,0.48,4.68,0.48,4.68s0.08-5.17,1.29-5.41c1.15-0.23,2.91-0.4,2.66,11.06c0,0,2.81-6.83,3.87-7.02
			c0.93-0.17,2.99-0.08,1.61,4.12c-1.37,4.2-4.04,12.03-4.44,14.93c-0.4,2.91,1.37,6.13,1.37,6.62c0,0,2.58-2.26,4.36-6.05
			c1.78-3.79,4.92-6.38,6.7-4.28c1.42,1.67-1.45,5-3.23,8.15c-1.78,3.15-3.07,8.88-3.95,10.33c-0.89,1.45-5.25,5.08-10.25,7.83
			c-5,2.74-15.33,13.72-19.37,19.77C348.14,83.14,340.28,77.25,339.69,70.87z"/>
		<path class="st17" d="M187.1,96.7c0,0,0,25.18,16.79,41.97c16.79,16.79,43.04,19.37,53.59,14.63
			c10.55-4.73,49.5-21.27,50.15-46.04C308.27,82.5,227.56,55.16,187.1,96.7z"/>
		<path class="st16" d="M143.3,67.32c0,0-10.49-8.55-13.56-15.33c-3.07-6.78-7.91-28.25-9.85-30.18c-1.94-1.94-2.74,0-2.74,0
			s-0.11-3.98-2.15-3.66c-2.04,0.32-1.83,3.98-1.83,3.98s1.18,7.86,3.12,14.53c0,0-0.97,1.29-1.61-0.22c0,0-4.09-14.63-6.24-17
			c-2.15-2.37-2.91,1.32-1.72,5.17c0,0,4.09,13.56,4.73,14.85c0.65,1.29-5.7-10.12-7.53-11.84c-1.83-1.72-2.58,1.13-1.08,4.52
			c0.82,1.86,3.77,8.27,4.52,10.59c0.75,2.32,3.01,9.32,5.06,13.94c2.04,4.63,6.35,6.99,7.96,7.32c1.61,0.32,3.98,2.15,5.81,5.49
			c1.83,3.34,4.84,10.22,6.13,13.02C132.33,82.5,143.73,77.22,143.3,67.32z"/>
		<path class="st11" d="M241.37,122.68c0,0,5.56-5.75,18.9-4.25c13.34,1.51,16.36,0.9,30.13-11.17
			c13.77-12.07,28.71-29.15,41.11-28.64c0,0-1.72-0.65,0-2.15c1.72-1.51,8.5-7.75,9.04-9.25c0.54-1.51,2.69,1.61,2.58,4.52
			c-0.11,2.91,6.24,12.05,9.25,13.56c3.01,1.51-0.32,4.41-3.55,4.73c-3.23,0.32-5.6,3.12-5.6,3.12s-0.65,0.75-1.61-1.08
			c0,0,0.86,4.84-6.35,13.24c-7.21,8.39-7.75,14.95-8.93,17.37c-1.18,2.43-7.42,11.79-18.72,16.74c-11.3,4.95-30.89,21.2-32.72,26.9
			c-1.83,5.7-0.43,28.3,3.87,40.14c4.3,11.84,4.3,24.32-1.08,32.5s-8.39-6.67-19.15-4.52c-10.76,2.15-45.63,7.1-56.82-1.08
			c-11.19-8.18-5.38-6.67-6.03-22.38c-0.65-15.71,5.49-36.96-0.94-48.75c0,0-13.05-9.04-23.54-27.6
			c-10.49-18.56-15.17-16.79-21.79-24.7c-6.62-7.91-11.14-16.63-12.75-23.4c0,0-0.48,0.48-2.26,0.48c-1.78,0-7.91-3.71-8.39-4.52
			c-0.48-0.81,16.14-2.74,15.33-18.72c0,0,5.33,3.23,7.26,7.91c0,0,0.16,0.63,0.81,1.13c0.65,0.5,0,0,0.81,0.48
			c0.81,0.48,15.17,10.49,18.08,14.69c2.91,4.2,8.55,7.1,11.46,8.23c2.91,1.13,16.95,9.36,18.89,12.75S236.3,145.76,241.37,122.68z"
			/>
		<path class="st18" d="M220.14,120.05"/>
		<path class="st18" d="M214.76,121.99"/>
		<g>
			<path class="st15" d="M215.13,148.58c0,0,1.19,16.89,11.43,28.18c5.59,6.16,16.7,7.32,25.28,10.85c0,0-21.25,4.12-32.35-6.06
				C208.4,171.37,215.13,148.58,215.13,148.58z"/>
			<path class="st15" d="M198.67,220.83c0,0,2.1,10.01,18.08,10.65c15.98,0.65,24.86-2.1,33.25-1.61c0,0-17.37-6.72-31.4-3.66
				C205.93,228.96,198.67,220.83,198.67,220.83z"/>
			<path class="st15" d="M138.62,84.67c0,0,3.39-1.61,7.26-8.72C145.89,75.96,148.63,83.87,138.62,84.67z"/>
			<path class="st15" d="M334.74,81.04c0,0,3.07,1.37,4.2,5.25c1.13,3.87,1.21,3.95,1.61,4.52c0,0-2.5-1.61-3.31-3.71
				C336.43,85,337.16,83.79,334.74,81.04z"/>
		</g>
		<g>
			<path class="st19" d="M194.85,143.11c0,0,3.55,6.53,3.82,13.42c0.27,6.89-2.68,4.13-1.1,16.54"/>
			<path class="st19" d="M144.99,104.05c0,0,2.68,6.27,11.74,12.48c9.06,6.21,14.01,5.78,19.39,15.89"/>
			<path class="st19" d="M284.42,155.41c0,0,12.57-10.28,21.39-15.13c8.82-4.85,14.08-7.33,20.54-17.6"/>
			<path class="st19" d="M197.42,229.93c0,0,6.61,13.27,49.15,6.42"/>
		</g>
		<g>
			<path class="st20" d="M260.81,216.15c0,0,16.76,23.57,20.57,37.13c3.81,13.56,14.78,12.43,20.27,6.46
				c5.49-5.97,21.47-20.5,25.66-25.34c4.2-4.84,18.4-30.67,15.01-41.97c-3.39-11.3-14.37-8.72-19.37-6.3
				c-5,2.42-43.74,32.77-50.52,32.93C265.65,219.21,260.81,216.15,260.81,216.15z"/>
			<path class="st21" d="M333.12,190.16c-1.45-10.01-7.91-5.33-16.14-3.28c-8.23,2.04-13.56-3.98-19.05-2.8
				c0,0-10.55-13.77-20.45-34.65s-25.03-33.57-30.92-31.42c0,0-1.55,0.38-2.37,1.21c-0.82,0.83-1.9,5.24,3.16,6.1
				c5.06,0.86,18.72,13.13,22.6,22.81c3.74,9.36,14.41,30.76,24.45,38.02c-5.39,4.65-12.37,15.66-17.45,21.27
				c-4.47,4.93-10.73,7.25-13.98,8.18c0.18-0.12,0.33-0.26,0.42-0.44c0,0-10.54-11.29-27.13-14.74
				c-16.59-3.45-34.53-17.38-36.46-20.45c-1.94-3.07-6.31-9.56-5.82-18.34l-3.67-3.06c-0.5,0.86-3.42,15.58,8.84,26.88
				c12.27,11.3,39.54,20.18,44.06,21.47c4.52,1.29,15.99,7.43,17.6,9.2c5.97,2.58,23.86,21.49,29.54,28.41
				c5.26,6.42,6.62,4.04,6.62,4.04C334.3,226.36,334.58,200.17,333.12,190.16z"/>
			<path class="st20" d="M274.81,209.49c0,0,7.41,5.15,10.96,6.12c2.97,0.81,7.75,2.37,13.13-7.21c5.38-9.58,9.95-19.28,13.37-21.15
				c0,0,2.91,0.12,4.71-0.37c0,0-9.9,13.77-15.6,24.75c-5.7,10.98-13.77,8.82-17.33,8.07c-3.55-0.75-11.88-6.16-12.72-7.71
				C271.34,211.99,273.8,210.4,274.81,209.49z"/>
			<g>
				<path class="st22" d="M292.69,262.74c0,0,5.68-0.81,3.74-12.91"/>
				<path class="st22" d="M317.52,234.22c0,0,2.26,1.78,2.91,5.81"/>
				<path class="st22" d="M321.02,231.58c0,0,2.58,3.13,2.74,4.74"/>
				<path class="st22" d="M334.58,197.58c0,0,3.87-1.61,6.78,2.26"/>
			</g>
			<g>
				<path class="st23" d="M201.86,182.19c0,0,15.26,12.89,28.27,16.55c13.01,3.66,18.26,4.64,24.74,9.57"/>
				<path class="st23" d="M252.96,128.23c0,0,12.77,9.09,17.58,21.31c4.81,12.22,12.49,23.54,12.49,23.54"/>
				<path class="st23" d="M306.63,185.87c0,0,3.51,2.8,12.34,0.46c8.83-2.34,16.58-4.86,22.39,3.62"/>
			</g>
		</g>
		<g>
			<path class="st24" d="M362.1,37.14c0,0,2.64-10.32,2.17-17.02c0,0-0.44-2.64,0.29-3.16c1.47-1.03,2.82,0.21,2.91,6.34"/>
			<path class="st24" d="M365.49,37.14c0,0,1.92-12.19,2.17-16.3c0.25-4.11,1.64-3.38,2.03-3.14c0.39,0.24,1.94,0.24,1.78,11.05"/>
			<path class="st24" d="M367.91,38.67c0,0,3.13-9.44,5.48-14.12c2.35-4.68,3.61-2.55,3.69-2.38c0.37,0.75,0.86,3.16-2.56,11.12
				c0,0-2.04,6.18-2.07,8.6"/>
			<path class="st24" d="M371.86,48.84c0,0,1.95-0.59,3.87-3.47c1.92-2.88,3.58-7.14,5.79-8.33c2.21-1.19,3.7-0.87,3.8,1.07
				c0.07,1.51-2.5,4.7-3.61,7.1"/>
			<path class="st24" d="M360.28,69.2c0,0-4.72,3.86-10.92,12.22"/>
		</g>
		<g>
			<path class="st24" d="M119.63,60.76c0,0-1.35-2.23,1.88-9.09c1.12-2.39-3.92-8.49-0.32-10.55c0.54-0.31,1.97,1.25,3.17,3.79
				c0.34,0.72,1.34,3.1,1.66,4.15c0.47,1.56,1.25,3.52,1.84,4.49"/>
			<path class="st24" d="M120.62,37.22c0,0-4.52-12.75-3.47-15.41c0,0,0.97-2.18,2.74,0"/>
			<path class="st24" d="M117.15,21.8c-0.56-3.7-1.67-3.65-2.15-3.66c-0.48-0.01-2.04,0.11-1.83,3.58
				c0.21,3.47,3.13,14.93,3.13,14.93s-1.05,1.68-1.76-0.73c-0.7-2.41-3.85-13.66-5.65-15.88c-0.98-1.21-2.02-1.4-2.65,0.05
				c-0.62,1.46,0.18,4.12,2.7,11.73c2.52,7.61,2.52,7.61,2.52,7.61"/>
			<path class="st24" d="M111.45,39.45c0,0-5.63-9.45-7.53-11.84c-1.57-1.98-2.57,0.52-1.88,2.1c0.76,1.75,2.98,7.24,3.68,8.9"/>
			<path class="st24" d="M108.54,46.3c0,0,2.83,8.42,4.13,10.88c1.53,2.91,2.47,5,7.71,6.8"/>
		</g>
		<path class="st25" d="M225.95,136.25c0,0,4.54,10.33,14.13,5.65c9.6-4.68,5.72-14.2,5.72-14.2s-2.74-16.3-4.52-18.72
			L225.95,136.25z"/>
		<path class="st16" d="M224.8,137.64c0,0-14.51,0.2-21.77-14.2c-1.71-3.39-1.52-4.84-2.57-7.3c-0.97-2.28-5.97-10.08-6.48-12.17
			c-5.07-20.43,11.14-28.32,15.83-28.91c5.17-0.65,27.76-6.46,32.61,25.18C247.25,131.89,231.25,135.7,224.8,137.64z"/>
		<g>
			<path class="st26" d="M230.15,118.87c-6.71,9.28-15.59,6.58-15.59,6.58c3.38,2.12,5.47,5.74,7.89,6.73
				c1.26,0.51,2.6,0.32,4.25-1.17c2.7-2.42,3.46-5.91,3.6-8.53C230.42,120.4,230.15,118.87,230.15,118.87z"/>
			<path class="st27" d="M228.71,126.56c-2.83,0.71-5.05,2.64-5.61,5.79c1.07,0.22,2.23-0.12,3.61-1.35
				c1.42-1.28,2.3-2.85,2.83-4.44C229.26,126.56,228.99,126.56,228.71,126.56z"/>
		</g>
		<g>
			<path class="st28" d="M228.11,106.4c0.52-1.31-0.33-2.35-0.33-2.35c0.09,1.05-0.3,1.75-0.64,2.17c-6.19-0.68-5.57,8.53-5.57,8.53
				c1.2-6.91,8.29-7.76,8.29-7.76C229.22,106.73,228.65,106.53,228.11,106.4z"/>
			<path class="st28" d="M202.82,114.81c-0.71,0.16-1.82,0.27-2.36-0.5c0,0,0.66,1.53,1.59,1.55c-0.18,0.29-0.36,0.6-0.53,0.95
				c0,0,5.53-3.64,10.5,0.53C212.03,117.34,206.81,110.26,202.82,114.81z"/>
			<path class="st28" d="M209.74,110.21c0,0-7.51-4.43-11.11,3.08c0,0,0.15-3.6,3.83-5.55c3.68-1.95,6.3-0.38,6.53,0
				C209.22,108.11,209.82,109.69,209.74,110.21z"/>
			<path class="st28" d="M216.81,106.85c0,0,3.71-9.41,12.36-5.12c0,0-2.71-3.19-7.47-2.35c-4.76,0.84-6.04,4.16-5.98,4.66
				C215.79,104.55,216.36,106.43,216.81,106.85z"/>
		</g>
		<path class="st29" d="M204.53,94.33c0,0,9.25,12.05,26.26,4.3c0,0,4.09,0.68,6.67,8.63c2.58,7.95,16.57,6.44,19.8,4.07
			c3.23-2.37,19.8,4.52,20.23,8.61c0.43,4.09,25.18,15.5,32.93-1.72c7.75-17.22,2.8-18.29,12.05-21.74
			c9.25-3.44,2.8-20.02-3.01-23.24c-5.81-3.23-22.38,3.66-26.69-3.23c-4.3-6.89-12.91-16.36-22.6-10.55
			c-9.68,5.81-17.43,15.5-40.46,8.82c0,0-16.36-3.8-25.18,5.95c0,0-17.86,4.16-16.57,16.43c0,0-5.57,7.75,1.08,13.13
			c6.65,5.38,5.27-0.6,5.27-0.6S204.1,103.37,204.53,94.33z"/>
		<g>
			<path class="st30" d="M233.94,110.84c0.66,1.38-0.42,3.27-2.42,4.22c-1.99,0.95-4.14,0.61-4.8-0.77
				c-0.66-1.38,0.42-3.27,2.42-4.22C231.14,109.12,233.28,109.47,233.94,110.84z"/>
			<path class="st30" d="M210.46,121.44c0.43,1.46-0.9,3.15-2.97,3.76c-2.08,0.62-4.11-0.07-4.55-1.53
				c-0.43-1.46,0.9-3.14,2.97-3.76C207.99,119.3,210.03,119.98,210.46,121.44z"/>
		</g>
		<g>
			<path class="st31" d="M211.2,111.44c0,0,4.52,1.85,3.14,7.21c-0.59,2.3-0.68,4.15,2,4.15c1.49,0,2.25-1.4,2.25-1.4"/>
			<path class="st24" d="M207.12,129.84c0,0,10.55,8.98,17.68,7.8c7.33-1.22,13.74-7.02,15.4-11.52"/>
		</g>
		<g>
			<path class="st32" d="M206.24,83.05c0,0,7.54-7.98,19.7-2.01c12.16,5.97,27.01,9.63,33.47,6.62"/>
			<path class="st32" d="M203.03,86.57c0,0,4.75-9.88,18.52-1.92c13.76,7.96,24.24,15.07,30.3,12.05"/>
			<path class="st32" d="M206.24,86.57c0,0,7.54,12.93,22.93,7.76"/>
			<path class="st32" d="M232.13,83.78c0,0,22.98,0.63,30.73-4.96c7.75-5.58,17-11.85,27.76-1.94c10.76,9.91,23.67,4.66,23.67,4.66"
				/>
			<path class="st32" d="M237.7,93.86c0,0,5.58,16.18,19.78,9.18c14.2-6.99,21.4,1.84,25.55,6.35c4.15,4.51,15.34,7.5,19.86,0.63"/>
			<path class="st32" d="M204.19,81.55c0,0,9.04-16.21,21.51-9.88c14.09,7.16,17.51,4.37,17.51,4.37"/>
			<path class="st32" d="M247.36,78.83c1.18-0.2,15.75-6.23,26.06-14.84c10.31-8.61,17.73,7.42,17.73,7.42"/>
			<path class="st32" d="M262.86,78.83c0,0,18.77-9.35,33.38,9.91c14.61,19.26,23,2.07,23,2.07"/>
			<path class="st32" d="M256.45,99.25c0,0,10.11-5.7,16.76-12.03c6.65-6.33,17.47-2.31,21.18,12.03"/>
			<path class="st32" d="M203.03,89.48c0,0-2.49,11.11-11.19,9.77"/>
			<path class="st32" d="M187.1,95.55c0,0,6.26,4.22,15.18-3.77"/>
			<path class="st32" d="M202.28,84.31c0,0-8.14-3.78-12.63,1.62"/>
			<path class="st32" d="M203.03,78.83c0,0-3.55-1.98-7.06,1.49"/>
			<path class="st32" d="M273.42,107.26c0,0,9.1,3.17,10.99,10.08c1.9,6.91,17.29,6.48,20.03,1.53"/>
		</g>
		<g>
			<path class="st33" d="M232.13,70.87c0,0,19.92-0.32,27.29-8.72c7.37-8.39,17.22-9.2,19.15-7.75"/>
			<path class="st33" d="M232.48,97.87c0,0,0.49,2.51,1.32,6.11c0.76,3.28,5.91,18.36,22.65,9.31c16.74-9.06,12.81-6.51,12.81-6.51"
				/>
			<path class="st33" d="M297.08,126.12c0,0,13.14,7.59,20.45-19.34"/>
		</g>
	</g>
	<g>
		<defs>
			<rect id="SVGID_00000125604345608865222930000013930651873368701623_" width="500" height="500"/>
		</defs>
		<clipPath id="SVGID_00000084509498209385948780000008826894914349293198_">
			<use xlink:href="#SVGID_00000125604345608865222930000013930651873368701623_"  style="overflow:visible;"/>
		</clipPath>
		<g style="display:none;clip-path:url(#SVGID_00000084509498209385948780000008826894914349293198_);">
			<path class="st35" d="M369.72,64.92c0,0,1.92,16.8,57.12,4.8s76.8,9.6,76.8,9.6V41.4c0,0-6.24-17.76-17.76-14.88
				c-11.52,2.88-20.16,11.52-21.12,15.84c0,0-0.48-12.87-11.04-16.16S429.24,35.88,426.6,45c0,0-4.55-10.32-14.64-5.28
				c-10.08,5.04-22,18.9-27.6,22.56C377.79,66.57,372.6,68.28,369.72,64.92z"/>
			<path class="st35" d="M2.04,81c0,0,9.12-24.24,37.2-15.6s42.48,19.68,66.96,9.36c0,0-5.76,0-8.4-5.52
				c-2.64-5.52-5.28-10.56-8.88-8.88s-4.8,4.32-4.8,6c0,0,0-9.12-3.6-10.56c-3.6-1.44-12.72-0.48-18,9.36c0,0,2.16-19.2-6.96-25.92
				S34.35,37.32,29.4,50.52c0,0-5.51-10.05-11.88-8.97C10.77,42.69-3,49.32,2.04,81z"/>
			<path class="st35" d="M132.66,206.22c0,0-2.27,19.84-67.46,5.67s-90.7,11.34-90.7,11.34v-44.78c0,0,7.37-20.97,20.97-17.57
				c13.61,3.4,23.81,13.61,24.94,18.71c0,0,0.57-15.2,13.04-19.08c12.47-3.88,28.91,11.43,32.03,22.2c0,0,5.38-12.19,17.29-6.24
				c11.91,5.95,25.98,22.32,32.6,26.64C123.13,208.17,129.26,210.19,132.66,206.22z"/>
			<path class="st35" d="M363.96,235.8c0,0,27.12-11.76,51.12,1.44c23.72,13.05,48.14,28.2,85.55,2.14
				c0.44-0.31,0.89-0.62,1.33-0.94c0,0,6.24-27.6-13.2-34.8s-32.64,12.96-32.64,12.96s-4.57-17.76-22.68-16.08
				c-18.12,1.68-20.04,15.12-20.04,15.12s-4.8-9.65-14.16-7.22c-9.36,2.42-16.08,12.26-21.36,16.58S363.96,235.8,363.96,235.8z"/>
		</g>
	</g>
</g>
</svg>
