<svg width="328" height="328" viewBox="0 0 328 328" fill="none" xmlns="http://www.w3.org/2000/svg">
<path fill-rule="evenodd" clip-rule="evenodd" d="M328 245.863L222.343 245.85L259.667 300.516H241.75L204.358 245.85H177.667L140.275 300.516H123L160.337 245.85H120.021V232.183H232.333V218.516H273.333V232.183H314.333V40.8498H82V46.9588H68.3333V27.1831H328V245.85V245.863ZM92.373 122.863C101.243 122.863 110.044 119.952 115.497 116.905C125.815 111.165 152.329 94.4504 163.125 87.8768C166.064 86.1001 169.904 86.7561 172.063 89.4348L172.186 89.5714C174.428 92.3731 174.168 96.4048 171.599 98.8648L125.528 142.789C118.408 149.595 114.294 158.957 113.871 168.783C112.572 198.946 110.304 263.247 109.333 289.515C109.115 295.665 104.058 300.53 97.908 300.53H97.8943C91.8263 300.53 87.1523 295.774 86.469 289.761C84.952 276.34 81.9727 244.948 80.6333 232.197C80.0867 226.949 76.8203 223.819 72.652 223.805C68.4973 223.778 65.5043 226.894 65.1627 232.115C64.3153 244.702 61.5273 276.518 60.4887 289.802C60.024 295.829 55.063 300.53 49.0087 300.53H48.995C42.8177 300.53 37.7473 295.665 37.4877 289.474C36.162 257.494 32.4447 166.979 32.4447 166.979L14.8557 198.836C12.9423 202.308 8.774 203.811 5.084 202.39L5.07033 202.376C1.95433 201.173 0 198.208 0 194.996L0.300667 192.85L17.302 132.813C18.9693 126.936 24.3403 122.877 30.463 122.877H92.373V122.863ZM191.333 150.197H259.667V136.53H191.333V150.197ZM191.333 122.863H287V109.197H191.333V122.863ZM73.4447 54.5301C90.405 54.5301 104.195 68.3061 104.195 85.2801C104.195 102.254 90.405 116.03 73.4447 116.03C56.4707 116.03 42.6947 102.254 42.6947 85.2801C42.6947 68.3061 56.4707 54.5301 73.4447 54.5301ZM191.333 95.5301H287V81.8634H191.333V95.5301Z" fill="white"/>
</svg>
