<svg width="125" height="125" viewBox="0 0 125 125" fill="none" xmlns="http://www.w3.org/2000/svg">
<path d="M58.3125 40.625H68.75C70.4076 40.625 71.9973 41.2835 73.1694 42.4556C74.3415 43.6277 75 45.2174 75 46.875V57.3125L78.125 60.4375L96.875 46.875V78.125M75 75V78.125C75 79.7826 74.3415 81.3723 73.1694 82.5444C71.9973 83.7165 70.4076 84.375 68.75 84.375H34.375C32.7174 84.375 31.1277 83.7165 29.9556 82.5444C28.7835 81.3723 28.125 79.7826 28.125 78.125V46.875C28.125 45.2174 28.7835 43.6277 29.9556 42.4556C31.1277 41.2835 32.7174 40.625 34.375 40.625H40.625L75 75Z" stroke="#5C5C5C" stroke-width="2" stroke-linecap="round" stroke-linejoin="round"/>
<path d="M28.125 28.125L96.875 96.875" stroke="#5C5C5C" stroke-width="2" stroke-linecap="round" stroke-linejoin="round"/>
</svg>
